STARTFONT 2.1
FONT -FontForge-Pacifico-Book-R-Normal--18-180-72-72-P-105-ISO10646-1
SIZE 18 72 72
FONTBOUNDINGBOX 41 37 -11 -9
COMMENT "Generated by fontforge, http://fontforge.sourceforge.net"
COMMENT "Copyright 2018 The Pacifico Project Authors (https://github.com/googlefonts/Pacifico)"
STARTPROPERTIES 40
FOUNDRY "FontForge"
FAMILY_NAME "Pacifico"
WEIGHT_NAME "Book"
SLANT "R"
SETWIDTH_NAME "Normal"
ADD_STYLE_NAME ""
PIXEL_SIZE 18
POINT_SIZE 180
RESOLUTION_X 72
RESOLUTION_Y 72
SPACING "P"
AVERAGE_WIDTH 105
CHARSET_REGISTRY "ISO10646"
CHARSET_ENCODING "1"
FONTNAME_REGISTRY ""
CHARSET_COLLECTIONS "ISO8859-2 ISO8859-5 ISO8859-9 ISO8859-4 ISO10646-1"
FONT_NAME "Pacifico-Regular"
FACE_NAME "Pacifico Regular"
COPYRIGHT "Copyright 2018 The Pacifico Project Authors (https://github.com/googlefonts/Pacifico)"
FONT_VERSION "3.001"
FONT_ASCENT 14
FONT_DESCENT 4
UNDERLINE_POSITION -2
UNDERLINE_THICKNESS 1
X_HEIGHT 8
CAP_HEIGHT 15
DEFAULT_CHAR 1
RAW_ASCENT 800
RAW_DESCENT 200
NORM_SPACE 5
RELATIVE_WEIGHT 40
RELATIVE_SETWIDTH 50
SUPERSCRIPT_X 0
SUPERSCRIPT_Y 6
SUPERSCRIPT_SIZE 10
SUBSCRIPT_X 0
SUBSCRIPT_Y 1
SUBSCRIPT_SIZE 10
AVG_LOWERCASE_WIDTH 84
AVG_UPPERCASE_WIDTH 147
ENDPROPERTIES
CHARS 1514
STARTCHAR NULL.dup1
ENCODING 0
SWIDTH 0 0
DWIDTH 0 0
BBX 1 1 0 0
BITMAP
00
ENDCHAR
STARTCHAR nonmarkingreturn
ENCODING 13
SWIDTH 265 0
DWIDTH 5 0
BBX 1 1 0 0
BITMAP
00
ENDCHAR
STARTCHAR space
ENCODING 32
SWIDTH 265 0
DWIDTH 5 0
BBX 1 1 0 0
BITMAP
00
ENDCHAR
STARTCHAR exclam
ENCODING 33
SWIDTH 340 0
DWIDTH 6 0
BBX 6 16 1 0
BITMAP
1C
18
18
38
38
30
30
30
60
60
60
00
E0
E0
E0
C0
ENDCHAR
STARTCHAR quotedbl
ENCODING 34
SWIDTH 510 0
DWIDTH 9 0
BBX 7 6 2 10
BITMAP
66
EE
EE
EE
CC
CC
ENDCHAR
STARTCHAR numbersign
ENCODING 35
SWIDTH 700 0
DWIDTH 13 0
BBX 11 12 1 0
BITMAP
0880
1CC0
19C0
FFE0
FFE0
3180
3380
3300
FFE0
FFC0
6700
6600
ENDCHAR
STARTCHAR dollar
ENCODING 36
SWIDTH 524 0
DWIDTH 9 0
BBX 8 17 1 -3
BITMAP
08
08
08
3E
7E
EB
CA
78
7C
1E
96
D6
D6
FC
10
30
30
ENDCHAR
STARTCHAR percent
ENCODING 37
SWIDTH 896 0
DWIDTH 16 0
BBX 15 15 1 0
BITMAP
3020
7870
DCE0
DFE0
CFC0
CDC0
F980
3398
033C
0666
0E66
0C66
1C66
187C
1838
ENDCHAR
STARTCHAR ampersand
ENCODING 38
SWIDTH 851 0
DWIDTH 15 0
BBX 14 18 1 -1
BITMAP
0F00
1F80
19C0
38C0
38C0
3980
1B80
1F00
1E00
3E0C
771C
E718
C3B8
C1F0
E1E0
7FF0
3E70
0038
ENDCHAR
STARTCHAR quotesingle
ENCODING 39
SWIDTH 290 0
DWIDTH 5 0
BBX 3 6 2 10
BITMAP
60
E0
E0
E0
C0
C0
ENDCHAR
STARTCHAR parenleft
ENCODING 40
SWIDTH 613 0
DWIDTH 11 0
BBX 11 21 2 -3
BITMAP
03C0
0FE0
1C60
1800
3800
3000
7000
6000
6000
E000
E000
C000
C000
C000
C000
C000
C000
C100
E700
7E00
3C00
ENDCHAR
STARTCHAR parenright
ENCODING 41
SWIDTH 613 0
DWIDTH 11 0
BBX 11 21 -1 -3
BITMAP
0780
0FC0
18E0
1060
0060
0060
0060
0060
0060
00E0
00E0
00E0
00C0
00C0
01C0
0180
0380
0300
CF00
FE00
7800
ENDCHAR
STARTCHAR asterisk
ENCODING 42
SWIDTH 520 0
DWIDTH 9 0
BBX 7 8 2 10
BITMAP
18
58
7A
3E
F8
DE
36
30
ENDCHAR
STARTCHAR plus
ENCODING 43
SWIDTH 700 0
DWIDTH 13 0
BBX 10 12 1 0
BITMAP
0200
0600
0600
0600
0600
7FC0
FFC0
0C00
0C00
0C00
0C00
0C00
ENDCHAR
STARTCHAR comma
ENCODING 44
SWIDTH 257 0
DWIDTH 5 0
BBX 4 7 0 -3
BITMAP
20
70
60
60
60
C0
C0
ENDCHAR
STARTCHAR hyphen
ENCODING 45
SWIDTH 403 0
DWIDTH 7 0
BBX 6 3 1 4
BITMAP
78
FC
40
ENDCHAR
STARTCHAR period
ENCODING 46
SWIDTH 257 0
DWIDTH 5 0
BBX 4 4 0 0
BITMAP
60
70
F0
60
ENDCHAR
STARTCHAR slash
ENCODING 47
SWIDTH 509 0
DWIDTH 9 0
BBX 10 18 0 0
BITMAP
00C0
00C0
01C0
0180
0380
0300
0700
0600
0E00
0C00
1C00
1800
3800
3000
7000
6000
E000
C000
ENDCHAR
STARTCHAR zero
ENCODING 48
SWIDTH 543 0
DWIDTH 10 0
BBX 8 11 1 0
BITMAP
3C
7E
67
E3
C3
C3
C3
C7
E6
7E
3C
ENDCHAR
STARTCHAR one
ENCODING 49
SWIDTH 376 0
DWIDTH 7 0
BBX 5 12 1 0
BITMAP
10
78
F8
B8
38
30
30
30
30
30
70
30
ENDCHAR
STARTCHAR two
ENCODING 50
SWIDTH 560 0
DWIDTH 10 0
BBX 8 11 1 0
BITMAP
3E
7F
67
E3
47
06
0E
1C
70
FF
FF
ENDCHAR
STARTCHAR three
ENCODING 51
SWIDTH 520 0
DWIDTH 9 0
BBX 9 11 0 0
BITMAP
1F00
3F80
6380
6380
0700
1E00
0F00
4380
E380
7F00
3E00
ENDCHAR
STARTCHAR four
ENCODING 52
SWIDTH 577 0
DWIDTH 10 0
BBX 9 12 1 0
BITMAP
0800
3800
3000
7300
6300
6700
C600
FF80
FF80
0600
0600
0600
ENDCHAR
STARTCHAR five
ENCODING 53
SWIDTH 518 0
DWIDTH 9 0
BBX 8 11 1 0
BITMAP
7F
FF
60
60
7C
7E
06
C7
C6
FE
7C
ENDCHAR
STARTCHAR six
ENCODING 54
SWIDTH 541 0
DWIDTH 10 0
BBX 8 11 1 0
BITMAP
1E
7F
63
E0
DC
FE
E7
C7
E7
7E
3C
ENDCHAR
STARTCHAR seven
ENCODING 55
SWIDTH 497 0
DWIDTH 9 0
BBX 8 11 1 0
BITMAP
FF
FF
0E
1C
18
38
30
70
70
70
60
ENDCHAR
STARTCHAR eight
ENCODING 56
SWIDTH 512 0
DWIDTH 9 0
BBX 8 11 1 0
BITMAP
3E
7F
E3
E7
7E
3C
EE
C7
C6
FE
7C
ENDCHAR
STARTCHAR nine
ENCODING 57
SWIDTH 541 0
DWIDTH 10 0
BBX 8 11 1 0
BITMAP
3C
7E
E7
E3
E7
7F
3B
87
C6
FC
78
ENDCHAR
STARTCHAR colon
ENCODING 58
SWIDTH 257 0
DWIDTH 5 0
BBX 4 9 0 0
BITMAP
30
70
70
30
00
60
70
F0
60
ENDCHAR
STARTCHAR semicolon
ENCODING 59
SWIDTH 257 0
DWIDTH 5 0
BBX 4 12 0 -3
BITMAP
30
70
70
30
00
20
70
60
60
60
C0
C0
ENDCHAR
STARTCHAR less
ENCODING 60
SWIDTH 700 0
DWIDTH 13 0
BBX 11 9 1 1
BITMAP
0040
01E0
0FC0
7E00
F000
7800
3F00
07C0
01C0
ENDCHAR
STARTCHAR equal
ENCODING 61
SWIDTH 700 0
DWIDTH 13 0
BBX 11 6 1 3
BITMAP
7FE0
7FC0
0000
0000
FFC0
FFC0
ENDCHAR
STARTCHAR greater
ENCODING 62
SWIDTH 700 0
DWIDTH 13 0
BBX 10 9 1 1
BITMAP
4000
7800
7E00
0FC0
01C0
07C0
3F00
F800
E000
ENDCHAR
STARTCHAR question
ENCODING 63
SWIDTH 476 0
DWIDTH 9 0
BBX 8 16 1 0
BITMAP
3E
7F
63
63
67
06
0E
18
30
30
20
00
60
F0
E0
60
ENDCHAR
STARTCHAR at
ENCODING 64
SWIDTH 1015 0
DWIDTH 18 0
BBX 17 19 1 -5
BITMAP
03F800
0FFE00
1E0F00
380300
700300
60C180
63F180
E33180
C66380
C66300
C66300
C6E600
C7FE00
C3BC00
E00000
700200
381E00
1FFC00
07F000
ENDCHAR
STARTCHAR A
ENCODING 65
SWIDTH 786 0
DWIDTH 14 0
BBX 15 16 1 0
BITMAP
01FC
07FC
1F08
3C30
3830
7070
6070
E060
E060
E0E0
E0E0
E0E0
E1E2
73E6
7E7C
3C38
ENDCHAR
STARTCHAR B
ENCODING 66
SWIDTH 827 0
DWIDTH 15 0
BBX 16 17 0 -1
BITMAP
07F8
3FFE
780E
C007
0C07
0C06
1C1E
1CF8
19F0
1838
181C
381C
3838
3878
3FF0
3FC0
3000
ENDCHAR
STARTCHAR C
ENCODING 67
SWIDTH 686 0
DWIDTH 12 0
BBX 14 16 1 0
BITMAP
07C0
1FE0
3C60
3870
7070
6060
E000
E000
E000
E000
E000
E000
7000
783C
3FF8
0FE0
ENDCHAR
STARTCHAR D
ENCODING 68
SWIDTH 836 0
DWIDTH 15 0
BBX 14 16 1 0
BITMAP
1FC0
7FF0
F070
8038
1818
381C
381C
381C
301C
3018
7038
7038
7070
71E0
7FC0
7F00
ENDCHAR
STARTCHAR E
ENCODING 69
SWIDTH 686 0
DWIDTH 12 0
BBX 14 16 1 0
BITMAP
0FC0
1FE0
3870
7070
7070
3820
1F00
3F00
7000
E000
C000
C000
E008
F03C
7FF8
1FE0
ENDCHAR
STARTCHAR F
ENCODING 70
SWIDTH 712 0
DWIDTH 13 0
BBX 17 16 0 0
BITMAP
07FF80
1FFF80
39C000
31C000
31C000
318000
218000
07FC00
07F800
038000
038000
038000
830000
C70000
7E0000
3C0000
ENDCHAR
STARTCHAR G
ENCODING 71
SWIDTH 811 0
DWIDTH 15 0
BBX 16 25 1 -9
BITMAP
07C0
1FE0
3C70
3830
7030
6030
E000
E000
E000
E1F8
E1F8
E030
7033
7836
3FFC
0FF8
0070
00E0
01E0
0360
0660
06C0
06C0
0780
0300
ENDCHAR
STARTCHAR H
ENCODING 72
SWIDTH 873 0
DWIDTH 16 0
BBX 18 17 0 0
BITMAP
000300
1C0780
7E0C80
EE0C80
C61D80
861980
0E1900
0E1F00
0E3C00
3FF800
3FF800
0C3800
1C3800
1C3840
1838C0
181F80
180F00
ENDCHAR
STARTCHAR I
ENCODING 73
SWIDTH 495 0
DWIDTH 9 0
BBX 10 16 0 0
BITMAP
3FC0
3FC0
0E00
0E00
0E00
0E00
0C00
0C00
0C00
1C00
1C00
1C00
1800
1800
FF00
FF00
ENDCHAR
STARTCHAR J
ENCODING 74
SWIDTH 743 0
DWIDTH 13 0
BBX 13 18 1 -2
BITMAP
0FF0
3FF8
7070
E070
C070
E060
6060
0060
01E0
07E0
0EE0
18C0
38C0
31C0
3180
3380
3F00
1E00
ENDCHAR
STARTCHAR K
ENCODING 75
SWIDTH 937 0
DWIDTH 17 0
BBX 19 16 0 0
BITMAP
0FC180
3FE180
31C380
61C300
618700
318E00
019C00
07F800
07F000
03B800
03B800
431C20
C31C20
670E60
7E0FC0
3C0780
ENDCHAR
STARTCHAR L
ENCODING 76
SWIDTH 673 0
DWIDTH 12 0
BBX 15 16 -1 0
BITMAP
00F0
03FC
071C
060C
0E0C
0E0C
0E00
0C00
0C00
0C00
0C00
0C00
7E02
FF86
FFFC
70F8
ENDCHAR
STARTCHAR M
ENCODING 77
SWIDTH 1232 0
DWIDTH 22 0
BBX 25 16 0 0
BITMAP
1C787000
7CFDF800
6E9DB800
CF8F1800
8D0E3800
0E1E3800
0E1C3800
0E1C3800
0E1C3000
0C187000
1C187000
1C387000
1C387180
1C387300
18383F00
18301C00
ENDCHAR
STARTCHAR N
ENCODING 78
SWIDTH 884 0
DWIDTH 16 0
BBX 18 16 0 0
BITMAP
1C3C00
7E7E00
6ECE00
CF8E00
8F0E00
0F0E00
0E0C00
0E0C00
0E1C00
0C1C00
1C1C00
1C1800
1C1840
1C1CC0
181F80
180F00
ENDCHAR
STARTCHAR O
ENCODING 79
SWIDTH 816 0
DWIDTH 15 0
BBX 13 16 1 0
BITMAP
07C0
1FF0
3C70
3838
7038
6018
E018
E018
E018
E038
E038
E030
7070
70E0
3FC0
1F00
ENDCHAR
STARTCHAR P
ENCODING 80
SWIDTH 805 0
DWIDTH 14 0
BBX 14 18 1 -2
BITMAP
03E0
0FF8
1C38
381C
731C
671C
671C
C738
C778
DFF0
DFC0
CE00
CE00
CE00
CE00
EC00
7C00
3C00
ENDCHAR
STARTCHAR Q
ENCODING 81
SWIDTH 816 0
DWIDTH 15 0
BBX 15 22 1 -6
BITMAP
07C0
1FF0
3C70
3838
7038
6018
E018
E018
E018
E038
E038
E030
7070
78E0
3FC0
1F80
0380
0380
01C2
01C6
00FC
0078
ENDCHAR
STARTCHAR R
ENCODING 82
SWIDTH 880 0
DWIDTH 16 0
BBX 17 16 1 0
BITMAP
07E000
0FF800
3C3800
301C00
671C00
671800
C73800
C67000
DFE000
CFC000
CEE000
CE7000
CE7080
6C3980
7C3F00
3C1E00
ENDCHAR
STARTCHAR S
ENCODING 83
SWIDTH 693 0
DWIDTH 12 0
BBX 11 16 1 0
BITMAP
0F80
3FE0
70E0
7060
6060
7060
7800
3E00
0F80
03C0
C0E0
C0E0
C0E0
E1C0
FFC0
3F00
ENDCHAR
STARTCHAR T
ENCODING 84
SWIDTH 697 0
DWIDTH 13 0
BBX 15 16 1 0
BITMAP
1FFE
7FFE
E380
C380
C380
C300
C300
0700
0700
0700
0700
0600
0600
0600
0E00
0600
ENDCHAR
STARTCHAR U
ENCODING 85
SWIDTH 890 0
DWIDTH 16 0
BBX 18 16 0 0
BITMAP
1C0600
7E0E00
660E00
C60E00
8E0E00
0E0E00
0E0C00
0C1C00
0C1C00
1C1C00
1C3C00
1C3C00
1C7C40
1DDDC0
1F9F80
0F0F00
ENDCHAR
STARTCHAR V
ENCODING 86
SWIDTH 763 0
DWIDTH 14 0
BBX 14 16 2 0
BITMAP
60E0
61F0
61B0
E330
E330
E330
E1B0
E1E0
E0FC
E0FC
E0C0
61C0
6380
7F00
3E00
3C00
ENDCHAR
STARTCHAR W
ENCODING 87
SWIDTH 1217 0
DWIDTH 22 0
BBX 23 16 2 0
BITMAP
6070E0
6071F0
6071B0
E06130
E0E130
E0E1B0
E0E1B0
E0E1F0
E1E0FE
E1E07C
E1E0C0
E361C0
677180
7E3F00
7E3E00
381C00
ENDCHAR
STARTCHAR X
ENCODING 88
SWIDTH 712 0
DWIDTH 13 0
BBX 15 16 0 0
BITMAP
3C1C
7E1C
CE38
8770
07E0
03C0
0380
0380
0780
0F80
1DC0
39C0
39C2
70E6
E0FC
C078
ENDCHAR
STARTCHAR Y
ENCODING 89
SWIDTH 851 0
DWIDTH 15 0
BBX 17 22 0 -6
BITMAP
1C0600
7E0E00
660E00
C60E00
8E0E00
0E0E00
0E0C00
0C1C00
0C1C00
1C3C00
1C2C00
0C7C00
0FDF80
07BF80
00FC00
01D800
071800
063800
0E3000
0E7000
07E000
07C000
ENDCHAR
STARTCHAR Z
ENCODING 90
SWIDTH 721 0
DWIDTH 13 0
BBX 15 16 0 0
BITMAP
0FF0
3FFC
703C
6030
6070
70E0
20E0
01C0
0180
0380
0700
0E00
7E02
FF86
FFFC
70F8
ENDCHAR
STARTCHAR bracketleft
ENCODING 91
SWIDTH 405 0
DWIDTH 7 0
BBX 8 19 1 -1
BITMAP
1F
3F
38
30
30
30
30
70
70
70
70
60
60
60
60
E0
E0
FC
FC
ENDCHAR
STARTCHAR backslash
ENCODING 92
SWIDTH 509 0
DWIDTH 9 0
BBX 6 18 2 0
BITMAP
C0
C0
E0
E0
60
60
70
70
30
30
38
18
18
18
1C
0C
0C
0C
ENDCHAR
STARTCHAR bracketright
ENCODING 93
SWIDTH 405 0
DWIDTH 7 0
BBX 8 19 -1 -1
BITMAP
3F
3F
07
07
07
06
06
06
06
0E
0E
0E
0C
0C
0C
0C
0C
FC
F8
ENDCHAR
STARTCHAR asciicircum
ENCODING 94
SWIDTH 700 0
DWIDTH 13 0
BBX 8 10 2 1
BITMAP
0C
0C
1E
3E
36
66
63
C3
C3
81
ENDCHAR
STARTCHAR underscore
ENCODING 95
SWIDTH 354 0
DWIDTH 6 0
BBX 6 2 0 -2
BITMAP
FC
FC
ENDCHAR
STARTCHAR grave
ENCODING 96
SWIDTH 600 0
DWIDTH 11 0
BBX 4 6 2 10
BITMAP
C0
E0
60
60
30
10
ENDCHAR
STARTCHAR a
ENCODING 97
SWIDTH 470 0
DWIDTH 8 0
BBX 10 9 1 0
BITMAP
1800
7E00
6600
EE00
CC00
CCC0
DDC0
FF80
7700
ENDCHAR
STARTCHAR b
ENCODING 98
SWIDTH 473 0
DWIDTH 9 0
BBX 10 18 1 0
BITMAP
1C00
1E00
3600
3600
6600
6400
6C00
E800
F800
DC00
FE00
EE00
CFC0
C7C0
C600
EE00
7C00
3800
ENDCHAR
STARTCHAR c
ENCODING 99
SWIDTH 368 0
DWIDTH 7 0
BBX 8 9 1 0
BITMAP
38
7C
EC
C8
C0
C3
C7
FE
78
ENDCHAR
STARTCHAR d
ENCODING 100
SWIDTH 515 0
DWIDTH 9 0
BBX 11 18 1 0
BITMAP
0180
03C0
03C0
06C0
06C0
06C0
0680
0E80
0F80
1D00
7D00
6F00
CE00
CE00
CC60
CEC0
FFC0
7300
ENDCHAR
STARTCHAR e
ENCODING 101
SWIDTH 393 0
DWIDTH 7 0
BBX 8 9 1 0
BITMAP
38
7C
CC
CC
F8
F1
C7
FE
7C
ENDCHAR
STARTCHAR f
ENCODING 102
SWIDTH 371 0
DWIDTH 7 0
BBX 8 24 1 -6
BITMAP
0E
1E
1A
32
32
36
66
64
6C
78
F0
E0
C0
DF
DE
D0
D0
D0
D8
D8
D8
D0
70
70
ENDCHAR
STARTCHAR g
ENCODING 103
SWIDTH 479 0
DWIDTH 9 0
BBX 11 18 0 -9
BITMAP
0C00
3F00
3300
7700
6600
6660
6FC0
7F80
3700
0E00
1C00
3C00
6C00
4C00
D800
D800
F000
6000
ENDCHAR
STARTCHAR h
ENCODING 104
SWIDTH 502 0
DWIDTH 9 0
BBX 10 18 1 0
BITMAP
0C00
1E00
3600
3600
6600
6400
6C00
6800
F800
F600
EE00
DE00
D600
F600
E640
EEC0
E780
C700
ENDCHAR
STARTCHAR i
ENCODING 105
SWIDTH 246 0
DWIDTH 4 0
BBX 6 13 1 0
BITMAP
70
70
70
00
60
E0
E0
C0
C0
CC
DC
F8
70
ENDCHAR
STARTCHAR j
ENCODING 106
SWIDTH 254 0
DWIDTH 5 0
BBX 11 22 -4 -9
BITMAP
0300
0780
0300
0000
0300
0700
0700
0600
0600
0660
06C0
0780
0700
0E00
1C00
3C00
6C00
4C00
D800
D800
F000
6000
ENDCHAR
STARTCHAR k
ENCODING 107
SWIDTH 525 0
DWIDTH 9 0
BBX 11 18 1 0
BITMAP
0C00
1E00
3600
3600
6400
6400
6C00
6800
F000
F700
EF00
DB00
D300
E620
EC60
ECE0
EFC0
C780
ENDCHAR
STARTCHAR l
ENCODING 108
SWIDTH 326 0
DWIDTH 6 0
BBX 7 18 1 0
BITMAP
1C
1C
36
36
66
64
64
6C
CC
D8
D8
F0
F0
E0
C2
E6
7C
38
ENDCHAR
STARTCHAR m
ENCODING 109
SWIDTH 744 0
DWIDTH 13 0
BBX 15 9 1 0
BITMAP
6670
EEF0
DFF0
F760
E760
E666
EE6C
CE7C
C670
ENDCHAR
STARTCHAR n
ENCODING 110
SWIDTH 496 0
DWIDTH 9 0
BBX 10 9 1 0
BITMAP
6600
EE00
DE00
F600
E600
E640
EEC0
CF80
C700
ENDCHAR
STARTCHAR o
ENCODING 111
SWIDTH 451 0
DWIDTH 8 0
BBX 10 9 1 0
BITMAP
3800
7C00
EE00
CFC0
CF80
C600
CC00
FC00
7800
ENDCHAR
STARTCHAR p
ENCODING 112
SWIDTH 481 0
DWIDTH 9 0
BBX 13 18 -2 -9
BITMAP
1B80
1FC0
1CC0
18C0
18C0
19C8
3998
3FF0
7EE0
7800
5800
D800
D800
D800
9000
F000
F000
6000
ENDCHAR
STARTCHAR q
ENCODING 113
SWIDTH 500 0
DWIDTH 9 0
BBX 10 18 1 -8
BITMAP
0700
1E00
7E00
6600
EE00
CC00
CDC0
DDC0
FD00
7D00
1900
1900
1900
1B00
1B00
1E00
0E00
0C00
ENDCHAR
STARTCHAR r
ENCODING 114
SWIDTH 455 0
DWIDTH 8 0
BBX 10 9 1 0
BITMAP
6600
EE00
DE00
F6C0
E7C0
E780
E000
C000
C000
ENDCHAR
STARTCHAR s
ENCODING 115
SWIDTH 427 0
DWIDTH 8 0
BBX 10 9 0 0
BITMAP
1C00
1800
1800
3C00
2C40
6EC0
DFC0
BF80
1F00
ENDCHAR
STARTCHAR t
ENCODING 116
SWIDTH 393 0
DWIDTH 7 0
BBX 9 17 0 0
BITMAP
0600
0F00
1B00
1B00
1B00
3200
3600
3C00
FF00
FF00
3000
3000
3000
3080
3180
3F00
1E00
ENDCHAR
STARTCHAR u
ENCODING 117
SWIDTH 462 0
DWIDTH 8 0
BBX 10 9 1 0
BITMAP
6600
6600
CE00
CC00
CC00
DCC0
FD80
FF80
6E00
ENDCHAR
STARTCHAR v
ENCODING 118
SWIDTH 449 0
DWIDTH 8 0
BBX 10 9 1 0
BITMAP
CE00
CE00
CE00
CFC0
DF80
D800
F000
F000
6000
ENDCHAR
STARTCHAR w
ENCODING 119
SWIDTH 700 0
DWIDTH 13 0
BBX 14 9 1 0
BITMAP
C660
CEE0
CEE0
CEFC
DEFC
D7C0
F780
F700
6700
ENDCHAR
STARTCHAR x
ENCODING 120
SWIDTH 529 0
DWIDTH 10 0
BBX 12 9 0 0
BITMAP
39C0
7FC0
2EC0
0E00
4E10
6E30
CE70
FFE0
7380
ENDCHAR
STARTCHAR y
ENCODING 121
SWIDTH 479 0
DWIDTH 9 0
BBX 11 18 0 -9
BITMAP
3300
3300
6700
6600
6600
6E60
7FC0
7F80
3700
0E00
1C00
3C00
6C00
CC00
D800
D800
F000
6000
ENDCHAR
STARTCHAR z
ENCODING 122
SWIDTH 445 0
DWIDTH 8 0
BBX 9 9 1 0
BITMAP
FE00
FF00
1E00
3800
6000
E080
E380
7F00
3E00
ENDCHAR
STARTCHAR braceleft
ENCODING 123
SWIDTH 490 0
DWIDTH 9 0
BBX 9 20 1 -2
BITMAP
0780
0F80
0C00
0C00
1C00
1C00
1C00
1800
F800
F000
3800
3800
3800
3800
3800
3800
3000
3800
1F00
1E00
ENDCHAR
STARTCHAR bar
ENCODING 124
SWIDTH 326 0
DWIDTH 6 0
BBX 5 24 1 -6
BITMAP
18
38
38
30
30
30
30
30
70
70
60
60
60
60
60
60
E0
C0
C0
C0
C0
C0
C0
C0
ENDCHAR
STARTCHAR braceright
ENCODING 125
SWIDTH 490 0
DWIDTH 9 0
BBX 10 20 -1 -2
BITMAP
3C00
3E00
0700
0700
0700
0600
0600
0600
07C0
07C0
0E00
0E00
0C00
0C00
0C00
0C00
0C00
1C00
F800
F000
ENDCHAR
STARTCHAR asciitilde
ENCODING 126
SWIDTH 700 0
DWIDTH 13 0
BBX 10 5 1 3
BITMAP
1040
78C0
7EC0
E7C0
4380
ENDCHAR
STARTCHAR uni00A0
ENCODING 160
SWIDTH 265 0
DWIDTH 5 0
BBX 1 1 0 0
BITMAP
00
ENDCHAR
STARTCHAR exclamdown
ENCODING 161
SWIDTH 340 0
DWIDTH 6 0
BBX 6 17 0 -8
BITMAP
18
3C
38
18
00
30
30
30
70
60
60
60
E0
E0
E0
C0
C0
ENDCHAR
STARTCHAR cent
ENCODING 162
SWIDTH 466 0
DWIDTH 8 0
BBX 7 14 1 -3
BITMAP
08
08
18
3C
7E
D6
D4
D0
D2
F6
7C
30
20
20
ENDCHAR
STARTCHAR sterling
ENCODING 163
SWIDTH 525 0
DWIDTH 9 0
BBX 9 11 0 0
BITMAP
0F00
1F80
3980
3080
3000
7E00
FE00
3000
3000
FF80
FF80
ENDCHAR
STARTCHAR currency
ENCODING 164
SWIDTH 700 0
DWIDTH 13 0
BBX 9 9 2 1
BITMAP
DD80
7F00
6300
6300
4300
6300
6300
7F00
DD80
ENDCHAR
STARTCHAR yen
ENCODING 165
SWIDTH 497 0
DWIDTH 9 0
BBX 9 12 1 0
BITMAP
8100
C380
C300
E600
6E00
7C00
3C00
FE00
3800
FE00
3000
3000
ENDCHAR
STARTCHAR brokenbar
ENCODING 166
SWIDTH 326 0
DWIDTH 6 0
BBX 5 24 1 -6
BITMAP
18
38
30
30
30
30
30
30
70
70
00
00
00
00
60
60
E0
E0
C0
C0
C0
C0
C0
C0
ENDCHAR
STARTCHAR section
ENCODING 167
SWIDTH 607 0
DWIDTH 11 0
BBX 9 16 1 0
BITMAP
0F00
3F80
3180
3180
3180
3C00
7F00
6380
6180
7B00
1F00
4700
C300
E300
7E00
3C00
ENDCHAR
STARTCHAR dieresis
ENCODING 168
SWIDTH 600 0
DWIDTH 11 0
BBX 7 3 2 10
BITMAP
6E
EE
6C
ENDCHAR
STARTCHAR copyright
ENCODING 169
SWIDTH 647 0
DWIDTH 12 0
BBX 11 11 1 7
BITMAP
0F00
3180
6640
4960
5120
D020
5020
5960
6E40
30C0
1F00
ENDCHAR
STARTCHAR ordfeminine
ENCODING 170
SWIDTH 393 0
DWIDTH 7 0
BBX 7 7 1 8
BITMAP
18
36
6C
6C
CC
7C
7C
ENDCHAR
STARTCHAR guillemotleft
ENCODING 171
SWIDTH 615 0
DWIDTH 11 0
BBX 10 7 0 1
BITMAP
1CC0
39C0
7780
E700
7380
39C0
18C0
ENDCHAR
STARTCHAR logicalnot
ENCODING 172
SWIDTH 700 0
DWIDTH 13 0
BBX 10 6 1 0
BITMAP
7FC0
FFC0
00C0
00C0
00C0
00C0
ENDCHAR
STARTCHAR uni00AD
ENCODING 173
SWIDTH 403 0
DWIDTH 7 0
BBX 6 3 1 4
BITMAP
78
FC
40
ENDCHAR
STARTCHAR registered
ENCODING 174
SWIDTH 647 0
DWIDTH 12 0
BBX 11 11 1 7
BITMAP
0F00
3180
6E40
4960
4B20
CE20
4A20
4A60
6B40
30C0
1F00
ENDCHAR
STARTCHAR macron
ENCODING 175
SWIDTH 600 0
DWIDTH 11 0
BBX 5 2 3 10
BITMAP
F8
F8
ENDCHAR
STARTCHAR degree
ENCODING 176
SWIDTH 385 0
DWIDTH 7 0
BBX 5 6 2 10
BITMAP
70
F8
D8
D8
F8
70
ENDCHAR
STARTCHAR plusminus
ENCODING 177
SWIDTH 700 0
DWIDTH 13 0
BBX 9 11 2 0
BITMAP
0C00
0C00
0C00
7F80
FF80
1800
1800
1800
0000
FF00
FF00
ENDCHAR
STARTCHAR uni00B2
ENCODING 178
SWIDTH 450 0
DWIDTH 8 0
BBX 7 9 1 6
BITMAP
3C
7E
46
46
0C
1C
38
FE
FE
ENDCHAR
STARTCHAR uni00B3
ENCODING 179
SWIDTH 450 0
DWIDTH 8 0
BBX 7 9 1 6
BITMAP
3C
7E
46
0E
18
0E
C6
FE
7C
ENDCHAR
STARTCHAR acute
ENCODING 180
SWIDTH 600 0
DWIDTH 11 0
BBX 4 6 5 10
BITMAP
30
70
60
E0
C0
80
ENDCHAR
STARTCHAR uni00B5
ENCODING 181
SWIDTH 462 0
DWIDTH 8 0
BBX 11 14 0 -5
BITMAP
3300
3300
6700
6600
6600
6E60
7EC0
7FC0
7700
6000
6000
6000
6000
E000
ENDCHAR
STARTCHAR paragraph
ENCODING 182
SWIDTH 739 0
DWIDTH 13 0
BBX 11 16 2 0
BITMAP
3FC0
7FE0
FEE0
FCC0
FCC0
FCC0
7CC0
1DC0
1DC0
1980
1980
1980
1980
3B80
3B80
3B80
ENDCHAR
STARTCHAR periodcentered
ENCODING 183
SWIDTH 257 0
DWIDTH 5 0
BBX 3 4 1 3
BITMAP
E0
E0
E0
E0
ENDCHAR
STARTCHAR cedilla
ENCODING 184
SWIDTH 600 0
DWIDTH 11 0
BBX 5 6 1 -5
BITMAP
70
78
18
18
F8
F0
ENDCHAR
STARTCHAR uni00B9
ENCODING 185
SWIDTH 450 0
DWIDTH 8 0
BBX 5 9 2 6
BITMAP
38
F8
B8
30
30
30
30
30
30
ENDCHAR
STARTCHAR ordmasculine
ENCODING 186
SWIDTH 408 0
DWIDTH 7 0
BBX 7 7 1 8
BITMAP
3C
7C
66
C6
66
7C
38
ENDCHAR
STARTCHAR guillemotright
ENCODING 187
SWIDTH 615 0
DWIDTH 11 0
BBX 10 7 1 1
BITMAP
C600
E700
7380
39C0
7B80
E700
C600
ENDCHAR
STARTCHAR onequarter
ENCODING 188
SWIDTH 955 0
DWIDTH 17 0
BBX 15 16 2 -1
BITMAP
3800
F840
B8E0
30C0
3180
3180
3300
3730
3630
0E6C
0C6C
18CC
18FE
00FE
0018
0018
ENDCHAR
STARTCHAR onehalf
ENCODING 189
SWIDTH 1024 0
DWIDTH 18 0
BBX 16 16 2 -1
BITMAP
3800
F840
B8E0
30C0
3180
3180
3300
371C
367E
0E66
0C66
1806
180C
0038
007F
007F
ENDCHAR
STARTCHAR threequarters
ENCODING 190
SWIDTH 1035 0
DWIDTH 19 0
BBX 17 16 1 -1
BITMAP
3C0000
7E1800
461800
0E3000
183000
0E6000
C6E000
FEC600
7DCC00
018F00
031B00
031B00
023F80
003F80
000300
000200
ENDCHAR
STARTCHAR questiondown
ENCODING 191
SWIDTH 476 0
DWIDTH 9 0
BBX 8 17 -1 -8
BITMAP
03
07
07
07
00
06
06
0E
0C
38
30
70
E3
E3
E7
7E
3C
ENDCHAR
STARTCHAR Agrave
ENCODING 192
SWIDTH 786 0
DWIDTH 14 0
BBX 15 22 1 0
BITMAP
0200
0700
0780
01C0
00C0
0000
01FC
07FC
1F08
3C30
3830
7070
6070
E060
E060
E0E0
E0E0
E0E0
E1E2
73E6
7E7C
3C38
ENDCHAR
STARTCHAR Aacute
ENCODING 193
SWIDTH 786 0
DWIDTH 14 0
BBX 15 22 1 0
BITMAP
0004
000C
001C
0038
0060
0000
01FC
07FC
1F08
3C30
3830
7070
6070
E060
E060
E0E0
E0E0
E0E0
E1E2
73E6
7E7C
3C38
ENDCHAR
STARTCHAR Acircumflex
ENCODING 194
SWIDTH 786 0
DWIDTH 14 0
BBX 15 22 1 0
BITMAP
0070
00F0
00F0
0198
0198
0000
01FC
07FC
1F08
3C30
3830
7070
6070
E060
E060
E0E0
E0E0
E0E0
E1E2
73E6
7E7C
3C38
ENDCHAR
STARTCHAR Atilde
ENCODING 195
SWIDTH 786 0
DWIDTH 14 0
BBX 15 21 1 0
BITMAP
01C4
01EC
037C
0238
0000
01FC
07FC
1F08
3C30
3830
7070
6070
E060
E060
E0E0
E0E0
E0E0
E1E2
73E6
7E7C
3C38
ENDCHAR
STARTCHAR Adieresis
ENCODING 196
SWIDTH 786 0
DWIDTH 14 0
BBX 15 20 1 0
BITMAP
0198
01B8
0198
0000
01FC
07FC
1F08
3C30
3830
7070
6070
E060
E060
E0E0
E0E0
E0E0
E1E2
73E6
7E7C
3C38
ENDCHAR
STARTCHAR Aring
ENCODING 197
SWIDTH 786 0
DWIDTH 14 0
BBX 15 23 1 0
BITMAP
0070
00F0
0098
0090
00F0
0060
0000
01FC
07FC
1F08
3C30
3830
7070
6070
E060
E060
E0E0
E0E0
E0E0
E1E2
73E6
7E7C
3C38
ENDCHAR
STARTCHAR AE
ENCODING 198
SWIDTH 1015 0
DWIDTH 18 0
BBX 20 16 1 0
BITMAP
03DFC0
0FDFC0
1F3800
3C3000
383000
707000
607000
E07F80
E07F80
E0E000
E0E000
E0E000
E1F020
73F070
7F3FE0
3E1F80
ENDCHAR
STARTCHAR Ccedilla
ENCODING 199
SWIDTH 686 0
DWIDTH 12 0
BBX 14 21 1 -5
BITMAP
07C0
1FE0
3C60
3870
7070
6060
E000
E000
E000
E000
E000
E000
7000
783C
3FF8
0FE0
0F00
0300
0300
1E00
1C00
ENDCHAR
STARTCHAR Egrave
ENCODING 200
SWIDTH 686 0
DWIDTH 12 0
BBX 14 22 1 0
BITMAP
1000
1800
1C00
0F00
0300
0000
0FC0
1FE0
3870
7070
7070
3820
1F00
3F00
7000
E000
C000
C000
E008
F03C
7FF8
1FE0
ENDCHAR
STARTCHAR Eacute
ENCODING 201
SWIDTH 686 0
DWIDTH 12 0
BBX 14 22 1 0
BITMAP
0010
0030
00F0
01C0
0180
0000
0FC0
1FE0
3870
7070
7070
3820
1F00
3F00
7000
E000
C000
C000
E008
F03C
7FF8
1FE0
ENDCHAR
STARTCHAR Ecircumflex
ENCODING 202
SWIDTH 686 0
DWIDTH 12 0
BBX 14 22 1 0
BITMAP
0180
03C0
07C0
06E0
0C60
0000
0FC0
1FE0
3870
7070
7070
3820
1F00
3F00
7000
E000
C000
C000
E008
F03C
7FF8
1FE0
ENDCHAR
STARTCHAR Edieresis
ENCODING 203
SWIDTH 686 0
DWIDTH 12 0
BBX 14 20 1 0
BITMAP
0660
0EE0
06E0
0000
0FC0
1FE0
3870
7070
7070
3820
1F00
3F00
7000
E000
C000
C000
E008
F03C
7FF8
1FE0
ENDCHAR
STARTCHAR Igrave
ENCODING 204
SWIDTH 495 0
DWIDTH 9 0
BBX 10 22 0 0
BITMAP
2000
7000
3800
1C00
0600
0000
3FC0
3FC0
0E00
0E00
0E00
0E00
0C00
0C00
0C00
1C00
1C00
1C00
1800
1800
FF00
FF00
ENDCHAR
STARTCHAR Iacute
ENCODING 205
SWIDTH 495 0
DWIDTH 9 0
BBX 11 22 0 0
BITMAP
0040
00E0
01E0
0380
0200
0000
3FC0
3FC0
0E00
0E00
0E00
0E00
0C00
0C00
0C00
1C00
1C00
1C00
1800
1800
FF00
FF00
ENDCHAR
STARTCHAR Icircumflex
ENCODING 206
SWIDTH 495 0
DWIDTH 9 0
BBX 10 22 0 0
BITMAP
0700
0700
0D80
1D80
1980
0000
3FC0
3FC0
0E00
0E00
0E00
0E00
0C00
0C00
0C00
1C00
1C00
1C00
1800
1800
FF00
FF00
ENDCHAR
STARTCHAR Idieresis
ENCODING 207
SWIDTH 495 0
DWIDTH 9 0
BBX 10 20 0 0
BITMAP
0D80
1DC0
1D80
0000
3FC0
3FC0
0E00
0E00
0E00
0E00
0C00
0C00
0C00
1C00
1C00
1C00
1800
1800
FF00
FF00
ENDCHAR
STARTCHAR Eth
ENCODING 208
SWIDTH 821 0
DWIDTH 15 0
BBX 14 16 0 0
BITMAP
07E0
0FF0
0C38
0C1C
1C1C
1C0C
7F8C
FF8C
380C
381C
381C
3018
3038
30F0
3FE0
3F80
ENDCHAR
STARTCHAR Ntilde
ENCODING 209
SWIDTH 884 0
DWIDTH 16 0
BBX 18 21 0 0
BITMAP
00C400
01EC00
037C00
011800
000000
1C3C00
7E7E00
6ECE00
CF8E00
8F0E00
0F0E00
0E0C00
0E0C00
0E1C00
0C1C00
1C1C00
1C1800
1C1840
1C1CC0
181F80
180F00
ENDCHAR
STARTCHAR Ograve
ENCODING 210
SWIDTH 816 0
DWIDTH 15 0
BBX 13 22 1 0
BITMAP
0800
1C00
1E00
0700
0300
0000
07C0
1FF0
3C70
3838
7038
6018
E018
E018
E018
E038
E038
E030
7070
70E0
3FC0
1F00
ENDCHAR
STARTCHAR Oacute
ENCODING 211
SWIDTH 816 0
DWIDTH 15 0
BBX 13 22 1 0
BITMAP
0010
0038
0070
00E0
0180
0000
07C0
1FF0
3C70
3838
7038
6018
E018
E018
E018
E038
E038
E030
7070
70E0
3FC0
1F00
ENDCHAR
STARTCHAR Ocircumflex
ENCODING 212
SWIDTH 816 0
DWIDTH 15 0
BBX 13 22 1 0
BITMAP
01C0
03C0
03C0
0660
0660
0000
07C0
1FF0
3C70
3838
7038
6018
E018
E018
E018
E038
E038
E030
7070
70E0
3FC0
1F00
ENDCHAR
STARTCHAR Otilde
ENCODING 213
SWIDTH 816 0
DWIDTH 15 0
BBX 13 21 1 0
BITMAP
0710
07B0
0DF0
08E0
0000
07C0
1FF0
3C70
3838
7038
6018
E018
E018
E018
E038
E038
E030
7070
70E0
3FC0
1F00
ENDCHAR
STARTCHAR Odieresis
ENCODING 214
SWIDTH 816 0
DWIDTH 15 0
BBX 13 20 1 0
BITMAP
0660
0760
0660
0000
07C0
1FF0
3C70
3838
7038
6018
E018
E018
E018
E038
E038
E030
7070
70E0
3FC0
1F00
ENDCHAR
STARTCHAR multiply
ENCODING 215
SWIDTH 700 0
DWIDTH 13 0
BBX 9 9 2 1
BITMAP
4100
6380
7700
3E00
1C00
3C00
7E00
E700
C300
ENDCHAR
STARTCHAR Oslash
ENCODING 216
SWIDTH 816 0
DWIDTH 15 0
BBX 13 20 1 -2
BITMAP
00C0
00C0
07C0
1FF0
3DF0
31B8
71B8
6318
E318
E318
E318
E638
E638
E630
7670
7CE0
3FC0
1F00
0C00
1800
ENDCHAR
STARTCHAR Ugrave
ENCODING 217
SWIDTH 890 0
DWIDTH 16 0
BBX 18 22 0 0
BITMAP
040000
060000
078000
01C000
00C000
000000
1C0600
7E0E00
660E00
C60E00
8E0E00
0E0E00
0E0C00
0C1C00
0C1C00
1C1C00
1C3C00
1C3C00
1C7C40
1DDDC0
1F9F80
0F0F00
ENDCHAR
STARTCHAR Uacute
ENCODING 218
SWIDTH 890 0
DWIDTH 16 0
BBX 18 22 0 0
BITMAP
000400
000C00
001C00
003800
006000
000000
1C0600
7E0E00
660E00
C60E00
8E0E00
0E0E00
0E0C00
0C1C00
0C1C00
1C1C00
1C3C00
1C3C00
1C7C40
1DDDC0
1F9F80
0F0F00
ENDCHAR
STARTCHAR Ucircumflex
ENCODING 219
SWIDTH 890 0
DWIDTH 16 0
BBX 18 22 0 0
BITMAP
006000
00F000
00F000
019800
019800
000000
1C0600
7E0E00
660E00
C60E00
8E0E00
0E0E00
0E0C00
0C1C00
0C1C00
1C1C00
1C3C00
1C3C00
1C7C40
1DDDC0
1F9F80
0F0F00
ENDCHAR
STARTCHAR Udieresis
ENCODING 220
SWIDTH 890 0
DWIDTH 16 0
BBX 18 20 0 0
BITMAP
019800
01B800
019800
000000
1C0600
7E0E00
660E00
C60E00
8E0E00
0E0E00
0E0C00
0C1C00
0C1C00
1C1C00
1C3C00
1C3C00
1C7C40
1DDDC0
1F9F80
0F0F00
ENDCHAR
STARTCHAR Yacute
ENCODING 221
SWIDTH 851 0
DWIDTH 15 0
BBX 17 28 0 -6
BITMAP
000400
000E00
001C00
003800
006000
000000
1C0600
7E0E00
660E00
C60E00
8E0E00
0E0E00
0E0C00
0C1C00
0C1C00
1C3C00
1C2C00
0C7C00
0FDF80
07BF80
00FC00
01D800
071800
063800
0E3000
0E7000
07E000
07C000
ENDCHAR
STARTCHAR Thorn
ENCODING 222
SWIDTH 776 0
DWIDTH 14 0
BBX 13 20 1 -2
BITMAP
0300
0300
0700
0700
07E0
1FF0
3E78
7638
6638
C638
CE38
CE70
DFE0
DF80
CC00
CC00
DC00
DC00
7800
3800
ENDCHAR
STARTCHAR germandbls
ENCODING 223
SWIDTH 596 0
DWIDTH 11 0
BBX 12 19 1 -4
BITMAP
0F00
3F80
3180
6180
6180
6700
EE00
CC00
CE00
CFC0
CFF0
D980
D980
DF80
CF00
C000
C000
C000
C000
ENDCHAR
STARTCHAR agrave
ENCODING 224
SWIDTH 470 0
DWIDTH 8 0
BBX 10 16 1 0
BITMAP
2000
7000
3000
3800
1800
0800
0000
1800
7E00
6600
EE00
CC00
CCC0
DDC0
FF80
7700
ENDCHAR
STARTCHAR aacute
ENCODING 225
SWIDTH 470 0
DWIDTH 8 0
BBX 10 16 1 0
BITMAP
0300
0700
0600
0600
0C00
0800
0000
1800
7E00
6600
EE00
CC00
CCC0
DDC0
FF80
7700
ENDCHAR
STARTCHAR acircumflex
ENCODING 226
SWIDTH 470 0
DWIDTH 8 0
BBX 10 17 1 0
BITMAP
0400
0E00
1E00
1E00
3600
3300
6200
0000
1800
7E00
6600
EE00
CC00
CCC0
DDC0
FF80
7700
ENDCHAR
STARTCHAR atilde
ENCODING 227
SWIDTH 470 0
DWIDTH 8 0
BBX 10 14 1 0
BITMAP
3100
7D80
6F00
4600
0000
1800
7E00
6600
EE00
CC00
CCC0
DDC0
FF80
7700
ENDCHAR
STARTCHAR adieresis
ENCODING 228
SWIDTH 470 0
DWIDTH 8 0
BBX 10 13 1 0
BITMAP
3300
3700
3700
0000
1800
7E00
6600
EE00
CC00
CCC0
DDC0
FF80
7700
ENDCHAR
STARTCHAR aring
ENCODING 229
SWIDTH 470 0
DWIDTH 8 0
BBX 10 16 1 0
BITMAP
1C00
1E00
3200
3200
1E00
1C00
0000
1800
7E00
6600
EE00
CC00
CCC0
DDC0
FF80
7700
ENDCHAR
STARTCHAR ae
ENCODING 230
SWIDTH 653 0
DWIDTH 12 0
BBX 13 9 1 0
BITMAP
1DC0
7FE0
E660
CE40
CDC0
CF08
CE38
FFF0
73C0
ENDCHAR
STARTCHAR ccedilla
ENCODING 231
SWIDTH 368 0
DWIDTH 7 0
BBX 8 14 1 -5
BITMAP
38
7C
EC
CC
C8
C1
C3
C6
7C
78
18
18
F8
F0
ENDCHAR
STARTCHAR egrave
ENCODING 232
SWIDTH 393 0
DWIDTH 7 0
BBX 8 16 1 0
BITMAP
60
60
60
30
30
10
00
38
7C
CC
CC
F8
F1
C7
FE
7C
ENDCHAR
STARTCHAR eacute
ENCODING 233
SWIDTH 393 0
DWIDTH 7 0
BBX 8 16 1 0
BITMAP
06
06
0E
0C
18
18
00
38
7C
CC
CC
F8
F1
C7
FE
7C
ENDCHAR
STARTCHAR ecircumflex
ENCODING 234
SWIDTH 393 0
DWIDTH 7 0
BBX 8 17 1 0
BITMAP
08
1C
1C
34
36
66
66
00
38
7C
CC
CC
F8
F1
C7
FE
7C
ENDCHAR
STARTCHAR edieresis
ENCODING 235
SWIDTH 393 0
DWIDTH 7 0
BBX 8 13 1 0
BITMAP
66
66
66
00
38
7C
CC
CC
F8
F1
C7
FE
7C
ENDCHAR
STARTCHAR igrave
ENCODING 236
SWIDTH 246 0
DWIDTH 4 0
BBX 7 16 0 0
BITMAP
C0
C0
E0
60
20
30
00
30
70
70
60
60
66
6E
7C
38
ENDCHAR
STARTCHAR iacute
ENCODING 237
SWIDTH 246 0
DWIDTH 4 0
BBX 6 16 1 0
BITMAP
18
18
38
30
20
60
00
60
E0
E0
C0
C0
CC
DC
F8
70
ENDCHAR
STARTCHAR icircumflex
ENCODING 238
SWIDTH 246 0
DWIDTH 4 0
BBX 7 17 0 0
BITMAP
10
38
38
6C
6C
CC
CC
00
30
70
70
60
60
66
6E
7C
38
ENDCHAR
STARTCHAR idieresis
ENCODING 239
SWIDTH 246 0
DWIDTH 4 0
BBX 7 13 0 0
BITMAP
CC
EC
CC
00
30
70
70
60
60
66
6E
7C
38
ENDCHAR
STARTCHAR eth
ENCODING 240
SWIDTH 451 0
DWIDTH 8 0
BBX 8 18 1 0
BITMAP
30
39
1F
1E
3C
6E
06
06
06
3E
7E
E6
C6
C6
CE
CC
FC
78
ENDCHAR
STARTCHAR ntilde
ENCODING 241
SWIDTH 496 0
DWIDTH 9 0
BBX 10 14 1 0
BITMAP
3080
3D80
6F00
4700
0000
6600
EE00
DE00
F600
E600
E640
EEC0
CF80
C700
ENDCHAR
STARTCHAR ograve
ENCODING 242
SWIDTH 451 0
DWIDTH 8 0
BBX 10 16 1 0
BITMAP
4000
E000
6000
3000
3000
1000
0000
3800
7C00
EE00
CFC0
CF80
C600
CC00
FC00
7800
ENDCHAR
STARTCHAR oacute
ENCODING 243
SWIDTH 451 0
DWIDTH 8 0
BBX 10 16 1 0
BITMAP
0600
0600
0E00
0C00
1800
1000
0000
3800
7C00
EE00
CFC0
CF80
C600
CC00
FC00
7800
ENDCHAR
STARTCHAR ocircumflex
ENCODING 244
SWIDTH 451 0
DWIDTH 8 0
BBX 10 17 1 0
BITMAP
0800
1C00
3C00
3C00
6400
6600
4600
0000
3800
7C00
EE00
CFC0
CF80
C600
CC00
FC00
7800
ENDCHAR
STARTCHAR otilde
ENCODING 245
SWIDTH 451 0
DWIDTH 8 0
BBX 10 14 1 0
BITMAP
7100
7B00
DE00
8E00
0000
3800
7C00
EE00
CFC0
CF80
C600
CC00
FC00
7800
ENDCHAR
STARTCHAR odieresis
ENCODING 246
SWIDTH 451 0
DWIDTH 8 0
BBX 10 13 1 0
BITMAP
6600
6E00
6600
0000
3800
7C00
EE00
CFC0
CF80
C600
CC00
FC00
7800
ENDCHAR
STARTCHAR divide
ENCODING 247
SWIDTH 700 0
DWIDTH 13 0
BBX 10 11 1 0
BITMAP
0600
0E00
0600
0000
0000
7FC0
FFC0
0000
0C00
1C00
0C00
ENDCHAR
STARTCHAR oslash
ENCODING 248
SWIDTH 459 0
DWIDTH 8 0
BBX 10 14 1 -2
BITMAP
0800
0800
1800
3800
7C00
DE00
D7C0
D7C0
D600
FE00
FC00
7800
2000
2000
ENDCHAR
STARTCHAR ugrave
ENCODING 249
SWIDTH 462 0
DWIDTH 8 0
BBX 10 16 1 0
BITMAP
6000
6000
3000
3000
1800
0800
0000
6600
6600
CE00
CC00
CC00
DCC0
FD80
FF80
6E00
ENDCHAR
STARTCHAR uacute
ENCODING 250
SWIDTH 462 0
DWIDTH 8 0
BBX 10 16 1 0
BITMAP
0200
0700
0600
0C00
0C00
0800
0000
6600
6600
CE00
CC00
CC00
DCC0
FD80
FF80
6E00
ENDCHAR
STARTCHAR ucircumflex
ENCODING 251
SWIDTH 462 0
DWIDTH 8 0
BBX 10 17 1 0
BITMAP
0400
0C00
1E00
1600
3600
7600
6600
0000
6600
6600
CE00
CC00
CC00
DCC0
FD80
FF80
6E00
ENDCHAR
STARTCHAR udieresis
ENCODING 252
SWIDTH 462 0
DWIDTH 8 0
BBX 10 13 1 0
BITMAP
3600
7700
7600
0000
6600
6600
CE00
CC00
CC00
DCC0
FD80
FF80
6E00
ENDCHAR
STARTCHAR yacute
ENCODING 253
SWIDTH 479 0
DWIDTH 9 0
BBX 11 25 0 -9
BITMAP
0100
0380
0300
0600
0600
0400
0000
3300
3300
6700
6600
6600
6E60
7FC0
7F80
3700
0E00
1C00
3C00
6C00
CC00
D800
D800
F000
6000
ENDCHAR
STARTCHAR thorn
ENCODING 254
SWIDTH 508 0
DWIDTH 9 0
BBX 11 21 0 -6
BITMAP
1800
3800
3000
3000
3000
3000
7700
6F00
7B00
7300
7320
6320
6660
7FC0
7B80
6000
6000
E000
E000
E000
E000
ENDCHAR
STARTCHAR ydieresis
ENCODING 255
SWIDTH 479 0
DWIDTH 9 0
BBX 11 22 0 -9
BITMAP
1B00
3B80
3B00
0000
3300
3300
6700
6600
6600
6E60
7FC0
7F80
3700
0E00
1C00
3C00
6C00
CC00
D800
D800
F000
6000
ENDCHAR
STARTCHAR Amacron
ENCODING 256
SWIDTH 786 0
DWIDTH 14 0
BBX 15 19 1 0
BITMAP
01F8
01F8
0000
01FC
07FC
1F08
3C30
3830
7070
6070
E060
E060
E0E0
E0E0
E0E0
E1E2
73E6
7E7C
3C38
ENDCHAR
STARTCHAR amacron
ENCODING 257
SWIDTH 470 0
DWIDTH 8 0
BBX 10 12 1 0
BITMAP
3E00
3E00
0000
1800
7E00
6600
EE00
CC00
CCC0
DDC0
FF80
7700
ENDCHAR
STARTCHAR Abreve
ENCODING 258
SWIDTH 786 0
DWIDTH 14 0
BBX 15 21 1 0
BITMAP
0108
039C
01F8
00F0
0000
01FC
07FC
1F08
3C30
3830
7070
6070
E060
E060
E0E0
E0E0
E0E0
E1E2
73E6
7E7C
3C38
ENDCHAR
STARTCHAR abreve
ENCODING 259
SWIDTH 470 0
DWIDTH 8 0
BBX 10 15 1 0
BITMAP
2100
6180
7300
3F00
1E00
0000
1800
7E00
6600
EE00
CC00
CCC0
DDC0
FF80
7700
ENDCHAR
STARTCHAR Aogonek
ENCODING 260
SWIDTH 786 0
DWIDTH 14 0
BBX 15 21 1 -5
BITMAP
01FC
07FC
1E08
3C30
3830
7070
6070
E060
E060
E0E0
E0E0
E0E0
E1E2
73E6
7F7E
3C38
0030
0060
0060
007C
0038
ENDCHAR
STARTCHAR aogonek
ENCODING 261
SWIDTH 470 0
DWIDTH 8 0
BBX 10 14 1 -5
BITMAP
1800
7E00
6600
EE00
CC00
CCC0
DDC0
FF80
7700
0C00
0800
1800
0F00
0700
ENDCHAR
STARTCHAR Cacute
ENCODING 262
SWIDTH 686 0
DWIDTH 12 0
BBX 14 22 1 0
BITMAP
0010
0030
0070
00E0
0180
0000
07C0
1FE0
3C60
3870
7070
6060
E000
E000
E000
E000
E000
E000
7000
783C
3FF8
0FE0
ENDCHAR
STARTCHAR cacute
ENCODING 263
SWIDTH 368 0
DWIDTH 7 0
BBX 8 16 1 0
BITMAP
06
06
0E
0C
18
10
00
38
7C
EC
C8
C0
C3
C7
FE
78
ENDCHAR
STARTCHAR Ccircumflex
ENCODING 264
SWIDTH 686 0
DWIDTH 12 0
BBX 14 22 1 0
BITMAP
01C0
03C0
03C0
0660
0660
0000
07C0
1FE0
3C60
3870
7070
6060
E000
E000
E000
E000
E000
E000
7000
783C
3FF8
0FE0
ENDCHAR
STARTCHAR ccircumflex
ENCODING 265
SWIDTH 368 0
DWIDTH 7 0
BBX 8 17 1 0
BITMAP
08
1C
3C
3C
64
66
46
00
38
7C
EC
C8
C0
C3
C7
FE
78
ENDCHAR
STARTCHAR Cdotaccent
ENCODING 266
SWIDTH 686 0
DWIDTH 12 0
BBX 14 20 1 0
BITMAP
0180
03C0
0180
0000
07C0
1FE0
3C60
3870
7070
6060
E000
E000
E000
E000
E000
E000
7000
783C
3FF8
0FE0
ENDCHAR
STARTCHAR cdotaccent
ENCODING 267
SWIDTH 368 0
DWIDTH 7 0
BBX 8 13 1 0
BITMAP
18
38
18
00
38
7C
EC
C8
C0
C3
C7
FE
78
ENDCHAR
STARTCHAR Ccaron
ENCODING 268
SWIDTH 686 0
DWIDTH 12 0
BBX 14 22 1 0
BITMAP
0620
0660
03C0
03C0
0180
0000
07C0
1FE0
3C60
3870
7070
6060
E000
E000
E000
E000
E000
E000
7000
783C
3FF8
0FE0
ENDCHAR
STARTCHAR ccaron
ENCODING 269
SWIDTH 368 0
DWIDTH 7 0
BBX 8 17 1 0
BITMAP
22
67
36
36
3C
38
18
00
38
7C
EC
C8
C0
C3
C7
FE
78
ENDCHAR
STARTCHAR Dcaron
ENCODING 270
SWIDTH 836 0
DWIDTH 15 0
BBX 14 22 1 0
BITMAP
0460
06C0
06C0
0380
0300
0000
1FC0
7FF0
F070
8038
1818
381C
381C
381C
301C
3018
7038
7038
7070
71E0
7FC0
7F00
ENDCHAR
STARTCHAR dcaron
ENCODING 271
SWIDTH 470 0
DWIDTH 8 0
BBX 11 16 1 0
BITMAP
0360
0360
0360
0740
0700
0600
0600
1E00
7E00
6600
EE00
CC00
CCC0
DDC0
FF80
7700
ENDCHAR
STARTCHAR Dcroat
ENCODING 272
SWIDTH 821 0
DWIDTH 15 0
BBX 14 16 0 0
BITMAP
07E0
0FF0
0C38
0C1C
1C1C
1C0C
7F8C
FF8C
380C
381C
381C
3018
3038
30F0
3FE0
3F80
ENDCHAR
STARTCHAR dcroat
ENCODING 273
SWIDTH 470 0
DWIDTH 8 0
BBX 10 16 1 0
BITMAP
0300
0300
0300
3F80
3F80
0600
0600
1E00
7E00
6600
EE00
CC00
CCC0
DDC0
FF80
7700
ENDCHAR
STARTCHAR Emacron
ENCODING 274
SWIDTH 686 0
DWIDTH 12 0
BBX 14 19 1 0
BITMAP
07C0
07C0
0000
0FC0
1FE0
3870
7070
7070
3820
1F00
3F00
7000
E000
C000
C000
E008
F03C
7FF8
1FE0
ENDCHAR
STARTCHAR emacron
ENCODING 275
SWIDTH 393 0
DWIDTH 7 0
BBX 8 12 1 0
BITMAP
7E
7E
00
38
7C
CC
CC
F8
F1
C7
FE
7C
ENDCHAR
STARTCHAR Ebreve
ENCODING 276
SWIDTH 686 0
DWIDTH 12 0
BBX 14 21 1 0
BITMAP
0420
0C70
0FE0
07C0
0000
0FC0
1FE0
3870
7070
7070
3820
1F00
3F00
7000
E000
C000
C000
E008
F03C
7FF8
1FE0
ENDCHAR
STARTCHAR ebreve
ENCODING 277
SWIDTH 393 0
DWIDTH 7 0
BBX 8 15 1 0
BITMAP
42
C3
E7
7E
3C
00
38
7C
CC
CC
F8
F1
C7
FE
7C
ENDCHAR
STARTCHAR Edotaccent
ENCODING 278
SWIDTH 686 0
DWIDTH 12 0
BBX 14 20 1 0
BITMAP
0380
0380
0380
0000
0FC0
1FE0
3870
7070
7070
3820
1F00
3F00
7000
E000
C000
C000
E008
F03C
7FF8
1FE0
ENDCHAR
STARTCHAR edotaccent
ENCODING 279
SWIDTH 393 0
DWIDTH 7 0
BBX 8 13 1 0
BITMAP
18
3C
18
00
38
7C
CC
CC
F8
F1
C7
FE
7C
ENDCHAR
STARTCHAR Eogonek
ENCODING 280
SWIDTH 686 0
DWIDTH 12 0
BBX 14 21 1 -5
BITMAP
0FC0
1FE0
3870
7070
7070
3820
1F00
3F00
7000
E000
C000
C000
E008
F03C
7FF8
1FE0
0600
0600
0600
07C0
0380
ENDCHAR
STARTCHAR eogonek
ENCODING 281
SWIDTH 393 0
DWIDTH 7 0
BBX 8 14 1 -5
BITMAP
38
7C
CC
CC
D8
F1
C3
FF
7C
30
30
30
3E
1C
ENDCHAR
STARTCHAR Ecaron
ENCODING 282
SWIDTH 686 0
DWIDTH 12 0
BBX 14 22 1 0
BITMAP
0660
0660
02C0
0380
0180
0000
0FC0
1FE0
3870
7070
7070
3820
1F00
3F00
7000
E000
C000
C000
E008
F03C
7FF8
1FE0
ENDCHAR
STARTCHAR ecaron
ENCODING 283
SWIDTH 393 0
DWIDTH 7 0
BBX 8 17 1 0
BITMAP
22
33
36
36
3C
3C
18
00
38
7C
CC
CC
F8
F1
C7
FE
7C
ENDCHAR
STARTCHAR Gcircumflex
ENCODING 284
SWIDTH 811 0
DWIDTH 15 0
BBX 16 31 1 -9
BITMAP
01C0
01C0
0360
0660
0660
0000
07C0
1FE0
3C70
3830
7030
6030
E000
E000
E000
E1F8
E1F8
E030
7033
7836
3FFC
0FF8
0070
00E0
01E0
0360
0660
06C0
06C0
0780
0300
ENDCHAR
STARTCHAR gcircumflex
ENCODING 285
SWIDTH 479 0
DWIDTH 9 0
BBX 11 26 0 -9
BITMAP
0200
0700
0F00
0F00
1B00
1980
3100
0000
0C00
3F00
3300
7700
6600
6660
6FC0
7F80
3700
0E00
1C00
3C00
6C00
4C00
D800
D800
F000
6000
ENDCHAR
STARTCHAR Gbreve
ENCODING 286
SWIDTH 811 0
DWIDTH 15 0
BBX 16 30 1 -9
BITMAP
0410
0630
07F0
03C0
0000
07C0
1FE0
3C70
3830
7030
6030
E000
E000
E000
E1F8
E1F8
E030
7033
7836
3FFC
0FF8
0070
00E0
01E0
0360
0660
06C0
06C0
0780
0300
ENDCHAR
STARTCHAR gbreve
ENCODING 287
SWIDTH 479 0
DWIDTH 9 0
BBX 11 24 0 -9
BITMAP
1080
30C0
3980
1F80
0F00
0000
0C00
3F00
3300
7700
6600
6660
6FC0
7F80
3700
0E00
1C00
3C00
6C00
4C00
D800
D800
F000
6000
ENDCHAR
STARTCHAR Gdotaccent
ENCODING 288
SWIDTH 811 0
DWIDTH 15 0
BBX 16 29 1 -9
BITMAP
01C0
01C0
0180
0000
07C0
1FE0
3C70
3830
7030
6030
E000
E000
E000
E1F8
E1F8
E030
7033
7836
3FFC
0FF8
0070
00E0
01E0
0360
0660
06C0
06C0
0780
0300
ENDCHAR
STARTCHAR gdotaccent
ENCODING 289
SWIDTH 479 0
DWIDTH 9 0
BBX 11 22 0 -9
BITMAP
0600
0E00
0E00
0000
0C00
3F00
3300
7700
6600
6660
6FC0
7F80
3700
0E00
1C00
3C00
6C00
4C00
D800
D800
F000
6000
ENDCHAR
STARTCHAR uni0122
ENCODING 290
SWIDTH 811 0
DWIDTH 15 0
BBX 16 25 1 -9
BITMAP
07C0
1FE0
3C70
3830
7030
6030
E000
E000
E000
E1F8
E1F8
E030
7033
7836
3FFC
0FF8
0070
18E0
19E0
1B60
1660
06C0
06C0
0780
0300
ENDCHAR
STARTCHAR uni0123
ENCODING 291
SWIDTH 479 0
DWIDTH 9 0
BBX 11 24 0 -9
BITMAP
0600
0600
0600
0600
0400
0000
0C00
3F00
3300
7700
6600
6660
6FC0
7F80
3700
0E00
1C00
3C00
6C00
4C00
D800
D800
F000
6000
ENDCHAR
STARTCHAR Hcircumflex
ENCODING 292
SWIDTH 873 0
DWIDTH 16 0
BBX 18 22 0 0
BITMAP
006000
00F000
01F000
019800
019800
000300
1C0780
7E0C80
EE0C80
C61D80
861980
0E1900
0E1F00
0E3C00
3FF800
3FF800
0C3800
1C3800
1C3840
1838C0
181F80
180F00
ENDCHAR
STARTCHAR hcircumflex
ENCODING 293
SWIDTH 502 0
DWIDTH 9 0
BBX 10 23 1 0
BITMAP
0E00
0E00
1B00
3300
3300
0C00
1E00
3600
3600
6600
6400
6C00
6800
F800
F600
EE00
DE00
D600
F600
E640
EEC0
E780
C700
ENDCHAR
STARTCHAR Hbar
ENCODING 294
SWIDTH 856 0
DWIDTH 15 0
BBX 15 16 1 0
BITMAP
1818
1818
7FFE
7FFE
3838
3838
3038
FFFC
FFFC
7030
7030
7070
7070
6070
6070
6060
ENDCHAR
STARTCHAR hbar
ENCODING 295
SWIDTH 502 0
DWIDTH 9 0
BBX 10 16 1 0
BITMAP
3000
3000
3000
FE00
FE00
6000
6000
6600
EE00
DE00
D600
F600
E640
EEC0
E780
C700
ENDCHAR
STARTCHAR Itilde
ENCODING 296
SWIDTH 495 0
DWIDTH 9 0
BBX 10 21 0 0
BITMAP
0C40
1EC0
3BC0
1180
0000
3FC0
3FC0
0E00
0E00
0E00
0E00
0C00
0C00
0C00
1C00
1C00
1C00
1800
1800
FF00
FF00
ENDCHAR
STARTCHAR itilde
ENCODING 297
SWIDTH 246 0
DWIDTH 4 0
BBX 8 14 -1 0
BITMAP
31
7B
DF
46
00
18
38
38
30
30
33
37
3E
1C
ENDCHAR
STARTCHAR Imacron
ENCODING 298
SWIDTH 495 0
DWIDTH 9 0
BBX 10 19 0 0
BITMAP
1F80
1F80
0000
3FC0
3FC0
0E00
0E00
0E00
0E00
0C00
0C00
0C00
1C00
1C00
1C00
1800
1800
FF00
FF00
ENDCHAR
STARTCHAR imacron
ENCODING 299
SWIDTH 246 0
DWIDTH 4 0
BBX 7 12 0 0
BITMAP
FC
FC
00
30
70
70
60
60
66
6E
7C
38
ENDCHAR
STARTCHAR Ibreve
ENCODING 300
SWIDTH 495 0
DWIDTH 9 0
BBX 10 21 0 0
BITMAP
1040
18C0
1FC0
0F80
0000
3FC0
3FC0
0E00
0E00
0E00
0E00
0C00
0C00
0C00
1C00
1C00
1C00
1800
1800
FF00
FF00
ENDCHAR
STARTCHAR ibreve
ENCODING 301
SWIDTH 246 0
DWIDTH 4 0
BBX 7 15 0 0
BITMAP
82
C6
CE
FC
78
00
30
70
70
60
60
66
6E
7C
38
ENDCHAR
STARTCHAR Iogonek
ENCODING 302
SWIDTH 495 0
DWIDTH 9 0
BBX 10 21 0 -5
BITMAP
3FC0
3FC0
0E00
0E00
0E00
0E00
0C00
0C00
0C00
1C00
1C00
1C00
1800
1800
FF00
FF00
3000
3000
3000
3E00
1C00
ENDCHAR
STARTCHAR iogonek
ENCODING 303
SWIDTH 246 0
DWIDTH 4 0
BBX 7 18 0 -5
BITMAP
38
38
30
00
30
70
70
60
60
66
6E
7C
38
60
40
C0
78
38
ENDCHAR
STARTCHAR Idotaccent
ENCODING 304
SWIDTH 495 0
DWIDTH 9 0
BBX 10 20 0 0
BITMAP
0700
0700
0700
0000
3FC0
3FC0
0E00
0E00
0E00
0E00
0C00
0C00
0C00
1C00
1C00
1C00
1800
1800
FF00
FF00
ENDCHAR
STARTCHAR dotlessi
ENCODING 305
SWIDTH 246 0
DWIDTH 4 0
BBX 6 9 1 0
BITMAP
60
E0
E0
C0
C0
CC
DC
F8
70
ENDCHAR
STARTCHAR Jcircumflex
ENCODING 308
SWIDTH 743 0
DWIDTH 13 0
BBX 13 24 1 -2
BITMAP
0380
0380
06C0
0CC0
0CC0
0000
0FF0
3FF8
7070
E070
C070
E060
6060
0060
01E0
07E0
0EE0
18C0
38C0
31C0
3180
3380
3F00
1E00
ENDCHAR
STARTCHAR jcircumflex
ENCODING 309
SWIDTH 254 0
DWIDTH 5 0
BBX 11 26 -4 -9
BITMAP
0100
0380
0380
06C0
06C0
0CC0
0CC0
0000
0300
0700
0700
0600
0600
0660
06C0
0780
0700
0E00
1C00
3C00
6C00
4C00
D800
D800
F000
6000
ENDCHAR
STARTCHAR uni0136
ENCODING 310
SWIDTH 937 0
DWIDTH 17 0
BBX 19 21 0 -5
BITMAP
0FC180
3FE180
31C380
61C300
618700
318E00
019C00
07F800
07F000
03B800
03B800
431C20
C31C20
670E60
7E0FC0
3C0780
000000
00C000
00C000
00C000
008000
ENDCHAR
STARTCHAR uni0137
ENCODING 311
SWIDTH 525 0
DWIDTH 9 0
BBX 11 24 1 -6
BITMAP
0C00
1E00
3600
3600
6400
6400
6C00
6800
F000
F700
EF00
DB00
D300
E620
EC60
ECE0
EFC0
C780
0000
3000
3000
3000
3000
2000
ENDCHAR
STARTCHAR kgreenlandic
ENCODING 312
SWIDTH 465 0
DWIDTH 8 0
BBX 10 9 1 0
BITMAP
6E00
FF00
DB00
FB00
F000
F0C0
F980
DF80
CF00
ENDCHAR
STARTCHAR Lacute
ENCODING 313
SWIDTH 673 0
DWIDTH 12 0
BBX 15 22 -1 0
BITMAP
0004
000E
001E
0038
0020
0000
00F0
03FC
071C
060C
0E0C
0E0C
0E00
0C00
0C00
0C00
0C00
0C00
7E02
FF86
FFFC
70F8
ENDCHAR
STARTCHAR lacute
ENCODING 314
SWIDTH 326 0
DWIDTH 6 0
BBX 10 23 1 0
BITMAP
0080
01C0
0380
0700
0C00
1C00
1C00
3600
3600
6600
6400
6400
6C00
CC00
D800
D800
F000
F000
E000
C200
E600
7C00
3800
ENDCHAR
STARTCHAR uni013B
ENCODING 315
SWIDTH 673 0
DWIDTH 12 0
BBX 15 21 -1 -5
BITMAP
00F0
03FC
071C
060C
0E0C
0E0C
0E00
0C00
0C00
0C00
0C00
0C00
7E02
FF86
FFFC
70F8
0000
0300
0300
0200
0200
ENDCHAR
STARTCHAR uni013C
ENCODING 316
SWIDTH 326 0
DWIDTH 6 0
BBX 7 24 1 -6
BITMAP
1C
1C
36
36
66
64
64
6C
CC
D8
D8
F0
F0
E0
C2
E6
7C
38
00
60
60
60
60
40
ENDCHAR
STARTCHAR Lcaron
ENCODING 317
SWIDTH 673 0
DWIDTH 12 0
BBX 17 16 -1 0
BITMAP
00F000
03FD80
071D80
060D80
0E0D00
0E0C00
0E0000
0C0000
0C0000
0C0000
0C0000
0C0000
7E0200
FF8600
FFFC00
70F800
ENDCHAR
STARTCHAR lcaron
ENCODING 318
SWIDTH 237 0
DWIDTH 4 0
BBX 7 16 1 0
BITMAP
36
36
74
74
60
60
60
E0
E0
C0
C0
C0
CC
D8
F8
60
ENDCHAR
STARTCHAR Ldot
ENCODING 319
SWIDTH 673 0
DWIDTH 12 0
BBX 15 16 -1 0
BITMAP
00F0
03FC
071C
060C
0E0C
0E0C
0E00
0CE0
0CE0
0CE0
0C00
0C00
7E02
FF86
FFFC
70F8
ENDCHAR
STARTCHAR ldot
ENCODING 320
SWIDTH 363 0
DWIDTH 7 0
BBX 8 18 1 0
BITMAP
18
38
30
30
70
70
60
60
6C
FC
EC
C0
C0
C0
C3
E7
FE
78
ENDCHAR
STARTCHAR Lslash
ENCODING 321
SWIDTH 673 0
DWIDTH 12 0
BBX 15 19 -1 0
BITMAP
01FC
07FE
0600
00F0
03FC
071C
060C
0E0C
0E0C
0C00
0C00
0C00
0C00
0C00
0C00
7E02
FF86
FFFC
70F8
ENDCHAR
STARTCHAR lslash
ENCODING 322
SWIDTH 326 0
DWIDTH 6 0
BBX 10 19 1 0
BITMAP
0F80
3FC0
7000
1C00
3E00
3600
6600
6600
6400
EC00
CC00
D800
D000
F000
E000
C200
E600
7C00
3800
ENDCHAR
STARTCHAR Nacute
ENCODING 323
SWIDTH 884 0
DWIDTH 16 0
BBX 18 22 0 0
BITMAP
000400
000E00
001C00
003800
006000
000000
1C3C00
7E7E00
6ECE00
CF8E00
8F0E00
0F0E00
0E0C00
0E0C00
0E1C00
0C1C00
1C1C00
1C1800
1C1840
1C1CC0
181F80
180F00
ENDCHAR
STARTCHAR nacute
ENCODING 324
SWIDTH 496 0
DWIDTH 9 0
BBX 10 16 1 0
BITMAP
0300
0300
0600
0600
0C00
0800
0000
6600
EE00
DE00
F600
E600
E640
EEC0
CF80
C700
ENDCHAR
STARTCHAR uni0145
ENCODING 325
SWIDTH 884 0
DWIDTH 16 0
BBX 18 21 0 -5
BITMAP
1C3C00
7E7E00
6ECE00
CF8E00
8F0E00
0F0E00
0E0C00
0E0C00
0E1C00
0C1C00
1C1C00
1C1800
1C1840
1C1CC0
181F80
180F00
000000
018000
018000
030000
010000
ENDCHAR
STARTCHAR uni0146
ENCODING 326
SWIDTH 496 0
DWIDTH 9 0
BBX 10 15 1 -6
BITMAP
6600
EE00
DE00
F600
E600
E640
EEC0
CF80
C700
0000
3000
3000
3000
3000
2000
ENDCHAR
STARTCHAR Ncaron
ENCODING 327
SWIDTH 884 0
DWIDTH 16 0
BBX 18 22 0 0
BITMAP
018C00
00D800
00D800
007000
006000
000000
1C3C00
7E7E00
6ECE00
CF8E00
8F0E00
0F0E00
0E0C00
0E0C00
0E1C00
0C1C00
1C1C00
1C1800
1C1840
1C1CC0
181F80
180F00
ENDCHAR
STARTCHAR ncaron
ENCODING 328
SWIDTH 496 0
DWIDTH 9 0
BBX 10 17 1 0
BITMAP
1100
3300
1B00
1A00
1E00
1C00
0C00
0000
6600
EE00
DE00
F600
E600
E640
EEC0
CF80
C700
ENDCHAR
STARTCHAR napostrophe
ENCODING 329
SWIDTH 496 0
DWIDTH 9 0
BBX 11 15 0 0
BITMAP
C000
C000
C000
C000
8000
0000
3300
7700
6F00
7B00
7300
7320
7760
67C0
6380
ENDCHAR
STARTCHAR Eng
ENCODING 330
SWIDTH 884 0
DWIDTH 16 0
BBX 18 23 0 -7
BITMAP
1C3C00
7E7E00
EECE00
CF8E00
8F0E00
0F0E00
0E0C00
0E0C00
0E1C00
0C1C00
1C1C00
1C1800
1C1840
1C38C0
183F80
183F00
003000
003000
006000
186000
1CE000
0FC000
078000
ENDCHAR
STARTCHAR eng
ENCODING 331
SWIDTH 495 0
DWIDTH 9 0
BBX 10 15 1 -6
BITMAP
6600
EE00
DE00
F600
E600
E640
ECC0
CF80
CF00
0C00
1800
1800
9800
F000
E000
ENDCHAR
STARTCHAR Omacron
ENCODING 332
SWIDTH 816 0
DWIDTH 15 0
BBX 13 19 1 0
BITMAP
07E0
07E0
0000
07C0
1FF0
3C70
3838
7038
6018
E018
E018
E018
E038
E038
E030
7070
70E0
3FC0
1F00
ENDCHAR
STARTCHAR omacron
ENCODING 333
SWIDTH 451 0
DWIDTH 8 0
BBX 10 12 1 0
BITMAP
7E00
7E00
0000
3800
7C00
EE00
CFC0
CF80
C600
CC00
FC00
7800
ENDCHAR
STARTCHAR Obreve
ENCODING 334
SWIDTH 816 0
DWIDTH 15 0
BBX 13 21 1 0
BITMAP
0410
0E30
07E0
03C0
0000
07C0
1FF0
3C70
3838
7038
6018
E018
E018
E018
E038
E038
E030
7070
70E0
3FC0
1F00
ENDCHAR
STARTCHAR obreve
ENCODING 335
SWIDTH 451 0
DWIDTH 8 0
BBX 10 15 1 0
BITMAP
4200
C300
E600
7E00
3C00
0000
3800
7C00
EE00
CFC0
CF80
C600
CC00
FC00
7800
ENDCHAR
STARTCHAR Ohungarumlaut
ENCODING 336
SWIDTH 816 0
DWIDTH 15 0
BBX 13 22 1 0
BITMAP
0120
0330
0360
0360
0240
0000
07C0
1FF0
3C70
3838
7038
6018
E018
E018
E018
E038
E038
E030
7070
70E0
3FC0
1F00
ENDCHAR
STARTCHAR ohungarumlaut
ENCODING 337
SWIDTH 451 0
DWIDTH 8 0
BBX 10 16 1 0
BITMAP
1B00
1B00
3700
3600
2600
6400
0000
3800
7C00
EE00
CFC0
CF80
C600
CC00
FC00
7800
ENDCHAR
STARTCHAR OE
ENCODING 338
SWIDTH 1124 0
DWIDTH 20 0
BBX 22 16 1 0
BITMAP
07C7F0
1FFFF0
3C7E00
383C00
703C00
601C00
E01C00
E01FE0
E01FE0
E03800
E03800
E03800
707800
70FC1C
3FCFF8
1F07E0
ENDCHAR
STARTCHAR oe
ENCODING 339
SWIDTH 668 0
DWIDTH 12 0
BBX 13 9 1 0
BITMAP
39C0
7FE0
CE60
C660
C7C0
CF88
CE38
FFF0
71E0
ENDCHAR
STARTCHAR Racute
ENCODING 340
SWIDTH 880 0
DWIDTH 16 0
BBX 17 22 1 0
BITMAP
001000
003800
007800
00E000
008000
000000
07E000
0FF800
3C3800
301C00
671C00
671800
C73800
C67000
DFE000
CFC000
CEE000
CE7000
CE7080
6C3980
7C3F00
3C1E00
ENDCHAR
STARTCHAR racute
ENCODING 341
SWIDTH 455 0
DWIDTH 8 0
BBX 10 16 1 0
BITMAP
0200
0700
0600
0C00
0C00
0800
0000
6600
EE00
DE00
F6C0
E7C0
E780
E000
C000
C000
ENDCHAR
STARTCHAR uni0156
ENCODING 342
SWIDTH 880 0
DWIDTH 16 0
BBX 17 21 1 -5
BITMAP
07E000
0FF800
3C3800
301C00
671C00
671800
C73800
C67000
DFE000
CFC000
CEE000
CE7000
CE7080
6C3980
7C3F00
3C1E00
000000
018000
018000
018000
010000
ENDCHAR
STARTCHAR uni0157
ENCODING 343
SWIDTH 455 0
DWIDTH 8 0
BBX 10 15 1 -6
BITMAP
6600
EE00
DE00
F6C0
E7C0
E780
E000
C000
C000
0000
C000
C000
C000
8000
8000
ENDCHAR
STARTCHAR Rcaron
ENCODING 344
SWIDTH 880 0
DWIDTH 16 0
BBX 17 22 1 0
BITMAP
033000
033000
036000
01C000
01C000
000000
07E000
0FF800
3C3800
301C00
671C00
671800
C73800
C67000
DFE000
CFC000
CEE000
CE7000
CE7080
6C3980
7C3F00
3C1E00
ENDCHAR
STARTCHAR rcaron
ENCODING 345
SWIDTH 455 0
DWIDTH 8 0
BBX 10 17 1 0
BITMAP
1100
3300
3300
3600
1600
1C00
1800
0000
6600
EE00
DE00
F6C0
E7C0
E780
E000
C000
C000
ENDCHAR
STARTCHAR Sacute
ENCODING 346
SWIDTH 693 0
DWIDTH 12 0
BBX 11 22 1 0
BITMAP
0020
0060
00E0
01C0
0300
0000
0F80
3FE0
70E0
7060
6060
7060
7800
3E00
0F80
03C0
C0E0
C0E0
C0E0
E1C0
FFC0
3F00
ENDCHAR
STARTCHAR sacute
ENCODING 347
SWIDTH 427 0
DWIDTH 8 0
BBX 10 16 0 0
BITMAP
0300
0300
0700
0600
0C00
0800
0000
1C00
1800
1800
3C00
2C40
6EC0
DFC0
BF80
1F00
ENDCHAR
STARTCHAR Scircumflex
ENCODING 348
SWIDTH 693 0
DWIDTH 12 0
BBX 11 22 1 0
BITMAP
0380
0780
0780
0CC0
0CC0
0000
0F80
3FE0
70E0
7060
6060
7060
7800
3E00
0F80
03C0
C0E0
C0E0
C0E0
E1C0
FFC0
3F00
ENDCHAR
STARTCHAR scircumflex
ENCODING 349
SWIDTH 427 0
DWIDTH 8 0
BBX 10 17 0 0
BITMAP
0400
0E00
0E00
1E00
3200
3300
2300
0000
1C00
1800
1800
3C00
2C40
6EC0
DFC0
BF80
1F00
ENDCHAR
STARTCHAR Scedilla
ENCODING 350
SWIDTH 693 0
DWIDTH 12 0
BBX 11 21 1 -5
BITMAP
0F80
3FE0
70E0
7060
6060
7060
7800
3E00
1F80
03C0
C0E0
C0E0
C0E0
C0C0
FFC0
7F80
1E00
0600
0600
3E00
3C00
ENDCHAR
STARTCHAR scedilla
ENCODING 351
SWIDTH 427 0
DWIDTH 8 0
BBX 10 14 0 -5
BITMAP
0C00
1800
1800
3800
3C00
6E40
C6C0
9F80
3F00
3C00
0C00
0C00
7C00
7800
ENDCHAR
STARTCHAR Scaron
ENCODING 352
SWIDTH 693 0
DWIDTH 12 0
BBX 11 22 1 0
BITMAP
0C40
0CC0
0780
0780
0300
0000
0F80
3FE0
70E0
7060
6060
7060
7800
3E00
0F80
03C0
C0E0
C0E0
C0E0
E1C0
FFC0
3F00
ENDCHAR
STARTCHAR scaron
ENCODING 353
SWIDTH 427 0
DWIDTH 8 0
BBX 10 17 0 0
BITMAP
1100
1980
1B00
1B00
1E00
1E00
0C00
0000
1C00
1800
1800
3C00
2C40
6EC0
DFC0
BF80
1F00
ENDCHAR
STARTCHAR uni0162
ENCODING 354
SWIDTH 697 0
DWIDTH 13 0
BBX 15 21 1 -5
BITMAP
1FFE
7FFE
E380
C380
C300
C300
4300
0700
0700
0700
0700
0600
0600
0600
0E00
0E00
1E00
0300
0300
3E00
1C00
ENDCHAR
STARTCHAR uni0163
ENCODING 355
SWIDTH 393 0
DWIDTH 7 0
BBX 9 22 0 -5
BITMAP
0600
0F00
1B00
1B00
1B00
3200
3600
3C00
FF00
FF00
3000
3000
3000
3080
3180
3F80
1E00
3C00
0400
0C00
7C00
7800
ENDCHAR
STARTCHAR Tcaron
ENCODING 356
SWIDTH 697 0
DWIDTH 13 0
BBX 15 22 1 0
BITMAP
0230
0360
0360
01C0
0180
0000
1FFE
7FFE
E380
C380
C380
C300
C300
0700
0700
0700
0700
0600
0600
0600
0E00
0600
ENDCHAR
STARTCHAR tcaron
ENCODING 357
SWIDTH 343 0
DWIDTH 6 0
BBX 9 16 0 0
BITMAP
0300
1B00
1B00
1B00
3800
3000
FE00
FE00
3000
7000
7000
7100
7180
7300
3E00
1C00
ENDCHAR
STARTCHAR Tbar
ENCODING 358
SWIDTH 697 0
DWIDTH 13 0
BBX 15 16 1 0
BITMAP
1FFE
7FFE
E380
C380
C300
C300
4300
3FE0
3FE0
0700
0700
0600
0600
0600
0E00
0600
ENDCHAR
STARTCHAR tbar
ENCODING 359
SWIDTH 343 0
DWIDTH 6 0
BBX 9 15 0 0
BITMAP
1800
1800
1800
3800
3000
FE00
FE00
3000
7000
FC00
FC00
7180
7300
3E00
1C00
ENDCHAR
STARTCHAR Utilde
ENCODING 360
SWIDTH 890 0
DWIDTH 16 0
BBX 18 21 0 0
BITMAP
01C400
03EC00
037800
023800
000000
1C0600
7E0E00
660E00
C60E00
8E0E00
0E0E00
0E0C00
0C1C00
0C1C00
1C1C00
1C3C00
1C3C00
1C7C40
1DDDC0
1F9F80
0F0F00
ENDCHAR
STARTCHAR utilde
ENCODING 361
SWIDTH 462 0
DWIDTH 8 0
BBX 10 14 1 0
BITMAP
3100
7B00
6F00
4600
0000
6600
6600
CE00
CC00
CC00
DCC0
FD80
FF80
6E00
ENDCHAR
STARTCHAR Umacron
ENCODING 362
SWIDTH 890 0
DWIDTH 16 0
BBX 18 19 0 0
BITMAP
01F800
01F800
000000
1C0600
7E0E00
660E00
C60E00
8E0E00
0E0E00
0E0C00
0C1C00
0C1C00
1C1C00
1C3C00
1C3C00
1C7C40
1DDDC0
1F9F80
0F0F00
ENDCHAR
STARTCHAR umacron
ENCODING 363
SWIDTH 462 0
DWIDTH 8 0
BBX 10 12 1 0
BITMAP
3E00
7E00
0000
6600
6600
CE00
CC00
CC00
DCC0
FD80
FF80
6E00
ENDCHAR
STARTCHAR Ubreve
ENCODING 364
SWIDTH 890 0
DWIDTH 16 0
BBX 18 21 0 0
BITMAP
010800
039C00
01F800
00F000
000000
1C0600
7E0E00
660E00
C60E00
8E0E00
0E0E00
0E0C00
0C1C00
0C1C00
1C1C00
1C3C00
1C3C00
1C7C40
1DDDC0
1F9F80
0F0F00
ENDCHAR
STARTCHAR ubreve
ENCODING 365
SWIDTH 462 0
DWIDTH 8 0
BBX 10 15 1 0
BITMAP
4100
6300
6300
7E00
3C00
0000
6600
6600
CE00
CC00
CC00
DCC0
FD80
FF80
6E00
ENDCHAR
STARTCHAR Uring
ENCODING 366
SWIDTH 890 0
DWIDTH 16 0
BBX 18 23 0 0
BITMAP
007000
00F000
009000
009000
00F000
006000
000000
1C0600
7E0E00
660E00
C60E00
8E0E00
0E0E00
0E0C00
0C1C00
0C1C00
1C1C00
1C3C00
1C3C00
1C7C40
1DDDC0
1F9F80
0F0F00
ENDCHAR
STARTCHAR uring
ENCODING 367
SWIDTH 462 0
DWIDTH 8 0
BBX 10 16 1 0
BITMAP
1C00
1E00
3600
3600
3E00
1C00
0000
6600
6600
CE00
CC00
CC00
DCC0
FD80
FF80
6E00
ENDCHAR
STARTCHAR Uhungarumlaut
ENCODING 368
SWIDTH 890 0
DWIDTH 16 0
BBX 18 22 0 0
BITMAP
004800
00DC00
00D800
009800
019000
000000
1C0600
7E0E00
660E00
C60E00
8E0E00
0E0E00
0E0C00
0C1C00
0C1C00
1C1C00
1C3C00
1C3C00
1C7C40
1DDDC0
1F9F80
0F0F00
ENDCHAR
STARTCHAR uhungarumlaut
ENCODING 369
SWIDTH 462 0
DWIDTH 8 0
BBX 10 16 1 0
BITMAP
1900
1B80
1B00
1300
3200
2600
0000
6600
6600
CE00
CC00
CC00
DCC0
FD80
FF80
6E00
ENDCHAR
STARTCHAR Uogonek
ENCODING 370
SWIDTH 890 0
DWIDTH 16 0
BBX 18 21 0 -5
BITMAP
1C0600
7E0E00
660E00
C60E00
8E0E00
0E0E00
0E0C00
0C1C00
0C1C00
1C1C00
1C3C00
1C3C00
1C7C40
1CDCC0
1F9FC0
0F0F00
000600
000400
000E00
000780
000380
ENDCHAR
STARTCHAR uogonek
ENCODING 371
SWIDTH 462 0
DWIDTH 8 0
BBX 10 14 1 -5
BITMAP
6600
6600
CE00
CC00
CC00
DCC0
FD80
FF80
6E00
0C00
1800
1800
0F00
0600
ENDCHAR
STARTCHAR Wcircumflex
ENCODING 372
SWIDTH 1217 0
DWIDTH 22 0
BBX 23 22 2 0
BITMAP
003000
007800
007800
00CC00
00CC00
000000
6070E0
6071F0
6071B0
E06130
E0E130
E0E1B0
E0E1B0
E0E1F0
E1E0FE
E1E07C
E1E0C0
E361C0
677180
7E3F00
7E3E00
381C00
ENDCHAR
STARTCHAR wcircumflex
ENCODING 373
SWIDTH 700 0
DWIDTH 13 0
BBX 14 17 1 0
BITMAP
0200
0700
0700
0D00
0D80
1980
1980
0000
C660
CEE0
CEE0
CEFC
DEFC
D7C0
F780
F700
6700
ENDCHAR
STARTCHAR Ycircumflex
ENCODING 374
SWIDTH 851 0
DWIDTH 15 0
BBX 17 28 0 -6
BITMAP
007000
00F000
00D800
019800
019800
000000
1C0600
7E0E00
660E00
C60E00
8E0E00
0E0E00
0E0C00
0C1C00
0C1C00
1C3C00
1C2C00
0C7C00
0FDF80
07BF80
00FC00
01D800
071800
063800
0E3000
0E7000
07E000
07C000
ENDCHAR
STARTCHAR ycircumflex
ENCODING 375
SWIDTH 479 0
DWIDTH 9 0
BBX 11 26 0 -9
BITMAP
0200
0600
0F00
0B00
1B00
3B00
3300
0000
3300
3300
6700
6600
6600
6E60
7FC0
7F80
3700
0E00
1C00
3C00
6C00
CC00
D800
D800
F000
6000
ENDCHAR
STARTCHAR Ydieresis
ENCODING 376
SWIDTH 851 0
DWIDTH 15 0
BBX 17 26 0 -6
BITMAP
019800
01D800
019800
000000
1C0600
7E0E00
660E00
C60E00
8E0E00
0E0E00
0E0C00
0C1C00
0C1C00
1C3C00
1C2C00
0C7C00
0FDF80
07BF80
00FC00
01D800
071800
063800
0E3000
0E7000
07E000
07C000
ENDCHAR
STARTCHAR Zacute
ENCODING 377
SWIDTH 721 0
DWIDTH 13 0
BBX 15 22 0 0
BITMAP
0010
0038
0078
00E0
0080
0000
0FF0
3FFC
703C
6030
6070
70E0
20E0
01C0
0180
0380
0700
0E00
7E02
FF86
FFFC
70F8
ENDCHAR
STARTCHAR zacute
ENCODING 378
SWIDTH 445 0
DWIDTH 8 0
BBX 9 16 1 0
BITMAP
0600
0600
0600
0C00
0C00
0800
0000
FE00
FF00
1E00
3800
6000
E080
E380
7F00
3E00
ENDCHAR
STARTCHAR Zdotaccent
ENCODING 379
SWIDTH 721 0
DWIDTH 13 0
BBX 15 20 0 0
BITMAP
01C0
01C0
01C0
0000
0FF0
3FFC
703C
6030
6070
70E0
20E0
01C0
0180
0380
0700
0E00
7E02
FF86
FFFC
70F8
ENDCHAR
STARTCHAR zdotaccent
ENCODING 380
SWIDTH 445 0
DWIDTH 8 0
BBX 9 13 1 0
BITMAP
1C00
1C00
1C00
0000
FE00
FF00
1E00
3800
6000
E080
E380
7F00
3E00
ENDCHAR
STARTCHAR Zcaron
ENCODING 381
SWIDTH 721 0
DWIDTH 13 0
BBX 15 22 0 0
BITMAP
0230
0370
0360
01C0
0180
0000
0FF0
3FFC
703C
6030
6070
70E0
20E0
01C0
0180
0380
0700
0E00
7E02
FF86
FFFC
70F8
ENDCHAR
STARTCHAR zcaron
ENCODING 382
SWIDTH 445 0
DWIDTH 8 0
BBX 9 17 1 0
BITMAP
2100
3300
3600
3600
1400
1C00
1800
0000
FE00
FF00
1E00
3800
6000
E080
E380
7F00
3E00
ENDCHAR
STARTCHAR uni018F
ENCODING 399
SWIDTH 792 0
DWIDTH 14 0
BBX 13 16 1 0
BITMAP
0FC0
3FE0
38F0
6030
0038
0038
0038
7FF8
FFF8
E038
E030
E070
6060
71E0
3FC0
1F00
ENDCHAR
STARTCHAR florin
ENCODING 402
SWIDTH 478 0
DWIDTH 9 0
BBX 11 20 -1 -5
BITMAP
01C0
07E0
0700
0600
0600
0600
3FC0
3FC0
0E00
0C00
0C00
0C00
0C00
0C00
0C00
1C00
1C00
1800
F800
F000
ENDCHAR
STARTCHAR Ohorn
ENCODING 416
SWIDTH 816 0
DWIDTH 15 0
BBX 15 20 1 0
BITMAP
0004
000E
000C
000C
07FC
1FF8
3C70
3838
7038
6018
E018
E018
E018
E038
E038
E030
7070
70E0
3FC0
1F00
ENDCHAR
STARTCHAR ohorn
ENCODING 417
SWIDTH 451 0
DWIDTH 8 0
BBX 10 12 1 0
BITMAP
0100
0300
0300
3E00
7E00
EE00
CFC0
CF80
C600
CC00
FC00
7800
ENDCHAR
STARTCHAR Uhorn
ENCODING 431
SWIDTH 890 0
DWIDTH 16 0
BBX 18 20 0 0
BITMAP
000080
0000C0
0000C0
000180
1C0780
7E0E00
660E00
C60E00
8E0E00
0E0C00
0E0C00
0C1C00
0C1C00
1C1C00
1C3C00
1C3C00
1C7C40
1DDDC0
1F9F80
0F0F00
ENDCHAR
STARTCHAR uhorn
ENCODING 432
SWIDTH 512 0
DWIDTH 9 0
BBX 11 12 1 0
BITMAP
0080
0180
0180
6780
6700
CE00
CC00
CC00
DC60
FCC0
FF80
6700
ENDCHAR
STARTCHAR uni01C4
ENCODING 452
SWIDTH 1531 0
DWIDTH 28 0
BBX 29 22 1 0
BITMAP
00001880
00001980
00000F00
00000F00
00000600
00000000
1F803FC0
3FE0FFF0
20F1C0E0
003981C0
38398180
38398380
30188700
30180700
70380E00
70381C00
70381C00
60703800
60F1F018
61E3FE38
FFC3FFF0
7F03C3E0
ENDCHAR
STARTCHAR uni01C5
ENCODING 453
SWIDTH 1191 0
DWIDTH 21 0
BBX 22 17 1 0
BITMAP
000088
1F80CC
3FE0D8
20F0D8
0038F0
3838F0
383860
301800
301BF8
703BF8
703870
7039C0
607180
60F300
61E700
FFC7F8
7F07F8
ENDCHAR
STARTCHAR uni01C6
ENCODING 454
SWIDTH 895 0
DWIDTH 16 0
BBX 17 16 1 0
BITMAP
033300
033300
033600
071600
071C00
061800
060000
1EFF00
7EFF00
661C00
CC3800
CC6080
CCE080
DDE380
F7FF00
673E00
ENDCHAR
STARTCHAR uni01C7
ENCODING 455
SWIDTH 1276 0
DWIDTH 23 0
BBX 24 18 -1 -2
BITMAP
01F07F
03F8FF
0719C7
061F86
0E1B86
0E1986
0E018E
0C000E
0C001E
0C007C
0C00CC
0C018C
7E031C
FF8718
FFFF38
70FF30
0003E0
0001C0
ENDCHAR
STARTCHAR uni01C8
ENCODING 456
SWIDTH 927 0
DWIDTH 17 0
BBX 20 25 -1 -9
BITMAP
00F000
03FC00
071C00
060D80
0E0FC0
0E0D80
0E0000
0C0180
0C0180
0C0380
0C0380
0C0300
7E0330
FF8760
FFFFC0
70FB80
000700
000F00
001E00
003600
002600
006C00
006C00
007800
003800
ENDCHAR
STARTCHAR uni01C9
ENCODING 457
SWIDTH 610 0
DWIDTH 11 0
BBX 12 27 1 -9
BITMAP
1C00
1C00
3600
3600
6600
65C0
65C0
6D80
CC00
D980
D980
F180
F180
E180
C3B0
E770
7FC0
3B80
0700
0F00
1B00
3600
3600
2600
6C00
7C00
3800
ENDCHAR
STARTCHAR uni01CA
ENCODING 458
SWIDTH 1497 0
DWIDTH 27 0
BBX 27 18 0 -2
BITMAP
1C3C1FE0
7E7E7FE0
EECE60C0
CF8EC0C0
8F0EC0C0
0F0EE0C0
0E0C41C0
0E0C01C0
0E1C07C0
0C1C1F80
1C1C3980
1C187180
1C186380
1C1CE300
181FE700
180FE600
00007C00
00007800
ENDCHAR
STARTCHAR uni01CB
ENCODING 459
SWIDTH 1138 0
DWIDTH 20 0
BBX 22 25 0 -9
BITMAP
1C3C00
7E7E00
6ECE00
CF8E30
8F0E70
0F0E70
0E0C00
0E0C30
0E1C70
0C1C70
1C1C60
1C1860
1C1864
1C1CEC
181FF8
180F70
0000E0
0001C0
0003C0
0006C0
000CC0
000D80
000D80
000F00
000600
ENDCHAR
STARTCHAR uni01CC
ENCODING 460
SWIDTH 750 0
DWIDTH 14 0
BBX 14 22 1 -9
BITMAP
0030
0070
0070
0000
6630
EE70
DE70
F660
E660
E664
EEFC
CFF8
C770
00E0
01C0
03C0
06C0
0CC0
0D80
0D80
0F00
0600
ENDCHAR
STARTCHAR Gcaron
ENCODING 486
SWIDTH 811 0
DWIDTH 15 0
BBX 16 31 1 -9
BITMAP
0630
0360
0360
01C0
0180
0000
07C0
1FE0
3C70
3830
7030
6030
E000
E000
E000
E1F8
E1F8
E030
7033
7836
3FFC
0FF8
0070
00E0
01E0
0360
0660
06C0
06C0
0780
0300
ENDCHAR
STARTCHAR gcaron
ENCODING 487
SWIDTH 479 0
DWIDTH 9 0
BBX 11 26 0 -9
BITMAP
0880
1980
1980
0F00
0F00
0E00
0600
0000
0C00
3F00
3300
7700
6600
6660
6FC0
7F80
3700
0E00
1C00
3C00
6C00
4C00
D800
D800
F000
6000
ENDCHAR
STARTCHAR uni01EA
ENCODING 490
SWIDTH 816 0
DWIDTH 15 0
BBX 13 21 1 -5
BITMAP
07C0
1FF0
3C70
3838
7038
6018
6018
E018
E018
E038
E038
E030
7070
70E0
3FC0
1F80
0600
0600
0600
0780
0380
ENDCHAR
STARTCHAR uni01EB
ENCODING 491
SWIDTH 451 0
DWIDTH 8 0
BBX 10 14 1 -5
BITMAP
3800
7C00
EC00
CE80
CFC0
C780
CC00
FC00
7800
3000
6000
6000
7C00
1800
ENDCHAR
STARTCHAR Aringacute
ENCODING 506
SWIDTH 786 0
DWIDTH 14 0
BBX 17 25 1 0
BITMAP
000100
000380
007600
00F000
009800
009000
00F000
006000
000000
01FC00
07FC00
1F0800
3C3000
383000
707000
607000
E06000
E06000
E0E000
E0E000
E0E000
E1E200
73E600
7E7C00
3C3800
ENDCHAR
STARTCHAR aringacute
ENCODING 507
SWIDTH 470 0
DWIDTH 8 0
BBX 11 18 1 0
BITMAP
0040
0060
0DC0
1E80
3200
3200
1E00
1C00
0000
1800
7E00
6600
EE00
CC00
CCC0
DDC0
FF80
7700
ENDCHAR
STARTCHAR AEacute
ENCODING 508
SWIDTH 1015 0
DWIDTH 18 0
BBX 20 22 1 0
BITMAP
000100
000300
000700
000E00
001800
000000
03DFC0
0FDFC0
1F3800
3C3000
383000
707000
607000
E07F80
E07F80
E0E000
E0E000
E0E000
E1F020
73F070
7F3FE0
3E1F80
ENDCHAR
STARTCHAR aeacute
ENCODING 509
SWIDTH 653 0
DWIDTH 12 0
BBX 13 16 1 0
BITMAP
00C0
00C0
01C0
0180
0300
0300
0000
1DC0
7FE0
E660
CE40
CDC0
CF08
CE38
FFF0
73C0
ENDCHAR
STARTCHAR Oslashacute
ENCODING 510
SWIDTH 816 0
DWIDTH 15 0
BBX 13 24 1 -2
BITMAP
0040
00E0
01E0
0380
06C0
00C0
07C0
1FF0
3DF0
31B8
71B8
6318
E318
E318
E318
E638
E638
E630
7670
7CE0
3FC0
1F00
0C00
1800
ENDCHAR
STARTCHAR oslashacute
ENCODING 511
SWIDTH 459 0
DWIDTH 8 0
BBX 10 18 1 -2
BITMAP
1800
1800
1800
3000
3000
2800
1800
3800
7C00
DE00
D7C0
D7C0
D600
FE00
FC00
7800
2000
2000
ENDCHAR
STARTCHAR uni0200
ENCODING 512
SWIDTH 786 0
DWIDTH 14 0
BBX 15 22 1 0
BITMAP
0120
0360
0330
01B0
0190
0000
01FC
07FC
1F08
3C30
3830
7070
6070
E060
E060
E0E0
E0E0
E0E0
E1E2
73E6
7E7C
3C38
ENDCHAR
STARTCHAR uni0201
ENCODING 513
SWIDTH 470 0
DWIDTH 8 0
BBX 10 16 1 0
BITMAP
CC00
FC00
6C00
6C00
2600
3200
0000
1800
7E00
6600
EE00
CC00
CCC0
DDC0
FF80
7700
ENDCHAR
STARTCHAR uni0202
ENCODING 514
SWIDTH 786 0
DWIDTH 14 0
BBX 15 21 1 0
BITMAP
00F0
01F8
038C
0000
0000
01FC
07FC
1F08
3C30
3830
7070
6070
E060
E060
E0E0
E0E0
E0E0
E1E2
73E6
7E7C
3C38
ENDCHAR
STARTCHAR uni0203
ENCODING 515
SWIDTH 470 0
DWIDTH 8 0
BBX 10 15 1 0
BITMAP
1E00
3F00
7300
6180
0000
0000
1800
7E00
6600
EE00
CC00
CCC0
DDC0
FF80
7700
ENDCHAR
STARTCHAR uni0204
ENCODING 516
SWIDTH 686 0
DWIDTH 12 0
BBX 14 22 1 0
BITMAP
0880
0D80
0D80
04C0
06C0
0000
0FC0
1FE0
3870
7070
7070
3820
1F00
3F00
7000
E000
C000
C000
E008
F03C
7FF8
1FE0
ENDCHAR
STARTCHAR uni0205
ENCODING 517
SWIDTH 393 0
DWIDTH 7 0
BBX 9 16 0 0
BITMAP
6C00
EC00
6C00
6600
3600
1200
0000
1C00
3E00
6600
6600
7C00
7880
6380
7F00
3E00
ENDCHAR
STARTCHAR uni0206
ENCODING 518
SWIDTH 686 0
DWIDTH 12 0
BBX 14 21 1 0
BITMAP
03C0
07E0
0C70
0000
0000
0FC0
1FE0
3870
7070
7070
3820
1F00
3F00
7000
E000
C000
C000
E008
F03C
7FF8
1FE0
ENDCHAR
STARTCHAR uni0207
ENCODING 519
SWIDTH 393 0
DWIDTH 7 0
BBX 8 15 1 0
BITMAP
3C
7E
67
C3
00
00
38
7C
CC
CC
F8
F1
C7
FE
7C
ENDCHAR
STARTCHAR uni0208
ENCODING 520
SWIDTH 495 0
DWIDTH 9 0
BBX 10 22 0 0
BITMAP
1200
3B00
1B00
1900
0980
0000
3FC0
3FC0
0E00
0E00
0E00
0E00
0C00
0C00
0C00
1C00
1C00
1C00
1800
1800
FF00
FF00
ENDCHAR
STARTCHAR uni0209
ENCODING 521
SWIDTH 246 0
DWIDTH 4 0
BBX 8 16 -1 0
BITMAP
D8
D8
DC
6C
6C
24
00
18
38
38
30
30
33
37
3E
1C
ENDCHAR
STARTCHAR uni020A
ENCODING 522
SWIDTH 495 0
DWIDTH 9 0
BBX 10 21 0 0
BITMAP
0F80
1FC0
18C0
0000
0000
3FC0
3FC0
0E00
0E00
0E00
0E00
0C00
0C00
0C00
1C00
1C00
1C00
1800
1800
FF00
FF00
ENDCHAR
STARTCHAR uni020B
ENCODING 523
SWIDTH 246 0
DWIDTH 4 0
BBX 7 15 0 0
BITMAP
78
FC
CE
86
00
00
30
70
70
60
60
66
6E
7C
38
ENDCHAR
STARTCHAR uni020C
ENCODING 524
SWIDTH 816 0
DWIDTH 15 0
BBX 13 22 1 0
BITMAP
0480
0D80
0CC0
06C0
0640
0000
07C0
1FF0
3C70
3838
7038
6018
E018
E018
E018
E038
E038
E030
7070
70E0
3FC0
1F00
ENDCHAR
STARTCHAR uni020D
ENCODING 525
SWIDTH 451 0
DWIDTH 8 0
BBX 11 16 0 0
BITMAP
4C00
EC00
6C00
6600
3600
3200
0000
1C00
3E00
7700
67E0
67C0
6300
6600
7E00
3C00
ENDCHAR
STARTCHAR uni020E
ENCODING 526
SWIDTH 816 0
DWIDTH 15 0
BBX 13 21 1 0
BITMAP
03C0
07F0
0E30
0000
0000
07C0
1FF0
3C70
3838
7038
6018
E018
E018
E018
E038
E038
E030
7070
70E0
3FC0
1F00
ENDCHAR
STARTCHAR uni020F
ENCODING 527
SWIDTH 451 0
DWIDTH 8 0
BBX 10 15 1 0
BITMAP
3C00
7E00
E700
C300
0000
0000
3800
7C00
EE00
CFC0
CF80
C600
CC00
FC00
7800
ENDCHAR
STARTCHAR uni0210
ENCODING 528
SWIDTH 880 0
DWIDTH 16 0
BBX 17 22 1 0
BITMAP
048000
06C000
06C000
066000
026000
000000
07E000
0FF800
3C3800
301C00
671C00
671800
C73800
C67000
DFE000
CFC000
CEE000
CE7000
CE7080
6C3980
7C3F00
3C1E00
ENDCHAR
STARTCHAR uni0211
ENCODING 529
SWIDTH 455 0
DWIDTH 8 0
BBX 10 16 1 0
BITMAP
D800
DC00
EC00
6C00
6400
2600
0000
6600
EE00
DE00
F6C0
E7C0
E780
E000
C000
C000
ENDCHAR
STARTCHAR uni0212
ENCODING 530
SWIDTH 880 0
DWIDTH 16 0
BBX 17 21 1 0
BITMAP
03E000
07F000
063000
000000
000000
07E000
0FF800
3C3800
301C00
671C00
671800
C73800
C67000
DFE000
CFC000
CEE000
CE7000
CE7080
6C3980
7C3F00
3C1E00
ENDCHAR
STARTCHAR uni0213
ENCODING 531
SWIDTH 455 0
DWIDTH 8 0
BBX 10 15 1 0
BITMAP
1E00
3F00
6300
6300
0000
0000
6600
EE00
DE00
F6C0
E7C0
E780
E000
C000
C000
ENDCHAR
STARTCHAR uni0214
ENCODING 532
SWIDTH 890 0
DWIDTH 16 0
BBX 18 22 0 0
BITMAP
012000
036000
033000
01B000
019000
000000
1C0600
7E0E00
660E00
C60E00
8E0E00
0E0E00
0E0C00
0C1C00
0C1C00
1C1C00
1C3C00
1C3C00
1C7C40
1DDDC0
1F9F80
0F0F00
ENDCHAR
STARTCHAR uni0215
ENCODING 533
SWIDTH 462 0
DWIDTH 8 0
BBX 10 16 1 0
BITMAP
D800
DC00
EC00
6C00
2400
2600
0000
6600
6600
CE00
CC00
CC00
DCC0
FD80
FF80
6E00
ENDCHAR
STARTCHAR uni0216
ENCODING 534
SWIDTH 890 0
DWIDTH 16 0
BBX 18 21 0 0
BITMAP
00F000
01F800
039C00
000000
000000
1C0600
7E0E00
660E00
C60E00
8E0E00
0E0E00
0E0C00
0C1C00
0C1C00
1C1C00
1C3C00
1C3C00
1C7C40
1DDDC0
1F9F80
0F0F00
ENDCHAR
STARTCHAR uni0217
ENCODING 535
SWIDTH 462 0
DWIDTH 8 0
BBX 10 15 1 0
BITMAP
1E00
3F00
6300
6300
0000
0000
6600
6600
CE00
CC00
CC00
DCC0
FD80
FF80
6E00
ENDCHAR
STARTCHAR uni0218
ENCODING 536
SWIDTH 693 0
DWIDTH 12 0
BBX 11 21 1 -5
BITMAP
0F80
3FE0
70E0
7060
6060
7060
7800
3E00
0F80
03C0
C0E0
C0E0
C0E0
E1C0
FFC0
3F00
0000
0C00
0C00
0800
0800
ENDCHAR
STARTCHAR uni0219
ENCODING 537
SWIDTH 427 0
DWIDTH 8 0
BBX 10 15 0 -6
BITMAP
1C00
1800
1800
3C00
2C40
6EC0
DFC0
BF80
1F00
0000
1800
1800
1800
1800
1000
ENDCHAR
STARTCHAR uni021A
ENCODING 538
SWIDTH 697 0
DWIDTH 13 0
BBX 15 21 1 -5
BITMAP
1FFE
7FFE
E380
C380
C380
C300
C300
0700
0700
0700
0700
0600
0600
0600
0E00
0600
0000
0C00
0E00
0C00
0C00
ENDCHAR
STARTCHAR uni021B
ENCODING 539
SWIDTH 393 0
DWIDTH 7 0
BBX 9 23 0 -6
BITMAP
0600
0F00
1B00
1B00
1B00
3200
3600
3C00
FF00
FF00
3000
3000
3000
3080
3180
3F00
1E00
0000
1800
1800
1800
1800
1000
ENDCHAR
STARTCHAR uni022A
ENCODING 554
SWIDTH 816 0
DWIDTH 15 0
BBX 13 23 1 0
BITMAP
03E0
07E0
0000
0660
0760
0660
0000
07C0
1FF0
3C70
3838
7038
6018
E018
E018
E018
E038
E038
E030
7070
70E0
3FC0
1F00
ENDCHAR
STARTCHAR uni022B
ENCODING 555
SWIDTH 451 0
DWIDTH 8 0
BBX 10 16 1 0
BITMAP
7E00
7E00
0000
6600
6E00
6600
0000
3800
7C00
EE00
CFC0
CF80
C600
CC00
FC00
7800
ENDCHAR
STARTCHAR uni022C
ENCODING 556
SWIDTH 816 0
DWIDTH 15 0
BBX 13 24 1 0
BITMAP
03E0
03E0
0000
0710
07B0
0DF0
08E0
0000
07C0
1FF0
3C70
3838
7038
6018
E018
E018
E018
E038
E038
E030
7070
70E0
3FC0
1F00
ENDCHAR
STARTCHAR uni022D
ENCODING 557
SWIDTH 451 0
DWIDTH 8 0
BBX 10 17 1 0
BITMAP
3E00
7E00
0000
7100
7B00
DE00
8E00
0000
3800
7C00
EE00
CFC0
CF80
C600
CC00
FC00
7800
ENDCHAR
STARTCHAR uni0230
ENCODING 560
SWIDTH 816 0
DWIDTH 15 0
BBX 13 23 1 0
BITMAP
03E0
07E0
0000
0180
03C0
0180
0000
07C0
1FF0
3C70
3838
7038
6018
E018
E018
E018
E038
E038
E030
7070
70E0
3FC0
1F00
ENDCHAR
STARTCHAR uni0231
ENCODING 561
SWIDTH 451 0
DWIDTH 8 0
BBX 10 16 1 0
BITMAP
7E00
7E00
0000
1800
3C00
1800
0000
3800
7C00
EE00
CFC0
CF80
C600
CC00
FC00
7800
ENDCHAR
STARTCHAR uni0232
ENCODING 562
SWIDTH 851 0
DWIDTH 15 0
BBX 17 25 0 -6
BITMAP
01F800
01F800
000000
1C0600
7E0E00
660E00
C60E00
8E0E00
0E0E00
0E0C00
0C1C00
0C1C00
1C3C00
1C2C00
0C7C00
0FDF80
07BF80
00FC00
01D800
071800
063800
0E3000
0E7000
07E000
07C000
ENDCHAR
STARTCHAR uni0233
ENCODING 563
SWIDTH 479 0
DWIDTH 9 0
BBX 11 21 0 -9
BITMAP
1F00
3F00
0000
3300
3300
6700
6600
6600
6E60
7FC0
7F80
3700
0E00
1C00
3C00
6C00
CC00
D800
D800
F000
6000
ENDCHAR
STARTCHAR uni0237
ENCODING 567
SWIDTH 254 0
DWIDTH 5 0
BBX 11 18 -4 -9
BITMAP
0300
0700
0700
0600
0600
0660
06C0
0780
0700
0E00
1C00
3C00
6C00
4C00
D800
D800
F000
6000
ENDCHAR
STARTCHAR uni0259
ENCODING 601
SWIDTH 458 0
DWIDTH 8 0
BBX 7 9 1 0
BITMAP
78
FC
0E
06
FE
FE
CC
FC
78
ENDCHAR
STARTCHAR uni02BC
ENCODING 700
SWIDTH 600 0
DWIDTH 11 0
BBX 2 5 5 10
BITMAP
C0
C0
C0
C0
80
ENDCHAR
STARTCHAR circumflex
ENCODING 710
SWIDTH 600 0
DWIDTH 11 0
BBX 6 7 2 10
BITMAP
08
18
3C
3C
6C
6C
C4
ENDCHAR
STARTCHAR caron
ENCODING 711
SWIDTH 600 0
DWIDTH 11 0
BBX 6 7 3 10
BITMAP
44
CC
CC
58
78
70
70
ENDCHAR
STARTCHAR uni02C9
ENCODING 713
SWIDTH 600 0
DWIDTH 11 0
BBX 5 2 3 10
BITMAP
F8
F8
ENDCHAR
STARTCHAR breve
ENCODING 728
SWIDTH 600 0
DWIDTH 11 0
BBX 7 5 2 10
BITMAP
82
C6
E6
7E
38
ENDCHAR
STARTCHAR dotaccent
ENCODING 729
SWIDTH 600 0
DWIDTH 11 0
BBX 3 3 4 10
BITMAP
E0
E0
E0
ENDCHAR
STARTCHAR ring
ENCODING 730
SWIDTH 600 0
DWIDTH 11 0
BBX 5 6 3 10
BITMAP
70
78
D8
D8
78
70
ENDCHAR
STARTCHAR ogonek
ENCODING 731
SWIDTH 600 0
DWIDTH 11 0
BBX 5 6 2 -5
BITMAP
20
60
40
C0
78
78
ENDCHAR
STARTCHAR tilde
ENCODING 732
SWIDTH 600 0
DWIDTH 11 0
BBX 8 4 2 10
BITMAP
62
FB
DE
8C
ENDCHAR
STARTCHAR hungarumlaut
ENCODING 733
SWIDTH 600 0
DWIDTH 11 0
BBX 7 6 3 10
BITMAP
26
7E
6C
6C
C8
98
ENDCHAR
STARTCHAR gravecomb
ENCODING 768
SWIDTH 0 0
DWIDTH 0 0
BBX 4 6 -9 10
BITMAP
40
E0
60
30
30
10
ENDCHAR
STARTCHAR acutecomb
ENCODING 769
SWIDTH 0 0
DWIDTH 0 0
BBX 4 6 -6 10
BITMAP
30
70
60
60
C0
80
ENDCHAR
STARTCHAR uni0302
ENCODING 770
SWIDTH 0 0
DWIDTH 0 0
BBX 6 7 -8 10
BITMAP
10
38
78
78
D8
CC
8C
ENDCHAR
STARTCHAR tildecomb
ENCODING 771
SWIDTH 0 0
DWIDTH 0 0
BBX 8 4 -9 10
BITMAP
61
FB
DE
8E
ENDCHAR
STARTCHAR uni0304
ENCODING 772
SWIDTH 0 0
DWIDTH 0 0
BBX 6 2 -8 10
BITMAP
FC
F8
ENDCHAR
STARTCHAR uni0306
ENCODING 774
SWIDTH 0 0
DWIDTH 0 0
BBX 8 5 -9 10
BITMAP
42
C3
E6
7E
3C
ENDCHAR
STARTCHAR uni0307
ENCODING 775
SWIDTH 0 0
DWIDTH 0 0
BBX 3 3 -7 10
BITMAP
60
E0
E0
ENDCHAR
STARTCHAR uni0308
ENCODING 776
SWIDTH 0 0
DWIDTH 0 0
BBX 6 3 -8 10
BITMAP
CC
DC
CC
ENDCHAR
STARTCHAR hookabovecomb
ENCODING 777
SWIDTH 0 0
DWIDTH 0 0
BBX 4 6 -7 10
BITMAP
F0
F0
10
10
70
60
ENDCHAR
STARTCHAR uni030A
ENCODING 778
SWIDTH 0 0
DWIDTH 0 0
BBX 4 6 -7 10
BITMAP
60
F0
90
90
F0
E0
ENDCHAR
STARTCHAR uni030B
ENCODING 779
SWIDTH 0 0
DWIDTH 0 0
BBX 7 6 -8 10
BITMAP
36
76
6E
6C
4C
C8
ENDCHAR
STARTCHAR uni030C
ENCODING 780
SWIDTH 0 0
DWIDTH 0 0
BBX 6 7 -8 10
BITMAP
44
CC
4C
78
78
70
30
ENDCHAR
STARTCHAR uni030F
ENCODING 783
SWIDTH 0 0
DWIDTH 0 0
BBX 7 6 -10 10
BITMAP
4C
EC
6C
64
36
32
ENDCHAR
STARTCHAR uni0311
ENCODING 785
SWIDTH 0 0
DWIDTH 0 0
BBX 8 4 -9 11
BITMAP
3C
7E
E6
C3
ENDCHAR
STARTCHAR uni0312
ENCODING 786
SWIDTH 0 0
DWIDTH 0 0
BBX 2 5 -6 10
BITMAP
C0
C0
C0
C0
80
ENDCHAR
STARTCHAR uni031B
ENCODING 795
SWIDTH 0 0
DWIDTH 0 0
BBX 4 5 -6 7
BITMAP
20
30
60
E0
C0
ENDCHAR
STARTCHAR dotbelowcomb
ENCODING 803
SWIDTH 0 0
DWIDTH 0 0
BBX 3 3 -8 -4
BITMAP
E0
E0
C0
ENDCHAR
STARTCHAR uni0324
ENCODING 804
SWIDTH 0 0
DWIDTH 0 0
BBX 6 3 -10 -4
BITMAP
CC
EC
CC
ENDCHAR
STARTCHAR uni0326
ENCODING 806
SWIDTH 0 0
DWIDTH 0 0
BBX 2 5 -8 -6
BITMAP
C0
C0
C0
C0
80
ENDCHAR
STARTCHAR uni0327
ENCODING 807
SWIDTH 0 0
DWIDTH 0 0
BBX 5 6 -10 -5
BITMAP
70
78
08
18
F8
F0
ENDCHAR
STARTCHAR uni0328
ENCODING 808
SWIDTH 0 0
DWIDTH 0 0
BBX 4 6 -8 -5
BITMAP
60
C0
C0
C0
F0
70
ENDCHAR
STARTCHAR uni032E
ENCODING 814
SWIDTH 0 0
DWIDTH 0 0
BBX 8 5 -11 -6
BITMAP
42
C3
E7
7E
3C
ENDCHAR
STARTCHAR uni0331
ENCODING 817
SWIDTH 0 0
DWIDTH 0 0
BBX 6 2 -10 -3
BITMAP
FC
FC
ENDCHAR
STARTCHAR uni0394
ENCODING 916
SWIDTH 700 0
DWIDTH 13 0
BBX 10 15 1 0
BITMAP
0300
0700
0700
0F00
0F00
1980
1980
3980
3180
3180
61C0
60C0
C0C0
FFC0
FFC0
ENDCHAR
STARTCHAR uni03A9
ENCODING 937
SWIDTH 816 0
DWIDTH 15 0
BBX 14 15 0 0
BITMAP
03E0
0FF8
1E38
181C
381C
300C
700C
700C
700C
701C
7018
3038
3870
FCFC
FCFC
ENDCHAR
STARTCHAR uni03BC
ENCODING 956
SWIDTH 462 0
DWIDTH 8 0
BBX 11 14 0 -5
BITMAP
1100
3300
7300
6600
6600
6E60
7EE0
7FC0
7700
6000
6000
6000
6000
E000
ENDCHAR
STARTCHAR pi
ENCODING 960
SWIDTH 496 0
DWIDTH 9 0
BBX 11 9 0 0
BITMAP
FFC0
FFC0
7300
6300
6700
6720
6760
63C0
6380
ENDCHAR
STARTCHAR uni0400
ENCODING 1024
SWIDTH 686 0
DWIDTH 12 0
BBX 14 22 1 0
BITMAP
1000
1800
1C00
0F00
0300
0000
0FC0
1FE0
3870
7070
7070
3820
1F00
3F00
7000
E000
C000
C000
E008
F03C
7FF8
1FE0
ENDCHAR
STARTCHAR uni0401
ENCODING 1025
SWIDTH 686 0
DWIDTH 12 0
BBX 14 20 1 0
BITMAP
0660
0EE0
06E0
0000
0FC0
1FE0
3870
7070
7070
3820
1F00
3F00
7000
E000
C000
C000
E008
F03C
7FF8
1FE0
ENDCHAR
STARTCHAR uni0402
ENCODING 1026
SWIDTH 974 0
DWIDTH 18 0
BBX 19 25 1 -9
BITMAP
1FFE00
7FFE00
E38000
C38000
C38000
C30000
C30000
073C00
07FE00
07C600
070600
070640
0606E0
0607C0
0E0F80
060E00
001E00
003C00
007C00
00EC00
00DC00
019800
01B800
01F000
00E000
ENDCHAR
STARTCHAR uni0403
ENCODING 1027
SWIDTH 635 0
DWIDTH 11 0
BBX 14 22 1 0
BITMAP
0020
0060
01E0
03C0
0300
0000
1FFC
7FFC
E600
C600
CE00
CE00
CE00
0C00
0C00
1C00
1C00
1C00
1C00
1C00
1800
1800
ENDCHAR
STARTCHAR uni0404
ENCODING 1028
SWIDTH 687 0
DWIDTH 12 0
BBX 14 16 1 0
BITMAP
07C0
1FE0
3C70
3870
7070
6060
E000
FF80
FF80
E000
E000
E000
7000
781C
3FF8
0FE0
ENDCHAR
STARTCHAR uni0405
ENCODING 1029
SWIDTH 693 0
DWIDTH 12 0
BBX 11 16 1 0
BITMAP
0F80
3FE0
70E0
7060
6060
7060
7800
3E00
0F80
03C0
C0E0
C0E0
C0E0
E1C0
FFC0
3F00
ENDCHAR
STARTCHAR uni0406
ENCODING 1030
SWIDTH 495 0
DWIDTH 9 0
BBX 10 16 0 0
BITMAP
3FC0
3FC0
0E00
0E00
0E00
0E00
0C00
0C00
0C00
1C00
1C00
1C00
1800
1800
FF00
FF00
ENDCHAR
STARTCHAR uni0407
ENCODING 1031
SWIDTH 495 0
DWIDTH 9 0
BBX 10 20 0 0
BITMAP
0D80
1DC0
1D80
0000
3FC0
3FC0
0E00
0E00
0E00
0E00
0C00
0C00
0C00
1C00
1C00
1C00
1800
1800
FF00
FF00
ENDCHAR
STARTCHAR uni0408
ENCODING 1032
SWIDTH 743 0
DWIDTH 13 0
BBX 13 18 1 -2
BITMAP
0FF0
3FF8
7070
E070
C070
E060
6060
0060
01E0
07E0
0EE0
18C0
38C0
31C0
3180
3380
3F00
1E00
ENDCHAR
STARTCHAR uni0409
ENCODING 1033
SWIDTH 1158 0
DWIDTH 21 0
BBX 21 16 0 0
BITMAP
003800
003800
007800
007800
007800
00F800
00FBE0
00FFF0
01F870
01B838
01B838
033830
C73870
E61C70
7E1FE0
380780
ENDCHAR
STARTCHAR uni040A
ENCODING 1034
SWIDTH 1182 0
DWIDTH 21 0
BBX 21 16 0 0
BITMAP
1C0C00
7E0C00
EE1C00
C61C00
861C00
0E1800
0E1FE0
0E1FF0
3FF838
3FF838
0C3838
1C3838
1C3838
181870
181FE0
180F80
ENDCHAR
STARTCHAR uni040B
ENCODING 1035
SWIDTH 979 0
DWIDTH 18 0
BBX 19 16 1 0
BITMAP
1FFE00
7FFE00
E38000
C38000
C38000
C30000
C30000
073C00
07FE00
07C600
070600
070600
060620
060E60
0E0FC0
060780
ENDCHAR
STARTCHAR uni040C
ENCODING 1036
SWIDTH 937 0
DWIDTH 17 0
BBX 19 22 0 0
BITMAP
000100
000300
000700
000E00
001800
000000
0FC180
3FE180
31C380
61C300
618700
318E00
019C00
07F800
07F000
03B800
03B800
431C20
C31C20
670E60
7E0FC0
3C0780
ENDCHAR
STARTCHAR uni040D
ENCODING 1037
SWIDTH 890 0
DWIDTH 16 0
BBX 18 22 0 0
BITMAP
040000
060000
078000
03C000
00C000
000000
1C0600
7E0E00
660E00
C60E00
8E0E00
0E0E00
0E0C00
0C1C00
0C1C00
1C1C00
1C3C00
1C3C00
1C7C40
1DDDC0
1F9F80
0F0F00
ENDCHAR
STARTCHAR uni040E
ENCODING 1038
SWIDTH 824 0
DWIDTH 15 0
BBX 16 26 1 -5
BITMAP
0210
0730
03F0
01E0
0000
380C
FC1C
DC1C
9C1C
1C1C
1C38
1838
1878
18D8
1FB8
0F3B
003F
00FE
03F0
07B0
0E30
0C60
1860
1CE0
0FC0
0F00
ENDCHAR
STARTCHAR uni040F
ENCODING 1039
SWIDTH 890 0
DWIDTH 16 0
BBX 18 19 0 -3
BITMAP
1C0600
7E0E00
E60E00
C60E00
8E0E00
0E0E00
0E0C00
0C1C00
0C1C00
1C1C00
1C3C00
1C3C00
1C7C40
1DDDC0
1F9F80
0F0F00
060000
060000
0E0000
ENDCHAR
STARTCHAR uni0410
ENCODING 1040
SWIDTH 786 0
DWIDTH 14 0
BBX 15 16 1 0
BITMAP
01FC
07FC
1F08
3C30
3830
7070
6070
E060
E060
E0E0
E0E0
E0E0
E1E2
73E6
7E7C
3C38
ENDCHAR
STARTCHAR uni0411
ENCODING 1041
SWIDTH 917 0
DWIDTH 17 0
BBX 15 17 1 -1
BITMAP
1FFC
7FFC
E700
C700
C700
C600
C600
0FF8
1FFC
1E0E
0E0E
0C06
0C0E
0C0E
0C1C
1CF8
0DE0
ENDCHAR
STARTCHAR uni0412
ENCODING 1042
SWIDTH 827 0
DWIDTH 15 0
BBX 16 17 0 -1
BITMAP
07F8
3FFE
780E
C007
0C07
0C06
1C1E
1CF8
19F0
1838
181C
381C
3838
3878
3FF0
3FC0
3000
ENDCHAR
STARTCHAR uni0413
ENCODING 1043
SWIDTH 635 0
DWIDTH 11 0
BBX 14 16 1 0
BITMAP
1FFC
7FFC
E600
C600
CE00
CE00
CE00
0C00
0C00
1C00
1C00
1C00
1C00
1C00
1800
1800
ENDCHAR
STARTCHAR uni0414
ENCODING 1044
SWIDTH 964 0
DWIDTH 17 0
BBX 17 16 0 0
BITMAP
03F800
0FFE00
1E0F00
100700
038380
030380
030380
070380
060380
060380
060380
7E0300
7E0700
CF8E00
FDFC00
78F800
ENDCHAR
STARTCHAR uni0415
ENCODING 1045
SWIDTH 686 0
DWIDTH 12 0
BBX 14 16 1 0
BITMAP
0FC0
1FE0
3870
7070
7070
3820
1F00
3F00
7000
E000
C000
C000
E008
F03C
7FF8
1FE0
ENDCHAR
STARTCHAR uni0416
ENCODING 1046
SWIDTH 1234 0
DWIDTH 22 0
BBX 24 16 0 0
BITMAP
0F0C1E
1F0E3F
138C36
018C60
01CC60
01CCE0
00DDC0
007F80
00FF00
01DB80
0399C0
0319C0
4718E1
EE38E3
7C387E
38383C
ENDCHAR
STARTCHAR uni0417
ENCODING 1047
SWIDTH 725 0
DWIDTH 13 0
BBX 11 16 1 0
BITMAP
0F80
3FC0
38E0
70E0
70E0
20C0
01C0
0FC0
0EE0
0060
C060
C060
E0E0
E1C0
7F80
3F00
ENDCHAR
STARTCHAR uni0418
ENCODING 1048
SWIDTH 890 0
DWIDTH 16 0
BBX 18 16 0 0
BITMAP
1C0600
7E0E00
660E00
C60E00
8E0E00
0E0E00
0E0C00
0C1C00
0C1C00
1C1C00
1C3C00
1C3C00
1C7C40
1DDDC0
1F9F80
0F0F00
ENDCHAR
STARTCHAR uni0419
ENCODING 1049
SWIDTH 890 0
DWIDTH 16 0
BBX 18 21 0 0
BITMAP
010C00
019800
01F800
00F000
000000
1C0600
7E0E00
660E00
C60E00
8E0E00
0E0E00
0E0C00
0C1C00
0C1C00
1C1C00
1C3C00
1C3C00
1C7C40
1DDDC0
1F9F80
0F0F00
ENDCHAR
STARTCHAR uni041A
ENCODING 1050
SWIDTH 937 0
DWIDTH 17 0
BBX 19 16 0 0
BITMAP
0FC180
3FE180
31C380
61C300
618700
318E00
019C00
07F800
07F000
03B800
03B800
431C20
C31C20
670E60
7E0FC0
3C0780
ENDCHAR
STARTCHAR uni041B
ENCODING 1051
SWIDTH 861 0
DWIDTH 16 0
BBX 18 16 0 0
BITMAP
003800
003800
007800
007800
007800
00F800
00F800
00F800
01F800
01B800
01B800
03B800
C718C0
E61DC0
7E1F80
380F00
ENDCHAR
STARTCHAR uni041C
ENCODING 1052
SWIDTH 1133 0
DWIDTH 20 0
BBX 23 16 0 0
BITMAP
00E1C0
00E1C0
00E1C0
01E3C0
01E3C0
01E6C0
01E6C0
01E7C0
036DC0
036DC0
036DC0
0779C0
C678C6
EE38EC
7C30FC
383070
ENDCHAR
STARTCHAR uni041D
ENCODING 1053
SWIDTH 873 0
DWIDTH 16 0
BBX 18 17 0 0
BITMAP
000300
1C0780
7E0C80
EE0C80
C61D80
861980
0E1900
0E1F00
0E3C00
3FF800
3FF800
0C3800
1C3800
1C3840
1838C0
181F80
180F00
ENDCHAR
STARTCHAR uni041E
ENCODING 1054
SWIDTH 816 0
DWIDTH 15 0
BBX 13 16 1 0
BITMAP
07C0
1FF0
3C70
3838
7038
6018
E018
E018
E018
E038
E038
E030
7070
70E0
3FC0
1F00
ENDCHAR
STARTCHAR uni041F
ENCODING 1055
SWIDTH 892 0
DWIDTH 16 0
BBX 17 16 1 0
BITMAP
0FFF00
7FFF80
E60C80
C60C00
CE1C00
CE1C00
CE1C00
0E1800
0C1800
0C3800
0C3800
1C3800
1C3880
1C3980
1C1F00
181E00
ENDCHAR
STARTCHAR uni0420
ENCODING 1056
SWIDTH 805 0
DWIDTH 14 0
BBX 14 18 1 -2
BITMAP
03E0
0FF8
1C38
381C
731C
671C
671C
C738
C778
DFF0
DFC0
CE00
CE00
CE00
CE00
EC00
7C00
3C00
ENDCHAR
STARTCHAR uni0421
ENCODING 1057
SWIDTH 686 0
DWIDTH 12 0
BBX 14 16 1 0
BITMAP
07C0
1FE0
3C60
3870
7070
6060
E000
E000
E000
E000
E000
E000
7000
783C
3FF8
0FE0
ENDCHAR
STARTCHAR uni0422
ENCODING 1058
SWIDTH 697 0
DWIDTH 13 0
BBX 15 16 1 0
BITMAP
1FFE
7FFE
E380
C380
C380
C300
C300
0700
0700
0700
0700
0600
0600
0600
0E00
0600
ENDCHAR
STARTCHAR uni0423
ENCODING 1059
SWIDTH 824 0
DWIDTH 15 0
BBX 16 21 1 -5
BITMAP
380C
FC1C
DC1C
9C1C
1C1C
1C38
1838
1878
18D8
1FB8
0F3B
003F
00FE
03F0
07B0
0E30
0C60
1860
1CE0
0FC0
0F00
ENDCHAR
STARTCHAR uni0424
ENCODING 1060
SWIDTH 977 0
DWIDTH 18 0
BBX 16 23 1 -5
BITMAP
3000
3FF0
1FE0
00C0
1ECE
3FDF
71F3
71E3
61C3
E1C3
E183
E187
E387
E786
EFCE
7FFC
7BF8
0300
0300
6700
6600
3E00
1C00
ENDCHAR
STARTCHAR uni0425
ENCODING 1061
SWIDTH 712 0
DWIDTH 13 0
BBX 15 16 0 0
BITMAP
3C1C
7E1C
CE38
8770
07E0
03C0
0380
0380
0780
0F80
1DC0
39C0
39C2
70E6
E0FC
C078
ENDCHAR
STARTCHAR uni0426
ENCODING 1062
SWIDTH 890 0
DWIDTH 16 0
BBX 18 22 0 -6
BITMAP
1C0600
7E0E00
660E00
C60E00
8E0E00
0E0E00
0E0C00
0C1C00
0C1C00
1C1C00
1C3C00
1C3C00
1C7C00
1CDE40
1F8FC0
0F0780
001E00
003E00
006600
006E00
007C00
007800
ENDCHAR
STARTCHAR uni0427
ENCODING 1063
SWIDTH 773 0
DWIDTH 14 0
BBX 11 16 2 0
BITMAP
6060
6060
6060
6060
60E0
E0E0
E0E0
E1E0
E3C0
FFC0
7EC0
00C0
00C0
01C0
01C0
01C0
ENDCHAR
STARTCHAR uni0428
ENCODING 1064
SWIDTH 1272 0
DWIDTH 23 0
BBX 25 16 0 0
BITMAP
1C0C0C00
7E0E1C00
E60E1C00
C60C1C00
8E0C1C00
0E1C1800
0E1C3800
0C183800
0C183800
1C383800
1C387800
1C787800
1C58B880
1DDFBB80
1F9F3F00
0F0E1E00
ENDCHAR
STARTCHAR uni0429
ENCODING 1065
SWIDTH 1272 0
DWIDTH 23 0
BBX 25 22 0 -6
BITMAP
1C0C0C00
7E0E1C00
E60E1C00
C60C1C00
8E0C1C00
0E1C1800
0E1C3800
0C183800
0C183800
1C383800
1C387800
1C787800
1C58B800
1DDFBD80
1F9F1F00
0F0E0E00
00003C00
00007C00
0000CC00
0000D800
0000F800
0000F000
ENDCHAR
STARTCHAR uni042A
ENCODING 1066
SWIDTH 863 0
DWIDTH 16 0
BBX 13 16 2 0
BITMAP
0700
FF00
FE00
0C00
0C00
1FE0
1FF8
7838
7818
1818
3818
1838
1838
1C70
0FE0
07C0
ENDCHAR
STARTCHAR uni042B
ENCODING 1067
SWIDTH 1078 0
DWIDTH 19 0
BBX 19 16 0 0
BITMAP
0C00E0
1C00E0
1C00E0
1800E0
1800C0
1FE0C0
3FF0C0
7879C0
F039C0
3039C0
303980
303180
387180
38E180
1FE380
0F8180
ENDCHAR
STARTCHAR uni042C
ENCODING 1068
SWIDTH 721 0
DWIDTH 13 0
BBX 13 16 0 0
BITMAP
0C00
1C00
1C00
1800
1800
1FE0
3FF0
7878
F038
3038
3038
3030
3870
38E0
1FE0
0F80
ENDCHAR
STARTCHAR uni042D
ENCODING 1069
SWIDTH 755 0
DWIDTH 14 0
BBX 12 16 1 0
BITMAP
0F80
3FC0
70E0
4070
0070
0030
0030
1FF0
1FF0
0070
4070
C060
C0E0
E1C0
FF80
3E00
ENDCHAR
STARTCHAR uni042E
ENCODING 1070
SWIDTH 1246 0
DWIDTH 22 0
BBX 22 16 0 0
BITMAP
3C0EE0
7E1EF0
EE1E38
86361C
063C1C
0E7C1C
0E781C
0FF01C
3FF01C
3E701C
0C7018
1C7038
1C7038
1838F0
181FE0
180F80
ENDCHAR
STARTCHAR uni042F
ENCODING 1071
SWIDTH 850 0
DWIDTH 15 0
BBX 18 16 0 0
BITMAP
03FC00
07FC00
0E0C00
0C1C00
1C1C00
1C1C00
1C1C00
0E3800
0FF800
03F800
00F800
00D800
C198C0
C71980
7E1F80
3C0E00
ENDCHAR
STARTCHAR uni0430
ENCODING 1072
SWIDTH 470 0
DWIDTH 8 0
BBX 10 9 1 0
BITMAP
1800
7E00
6600
EE00
CC00
CCC0
DDC0
FF80
7700
ENDCHAR
STARTCHAR uni0431
ENCODING 1073
SWIDTH 473 0
DWIDTH 9 0
BBX 10 18 1 0
BITMAP
0200
0E00
3E00
7000
6000
3000
3800
1C00
0C00
3E00
7E00
EE00
CFC0
C7C0
CE00
CC00
FC00
7800
ENDCHAR
STARTCHAR uni0432
ENCODING 1074
SWIDTH 473 0
DWIDTH 9 0
BBX 10 18 1 0
BITMAP
1C00
1E00
3600
3600
6600
6400
6C00
E800
F800
DC00
FE00
EE00
CFC0
C7C0
C600
EE00
7C00
3800
ENDCHAR
STARTCHAR uni0433
ENCODING 1075
SWIDTH 380 0
DWIDTH 7 0
BBX 8 9 1 0
BITMAP
78
FC
9C
18
70
C1
C7
FE
7C
ENDCHAR
STARTCHAR uni0434
ENCODING 1076
SWIDTH 479 0
DWIDTH 9 0
BBX 11 18 0 -9
BITMAP
0C00
3F00
3300
7700
6600
6660
6FC0
7F80
3700
0E00
1C00
3C00
6C00
4C00
D800
D800
F000
6000
ENDCHAR
STARTCHAR uni0435
ENCODING 1077
SWIDTH 393 0
DWIDTH 7 0
BBX 8 9 1 0
BITMAP
38
7C
CC
CC
F8
F1
C7
FE
7C
ENDCHAR
STARTCHAR uni0436
ENCODING 1078
SWIDTH 717 0
DWIDTH 13 0
BBX 15 9 0 0
BITMAP
3B38
3F78
6FEC
0FC8
0FC0
6FC2
CBC6
FB7C
7338
ENDCHAR
STARTCHAR uni0437
ENCODING 1079
SWIDTH 435 0
DWIDTH 8 0
BBX 11 18 -1 -9
BITMAP
1E00
3F00
3300
0300
0700
1E60
38E0
3DC0
0F00
0E00
1E00
3600
6600
6C00
CC00
DC00
F800
7000
ENDCHAR
STARTCHAR uni0438
ENCODING 1080
SWIDTH 462 0
DWIDTH 8 0
BBX 10 9 1 0
BITMAP
6600
6600
CE00
CC00
CC00
DCC0
FD80
FF80
6E00
ENDCHAR
STARTCHAR uni0439
ENCODING 1081
SWIDTH 462 0
DWIDTH 8 0
BBX 10 15 1 0
BITMAP
0100
4300
6600
7E00
3C00
0000
6600
6600
CE00
CC00
CC00
DCC0
FD80
FF80
6E00
ENDCHAR
STARTCHAR uni043A
ENCODING 1082
SWIDTH 465 0
DWIDTH 8 0
BBX 10 9 1 0
BITMAP
6E00
FF00
DB00
FB00
F000
F0C0
F980
DF80
CF00
ENDCHAR
STARTCHAR uni043B
ENCODING 1083
SWIDTH 549 0
DWIDTH 10 0
BBX 12 9 0 0
BITMAP
0300
0700
0700
0F00
4F00
DF30
DB30
F3E0
61C0
ENDCHAR
STARTCHAR uni043C
ENCODING 1084
SWIDTH 734 0
DWIDTH 13 0
BBX 16 9 0 0
BITMAP
0630
0670
0E70
0EF0
4FF0
DBB3
DBB6
F33C
7318
ENDCHAR
STARTCHAR uni043D
ENCODING 1085
SWIDTH 475 0
DWIDTH 9 0
BBX 10 9 1 0
BITMAP
6600
E600
C600
FE00
FC40
CCC0
CDC0
CF80
C700
ENDCHAR
STARTCHAR uni043E
ENCODING 1086
SWIDTH 451 0
DWIDTH 8 0
BBX 10 9 1 0
BITMAP
3800
7C00
EE00
CFC0
CF80
C600
CC00
FC00
7800
ENDCHAR
STARTCHAR uni043F
ENCODING 1087
SWIDTH 496 0
DWIDTH 9 0
BBX 10 9 1 0
BITMAP
6600
EE00
DE00
F600
E600
E640
EEC0
CF80
C700
ENDCHAR
STARTCHAR uni0440
ENCODING 1088
SWIDTH 481 0
DWIDTH 9 0
BBX 13 18 -2 -9
BITMAP
1B80
1FC0
1CC0
18C0
18C0
19C8
3998
3FF0
7EE0
7800
5800
D800
D800
D800
9000
F000
F000
6000
ENDCHAR
STARTCHAR uni0441
ENCODING 1089
SWIDTH 368 0
DWIDTH 7 0
BBX 8 9 1 0
BITMAP
38
7C
EC
C8
C0
C3
C7
FE
78
ENDCHAR
STARTCHAR uni0442
ENCODING 1090
SWIDTH 744 0
DWIDTH 13 0
BBX 15 9 1 0
BITMAP
6670
EEF0
DFF0
F760
E760
E666
EE6C
CE7C
C670
ENDCHAR
STARTCHAR uni0443
ENCODING 1091
SWIDTH 479 0
DWIDTH 9 0
BBX 11 18 0 -9
BITMAP
3300
3300
6700
6600
6600
6E60
7FC0
7F80
3700
0E00
1C00
3C00
6C00
CC00
D800
D800
F000
6000
ENDCHAR
STARTCHAR uni0444
ENCODING 1092
SWIDTH 721 0
DWIDTH 13 0
BBX 14 21 1 -6
BITMAP
0300
0300
0300
0600
0600
0600
1EC0
7FE0
6660
CE60
CE60
CEE4
DCCC
FFF8
6F70
0C00
0C00
0C00
0C00
0C00
0C00
ENDCHAR
STARTCHAR uni0445
ENCODING 1093
SWIDTH 529 0
DWIDTH 10 0
BBX 12 9 0 0
BITMAP
39C0
7FC0
2EC0
0E00
4E10
6E30
CE70
FFE0
7380
ENDCHAR
STARTCHAR uni0446
ENCODING 1094
SWIDTH 501 0
DWIDTH 9 0
BBX 10 15 1 -6
BITMAP
6600
6600
CE00
CC00
CC00
DC00
FCC0
FF80
6700
0E00
3E00
2400
6C00
7800
3000
ENDCHAR
STARTCHAR uni0447
ENCODING 1095
SWIDTH 555 0
DWIDTH 10 0
BBX 12 11 0 0
BITMAP
0800
1C00
1FC0
1FC0
3380
3700
6610
6C10
CE70
8FE0
07C0
ENDCHAR
STARTCHAR uni0448
ENCODING 1096
SWIDTH 693 0
DWIDTH 12 0
BBX 14 9 1 0
BITMAP
6660
6660
CE60
CCE0
CCC0
DDCC
FFDC
FFF8
6670
ENDCHAR
STARTCHAR uni0449
ENCODING 1097
SWIDTH 732 0
DWIDTH 13 0
BBX 14 15 1 -6
BITMAP
6660
6660
CE60
CCC0
CCC0
DDC0
FFCC
FFFC
6670
00E0
01E0
0340
06C0
07C0
0380
ENDCHAR
STARTCHAR uni044A
ENCODING 1098
SWIDTH 542 0
DWIDTH 10 0
BBX 11 9 1 0
BITMAP
F800
3000
6E00
7E00
E720
E760
6760
7FC0
3F80
ENDCHAR
STARTCHAR uni044B
ENCODING 1099
SWIDTH 702 0
DWIDTH 13 0
BBX 14 9 1 0
BITMAP
6060
E060
FCE0
FFE0
E7C4
C7CC
E6CC
FCF8
7870
ENDCHAR
STARTCHAR uni044C
ENCODING 1100
SWIDTH 517 0
DWIDTH 9 0
BBX 11 9 1 0
BITMAP
6000
E000
FC00
FE00
E620
C660
E6C0
FF80
7F00
ENDCHAR
STARTCHAR uni044D
ENCODING 1101
SWIDTH 466 0
DWIDTH 8 0
BBX 10 9 1 0
BITMAP
7C00
FE00
0600
3FC0
BFC0
8600
CE00
FC00
7800
ENDCHAR
STARTCHAR uni044E
ENCODING 1102
SWIDTH 676 0
DWIDTH 12 0
BBX 14 9 1 0
BITMAP
6380
E7C0
CEE0
FCFC
FCF8
CC60
CCC0
CFC0
C780
ENDCHAR
STARTCHAR uni044F
ENCODING 1103
SWIDTH 543 0
DWIDTH 10 0
BBX 12 9 0 0
BITMAP
0F80
1F80
1980
1980
5F90
C710
CD30
F9E0
71C0
ENDCHAR
STARTCHAR uni0450
ENCODING 1104
SWIDTH 393 0
DWIDTH 7 0
BBX 8 16 1 0
BITMAP
60
60
60
30
30
10
00
38
7C
CC
CC
F8
F1
C7
FE
7C
ENDCHAR
STARTCHAR uni0451
ENCODING 1105
SWIDTH 393 0
DWIDTH 7 0
BBX 8 13 1 0
BITMAP
66
66
66
00
38
7C
CC
CC
F8
F1
C7
FE
7C
ENDCHAR
STARTCHAR uni0452
ENCODING 1106
SWIDTH 514 0
DWIDTH 9 0
BBX 10 25 1 -9
BITMAP
3000
3000
3000
FE00
FE00
6000
6000
6600
EE00
DE00
D600
F600
E6C0
E7C0
EF80
CE00
0C00
1C00
3C00
6C00
D800
9800
9800
F000
E000
ENDCHAR
STARTCHAR uni0453
ENCODING 1107
SWIDTH 380 0
DWIDTH 7 0
BBX 8 16 1 0
BITMAP
0C
0C
1C
18
10
30
00
78
FC
9C
18
70
C1
C7
FE
7C
ENDCHAR
STARTCHAR uni0454
ENCODING 1108
SWIDTH 379 0
DWIDTH 7 0
BBX 8 9 1 0
BITMAP
38
7C
CC
F0
F9
C3
E7
FE
78
ENDCHAR
STARTCHAR uni0455
ENCODING 1109
SWIDTH 427 0
DWIDTH 8 0
BBX 10 9 0 0
BITMAP
1C00
1800
1800
3C00
2C40
6EC0
DFC0
BF80
1F00
ENDCHAR
STARTCHAR uni0456
ENCODING 1110
SWIDTH 246 0
DWIDTH 4 0
BBX 6 13 1 0
BITMAP
70
70
70
00
60
E0
E0
C0
C0
CC
DC
F8
70
ENDCHAR
STARTCHAR uni0457
ENCODING 1111
SWIDTH 246 0
DWIDTH 4 0
BBX 7 13 0 0
BITMAP
CC
EC
CC
00
30
70
70
60
60
66
6E
7C
38
ENDCHAR
STARTCHAR uni0458
ENCODING 1112
SWIDTH 254 0
DWIDTH 5 0
BBX 11 22 -4 -9
BITMAP
0300
0780
0300
0000
0300
0700
0700
0600
0600
0660
06C0
0780
0700
0E00
1C00
3C00
6C00
4C00
D800
D800
F000
6000
ENDCHAR
STARTCHAR uni0459
ENCODING 1113
SWIDTH 794 0
DWIDTH 14 0
BBX 17 9 0 0
BITMAP
030000
070000
077000
0FF800
4F9880
DB1980
DB9B00
F1FE00
61FC00
ENDCHAR
STARTCHAR uni045A
ENCODING 1114
SWIDTH 751 0
DWIDTH 14 0
BBX 15 9 1 0
BITMAP
6600
E600
C7E0
FFE0
FE62
CC66
CE6E
C7FC
C3F8
ENDCHAR
STARTCHAR uni045B
ENCODING 1115
SWIDTH 502 0
DWIDTH 9 0
BBX 10 16 1 0
BITMAP
3000
3000
3000
FE00
FE00
6000
6000
6600
EE00
DE00
D600
F600
E640
EEC0
E780
C700
ENDCHAR
STARTCHAR uni045C
ENCODING 1116
SWIDTH 465 0
DWIDTH 8 0
BBX 10 16 1 0
BITMAP
0200
0700
0600
0C00
0C00
0800
0000
6E00
FF00
DB00
FB00
F000
F0C0
F980
DF80
CF00
ENDCHAR
STARTCHAR uni045D
ENCODING 1117
SWIDTH 462 0
DWIDTH 8 0
BBX 10 16 1 0
BITMAP
6000
6000
3000
3000
1800
0800
0000
6600
6600
CE00
CC00
CC00
DCC0
FD80
FF80
6E00
ENDCHAR
STARTCHAR uni045E
ENCODING 1118
SWIDTH 479 0
DWIDTH 9 0
BBX 11 24 0 -9
BITMAP
0080
2180
3300
3F00
1E00
0000
3300
3300
6700
6600
6600
6E60
7FC0
7F80
3700
0E00
1C00
3C00
6C00
CC00
D800
D800
F000
6000
ENDCHAR
STARTCHAR uni045F
ENCODING 1119
SWIDTH 600 0
DWIDTH 11 0
BBX 10 11 1 -2
BITMAP
6600
6600
CE00
CC00
CC00
DCC0
FD80
FF80
6E00
6000
4000
ENDCHAR
STARTCHAR uni0462
ENCODING 1122
SWIDTH 721 0
DWIDTH 13 0
BBX 13 16 0 0
BITMAP
0C00
1C00
7F00
7F00
1800
1FE0
3FF0
7878
F038
3038
3038
3030
3870
38E0
1FE0
0F80
ENDCHAR
STARTCHAR uni0463
ENCODING 1123
SWIDTH 517 0
DWIDTH 9 0
BBX 12 13 0 0
BITMAP
1000
3800
3000
FC00
FC00
7000
6E00
7F00
7310
6330
7360
3FC0
3F80
ENDCHAR
STARTCHAR uni046A
ENCODING 1130
SWIDTH 1234 0
DWIDTH 22 0
BBX 24 16 0 0
BITMAP
0FFFFE
1FFFFC
038070
018060
01C0E0
00C0E0
00C1C0
007F80
00FF00
01DB80
0399C0
0319C0
4718E1
EE38E3
7C387E
38383C
ENDCHAR
STARTCHAR uni046B
ENCODING 1131
SWIDTH 788 0
DWIDTH 14 0
BBX 17 16 0 0
BITMAP
007000
007000
00F000
00E000
00E000
01A000
01A000
0FEC00
0F7C00
037000
036000
076000
67E180
CFF300
FBBF00
719C00
ENDCHAR
STARTCHAR uni0472
ENCODING 1138
SWIDTH 816 0
DWIDTH 15 0
BBX 13 16 1 0
BITMAP
07C0
1FF0
3C70
3038
7038
6018
FE18
FFF8
E1F8
E038
E038
E030
7070
70E0
3FC0
1F00
ENDCHAR
STARTCHAR uni0473
ENCODING 1139
SWIDTH 451 0
DWIDTH 8 0
BBX 10 9 1 0
BITMAP
3800
7C00
EE00
C680
FFC0
FF80
CC00
FC00
7800
ENDCHAR
STARTCHAR uni0474
ENCODING 1140
SWIDTH 797 0
DWIDTH 14 0
BBX 16 16 2 0
BITMAP
603E
603F
6032
E070
E070
E070
E060
E0E0
E0E0
E0C0
E1C0
6180
7380
7F00
3E00
1C00
ENDCHAR
STARTCHAR uni0475
ENCODING 1141
SWIDTH 420 0
DWIDTH 8 0
BBX 9 9 1 0
BITMAP
C780
C780
CE00
CC00
DC00
D800
F800
F000
6000
ENDCHAR
STARTCHAR uni048A
ENCODING 1162
SWIDTH 890 0
DWIDTH 16 0
BBX 18 26 0 -4
BITMAP
010C00
019800
01F800
00F000
000000
000000
1C0600
7E0E00
E60E00
C60E00
8E0E00
0E0E00
0E0C00
0C1C00
0C1C00
1C1C00
1C3C00
1C3C00
1C7C40
1DDDC0
1F9F80
0F0F00
000700
000600
000C00
000C00
ENDCHAR
STARTCHAR uni048B
ENCODING 1163
SWIDTH 462 0
DWIDTH 8 0
BBX 10 18 1 -3
BITMAP
0100
6300
6600
7E00
3C00
0000
6600
6600
CE00
CC00
CC00
DCC0
FD80
FF80
6F00
0600
0C00
0C00
ENDCHAR
STARTCHAR uni048C
ENCODING 1164
SWIDTH 721 0
DWIDTH 13 0
BBX 13 16 0 0
BITMAP
0C00
1C00
7F00
7F00
1800
1FE0
3FF0
7878
F038
3038
3038
3030
3870
38E0
1FE0
0F80
ENDCHAR
STARTCHAR uni048D
ENCODING 1165
SWIDTH 517 0
DWIDTH 9 0
BBX 12 13 0 0
BITMAP
1000
3800
3000
FC00
FC00
7000
6E00
7F00
7310
6330
7360
3FC0
3F80
ENDCHAR
STARTCHAR uni048E
ENCODING 1166
SWIDTH 805 0
DWIDTH 14 0
BBX 15 18 1 -2
BITMAP
03E0
0FF8
1C38
301C
731C
671C
677C
C71E
C77E
DFF0
DFC0
CE00
CE00
CE00
CE00
EC00
7C00
3C00
ENDCHAR
STARTCHAR uni048F
ENCODING 1167
SWIDTH 481 0
DWIDTH 9 0
BBX 13 18 -2 -9
BITMAP
1B80
1FC0
1CC0
18C0
18C0
1BC8
1B98
3FF0
3EE0
7800
5800
D800
D800
D800
9000
F000
F000
6000
ENDCHAR
STARTCHAR uni0490
ENCODING 1168
SWIDTH 645 0
DWIDTH 12 0
BBX 15 21 1 0
BITMAP
0006
0006
0006
0006
0006
1FFE
7FFC
E600
C600
CE00
CE00
CE00
0C00
0C00
1C00
1C00
1C00
1C00
1C00
1800
1800
ENDCHAR
STARTCHAR uni0491
ENCODING 1169
SWIDTH 394 0
DWIDTH 7 0
BBX 7 12 1 0
BITMAP
06
06
06
7C
FC
C0
C0
C0
C0
C0
C0
C0
ENDCHAR
STARTCHAR uni0492
ENCODING 1170
SWIDTH 635 0
DWIDTH 11 0
BBX 14 16 1 0
BITMAP
1FFC
7FFC
E600
C600
CE00
CE00
4E00
3F80
3F80
0C00
1C00
1C00
1C00
1C00
1800
1800
ENDCHAR
STARTCHAR uni0493
ENCODING 1171
SWIDTH 380 0
DWIDTH 7 0
BBX 9 9 0 0
BITMAP
3C00
7E00
4E00
0C00
F800
7C80
6380
7F00
3E00
ENDCHAR
STARTCHAR uni0494
ENCODING 1172
SWIDTH 884 0
DWIDTH 16 0
BBX 17 25 1 -9
BITMAP
1FFC00
7FFC00
E60000
C60000
CE0000
CE0000
CE0000
0CF800
0DF800
1F1C00
1E1C00
1C1C80
1C1F80
1C1F00
181E00
181C00
007800
00F800
01F800
01B000
033000
037000
036000
03C000
038000
ENDCHAR
STARTCHAR uni0495
ENCODING 1173
SWIDTH 441 0
DWIDTH 8 0
BBX 9 15 1 -6
BITMAP
7800
FC00
9C00
1800
7000
C000
C580
FF00
FE00
3C00
6800
5800
D800
F000
6000
ENDCHAR
STARTCHAR uni0496
ENCODING 1174
SWIDTH 1234 0
DWIDTH 22 0
BBX 24 22 0 -6
BITMAP
0F0C1E
1F0E3F
138C36
018C60
01CC60
01CCE0
00DDC0
007F80
00FF00
01DB80
0399C0
0319C0
4738E0
EE38FB
7C387F
38383C
000078
0000F8
0001D8
0001B8
0001F0
0000E0
ENDCHAR
STARTCHAR uni0497
ENCODING 1175
SWIDTH 803 0
DWIDTH 14 0
BBX 16 15 0 -6
BITMAP
3B38
3F78
6FEC
0FC8
0FC0
6FC0
CBCB
FB7F
733C
0038
0078
00D8
00B0
00F0
00E0
ENDCHAR
STARTCHAR uni0498
ENCODING 1176
SWIDTH 725 0
DWIDTH 13 0
BBX 11 22 1 -6
BITMAP
0F80
3FC0
38E0
70E0
70E0
20C0
01C0
0FC0
0EE0
0060
C060
C060
E0E0
E1C0
7F80
3F00
0F00
1B00
3300
3700
3E00
1C00
ENDCHAR
STARTCHAR uni0499
ENCODING 1177
SWIDTH 445 0
DWIDTH 8 0
BBX 9 15 1 -6
BITMAP
7C00
FC00
CC00
0C00
3800
0C80
8F80
FF00
FE00
1800
6800
5800
D800
F000
7000
ENDCHAR
STARTCHAR uni049A
ENCODING 1178
SWIDTH 937 0
DWIDTH 17 0
BBX 19 22 0 -6
BITMAP
0FC180
3FE180
31C380
61C300
618700
318E00
019C00
07F800
07F000
03B800
03B800
431C00
C31C20
670F60
7E0FC0
3C0780
000F00
001B00
003300
003600
003E00
003C00
ENDCHAR
STARTCHAR uni049B
ENCODING 1179
SWIDTH 531 0
DWIDTH 10 0
BBX 10 15 1 -6
BITMAP
6E00
FF00
DB00
FB00
F000
F000
F840
DFC0
CF80
0E00
1E00
3600
3400
3C00
3800
ENDCHAR
STARTCHAR uni049C
ENCODING 1180
SWIDTH 937 0
DWIDTH 17 0
BBX 19 16 0 0
BITMAP
0FC180
3FE180
31C380
61C300
61A700
31BE00
01BC00
07F800
07F000
03F800
03F800
437C20
C37C20
674E60
7E0FC0
3C0780
ENDCHAR
STARTCHAR uni049D
ENCODING 1181
SWIDTH 485 0
DWIDTH 9 0
BBX 10 9 1 0
BITMAP
6700
EF00
E900
FB00
F840
F8C0
F8C0
FF80
CF00
ENDCHAR
STARTCHAR uni049E
ENCODING 1182
SWIDTH 937 0
DWIDTH 17 0
BBX 19 16 0 0
BITMAP
0FC180
3FE180
31C380
61C300
67E700
77EE00
219C00
07F800
07F000
03B800
03B800
431C20
C31C20
670E60
7E0FC0
3C0780
ENDCHAR
STARTCHAR uni049F
ENCODING 1183
SWIDTH 473 0
DWIDTH 9 0
BBX 10 16 1 0
BITMAP
3000
3000
3000
FE00
FE00
6000
6000
6700
EF00
DB00
DB00
F000
F8C0
F9C0
FF80
CF00
ENDCHAR
STARTCHAR uni04A0
ENCODING 1184
SWIDTH 937 0
DWIDTH 17 0
BBX 19 16 0 0
BITMAP
004180
3FE180
3FC380
01C300
018700
018E00
019C00
07F800
07F000
03B800
03B800
431C20
C31C20
670E60
7E0FC0
3C0780
ENDCHAR
STARTCHAR uni04A1
ENCODING 1185
SWIDTH 555 0
DWIDTH 10 0
BBX 11 9 1 0
BITMAP
F380
F7C0
3EC0
3C80
3C00
3C20
3C60
37C0
3380
ENDCHAR
STARTCHAR uni04A2
ENCODING 1186
SWIDTH 907 0
DWIDTH 16 0
BBX 19 23 0 -6
BITMAP
000300
1C0780
7E0C80
CE0C80
861D80
861980
0E1900
0E1F00
0E3C00
3FF800
3FF800
0C3800
1C3800
1C3800
183C60
181FC0
180F80
000F00
003E00
007600
006600
007C00
003800
ENDCHAR
STARTCHAR uni04A3
ENCODING 1187
SWIDTH 515 0
DWIDTH 9 0
BBX 10 15 1 -6
BITMAP
6600
E600
C600
FE00
FC00
CC40
CEC0
CF80
C700
0E00
1E00
3400
2C00
7C00
3800
ENDCHAR
STARTCHAR uni04A4
ENCODING 1188
SWIDTH 873 0
DWIDTH 16 0
BBX 20 17 0 0
BITMAP
0003E0
1C07F0
7E0E20
CE0C00
861C00
861800
0E1800
0E1800
0E3800
3FF800
3FF800
0C3800
1C3800
1C3840
1838C0
181F80
180F00
ENDCHAR
STARTCHAR uni04A5
ENCODING 1189
SWIDTH 475 0
DWIDTH 9 0
BBX 10 10 1 0
BITMAP
0100
6780
E600
C600
FE00
FC40
CCC0
CDC0
CF80
C700
ENDCHAR
STARTCHAR uni04A8
ENCODING 1192
SWIDTH 997 0
DWIDTH 18 0
BBX 19 16 1 0
BITMAP
070000
1F3C00
3C7F00
38E700
71C380
618380
E38380
E38180
E38380
E38380
E18300
E1C700
71CE20
78FCE0
3FFFE0
0FDF00
ENDCHAR
STARTCHAR uni04A9
ENCODING 1193
SWIDTH 574 0
DWIDTH 10 0
BBX 12 9 1 0
BITMAP
3000
7700
CF80
CD80
C980
C9B0
CF60
FFE0
7F80
ENDCHAR
STARTCHAR uni04AA
ENCODING 1194
SWIDTH 781 0
DWIDTH 14 0
BBX 15 25 1 -9
BITMAP
07C0
1FE0
3C60
3870
7070
6060
E000
E000
E000
E000
E000
E000
7032
787E
3FFC
0FF0
00E0
01E0
0360
02C0
06C0
04C0
0D80
0F80
0700
ENDCHAR
STARTCHAR uni04AB
ENCODING 1195
SWIDTH 431 0
DWIDTH 8 0
BBX 9 15 1 -6
BITMAP
3800
7C00
EC00
C800
C000
C000
C580
FF00
7E00
3800
6800
D800
D800
F000
E000
ENDCHAR
STARTCHAR uni04AC
ENCODING 1196
SWIDTH 697 0
DWIDTH 13 0
BBX 15 22 1 -6
BITMAP
1FFE
7FFE
E380
C380
C300
C300
8300
0700
0700
0700
0700
0600
0600
0600
0F80
0780
0F00
1B00
3B00
3300
3E00
1C00
ENDCHAR
STARTCHAR uni04AD
ENCODING 1197
SWIDTH 784 0
DWIDTH 14 0
BBX 15 15 1 -6
BITMAP
6670
EEF0
DFF0
F760
E760
E660
EE66
CE7C
C638
0070
00F0
0120
0360
03E0
01C0
ENDCHAR
STARTCHAR uni04AE
ENCODING 1198
SWIDTH 677 0
DWIDTH 12 0
BBX 11 16 2 0
BITMAP
E060
60E0
70C0
71C0
3180
3B80
1F00
1E00
1E00
0C00
0C00
0C00
0C00
0C00
0C00
0C00
ENDCHAR
STARTCHAR uni04AF
ENCODING 1199
SWIDTH 472 0
DWIDTH 9 0
BBX 10 15 1 -6
BITMAP
C600
CE00
CE00
CE00
CFC0
EF80
7800
7800
7000
6000
6000
6000
6000
6000
6000
ENDCHAR
STARTCHAR uni04B0
ENCODING 1200
SWIDTH 677 0
DWIDTH 12 0
BBX 11 16 2 0
BITMAP
E060
60E0
70C0
71C0
3B80
3B00
1F00
1E00
0E00
3F80
7F00
0C00
0C00
0C00
0C00
0C00
ENDCHAR
STARTCHAR uni04B1
ENCODING 1201
SWIDTH 472 0
DWIDTH 9 0
BBX 11 15 0 -6
BITMAP
6300
6700
6700
6700
77E0
77C0
3C00
3C00
3800
FC00
FC00
3000
3000
3000
3000
ENDCHAR
STARTCHAR uni04B2
ENCODING 1202
SWIDTH 716 0
DWIDTH 13 0
BBX 15 22 0 -6
BITMAP
3C1C
7E1C
CE38
8770
07E0
03C0
0380
0380
0780
0F80
1DC0
39C0
38C0
70F6
E0FE
C078
00F0
01F0
0330
0360
03E0
03C0
ENDCHAR
STARTCHAR uni04B3
ENCODING 1203
SWIDTH 601 0
DWIDTH 11 0
BBX 13 15 0 -6
BITMAP
39C0
7FC0
2EC0
0E00
0E00
6E00
CE18
FFF0
77E0
01C0
0680
0D80
0D80
0F00
0600
ENDCHAR
STARTCHAR uni04B4
ENCODING 1204
SWIDTH 1040 0
DWIDTH 19 0
BBX 20 22 1 -6
BITMAP
1FF300
7FFB80
E18380
C38380
C38300
C30300
C30700
070700
070700
070F00
060F00
060E00
061600
0637B0
07E7F0
03C1C0
000780
000D80
001B80
003B00
003F00
001E00
ENDCHAR
STARTCHAR uni04B5
ENCODING 1205
SWIDTH 501 0
DWIDTH 9 0
BBX 10 19 1 -6
BITMAP
3F00
3E00
0000
0000
6600
6600
CE00
CC00
CC00
DC00
FCC0
FF80
6700
0E00
3E00
2400
6C00
7800
3000
ENDCHAR
STARTCHAR uni04B6
ENCODING 1206
SWIDTH 804 0
DWIDTH 14 0
BBX 15 22 2 -6
BITMAP
6060
6060
6060
6060
60E0
E0E0
E0E0
E1E0
E3C0
FFC0
7EC0
00C0
00C0
00F6
00FC
0078
00F0
03A0
0760
0660
07C0
0380
ENDCHAR
STARTCHAR uni04B7
ENCODING 1207
SWIDTH 631 0
DWIDTH 11 0
BBX 13 17 0 -6
BITMAP
0800
1C00
1FC0
1FC0
3180
3700
6600
6E08
CE58
8FF8
07E0
01C0
03C0
06C0
0580
0780
0700
ENDCHAR
STARTCHAR uni04B8
ENCODING 1208
SWIDTH 773 0
DWIDTH 14 0
BBX 11 16 2 0
BITMAP
6060
6060
6060
6060
60E0
ECE0
ECE0
EDE0
EDC0
FFC0
7EC0
3CC0
08C0
09C0
01C0
01C0
ENDCHAR
STARTCHAR uni04B9
ENCODING 1209
SWIDTH 575 0
DWIDTH 10 0
BBX 13 11 0 0
BITMAP
0100
0F00
1EE0
1FC0
1580
3300
2608
6618
C670
87E0
03C0
ENDCHAR
STARTCHAR uni04BA
ENCODING 1210
SWIDTH 755 0
DWIDTH 14 0
BBX 15 16 1 0
BITMAP
1800
3800
3800
3800
3000
3000
3000
73C0
7FE0
7C60
7060
7060
6062
60E6
E0FC
6078
ENDCHAR
STARTCHAR uni04BB
ENCODING 1211
SWIDTH 502 0
DWIDTH 9 0
BBX 10 18 1 0
BITMAP
0C00
1E00
3600
3600
6600
6400
6C00
6800
F800
F600
EE00
DE00
D600
F600
E640
EEC0
E780
C700
ENDCHAR
STARTCHAR uni04BC
ENCODING 1212
SWIDTH 808 0
DWIDTH 15 0
BBX 16 16 1 0
BITMAP
01F0
03F8
071C
0E1C
1C1C
1C1C
D81C
FFF8
FFF8
3800
3800
1800
1C00
0E07
07FE
03F8
ENDCHAR
STARTCHAR uni04BD
ENCODING 1213
SWIDTH 483 0
DWIDTH 9 0
BBX 11 9 0 0
BITMAP
0F00
1F00
1980
3B00
F700
FE60
38E0
1FC0
0F00
ENDCHAR
STARTCHAR uni04BE
ENCODING 1214
SWIDTH 808 0
DWIDTH 15 0
BBX 16 21 1 -5
BITMAP
01F0
03F8
071C
0E1C
1C1C
1C1C
D81C
FFF8
FFF8
3800
3800
1800
1C00
0E07
0FFE
03F8
0600
0600
0600
07C0
0380
ENDCHAR
STARTCHAR uni04BF
ENCODING 1215
SWIDTH 483 0
DWIDTH 9 0
BBX 11 14 0 -5
BITMAP
0F00
1F00
1980
3900
F300
FE20
3860
1FC0
0F80
0600
0C00
0C00
0780
0780
ENDCHAR
STARTCHAR uni04C0
ENCODING 1216
SWIDTH 495 0
DWIDTH 9 0
BBX 10 16 0 0
BITMAP
3FC0
3FC0
0E00
0E00
0E00
0E00
0C00
0C00
0C00
1C00
1C00
1C00
1800
1800
FF00
FF00
ENDCHAR
STARTCHAR uni04C1
ENCODING 1217
SWIDTH 1234 0
DWIDTH 22 0
BBX 24 21 0 0
BITMAP
001080
001980
001F80
000F00
000000
0F0C1E
1F0E3F
138C36
018C60
01CC60
01CCE0
00DDC0
007F80
00FF00
01DB80
0399C0
0319C0
4718E1
EE38E3
7C387E
38383C
ENDCHAR
STARTCHAR uni04C2
ENCODING 1218
SWIDTH 717 0
DWIDTH 13 0
BBX 15 15 0 0
BITMAP
0020
0420
0E60
07C0
0780
0000
3B38
3F78
6FEC
0FC8
0FC0
6FC2
CBC6
FB7C
7338
ENDCHAR
STARTCHAR uni04C3
ENCODING 1219
SWIDTH 937 0
DWIDTH 17 0
BBX 19 22 0 -6
BITMAP
0FC180
3FE180
31C380
61C300
618700
318E00
019C00
07F800
07F000
03B800
03B800
431C00
C31C20
670F60
7E0FC0
3C0780
000F00
001B00
003300
003600
003E00
003C00
ENDCHAR
STARTCHAR uni04C4
ENCODING 1220
SWIDTH 531 0
DWIDTH 10 0
BBX 10 15 1 -6
BITMAP
6E00
FF00
DB00
FB00
F000
F000
F840
DFC0
CF80
0E00
1E00
3600
3400
3C00
3800
ENDCHAR
STARTCHAR uni04C5
ENCODING 1221
SWIDTH 861 0
DWIDTH 16 0
BBX 18 20 0 -4
BITMAP
003800
003800
007800
007800
007800
00F800
00F800
00F800
01F800
01B800
01B800
03B800
C718C0
E61DC0
7E1F80
380F00
000600
000C00
001C00
001800
ENDCHAR
STARTCHAR uni04C6
ENCODING 1222
SWIDTH 549 0
DWIDTH 10 0
BBX 12 12 0 -3
BITMAP
0300
0700
0700
0F00
4F00
DF10
DB30
F3E0
71C0
0180
0300
0300
ENDCHAR
STARTCHAR uni04C7
ENCODING 1223
SWIDTH 907 0
DWIDTH 16 0
BBX 19 23 0 -6
BITMAP
000300
1C0780
7E0C80
CE0C80
861D80
861980
0E1900
0E1F00
0E3C00
3FF800
3FF800
0C3800
1C3800
1C3800
183C60
181FC0
180F80
000F00
003E00
007600
006600
007C00
003800
ENDCHAR
STARTCHAR uni04C8
ENCODING 1224
SWIDTH 515 0
DWIDTH 9 0
BBX 10 15 1 -6
BITMAP
6600
E600
C600
FE00
FC00
CC40
CEC0
CF80
C700
0E00
1E00
3400
2C00
7C00
3800
ENDCHAR
STARTCHAR uni04C9
ENCODING 1225
SWIDTH 873 0
DWIDTH 16 0
BBX 18 21 0 -4
BITMAP
000300
1C0780
7E0C80
CE0C80
861D80
861980
0E1900
0E1F00
0E3C00
3FF800
3FF800
0C3800
1C3800
1C3840
1838C0
181F80
180F00
000600
000E00
000C00
001800
ENDCHAR
STARTCHAR uni04CA
ENCODING 1226
SWIDTH 475 0
DWIDTH 9 0
BBX 10 12 1 -3
BITMAP
6600
E600
C600
FE00
FC40
CCC0
CDC0
CF80
C700
0600
0C00
0C00
ENDCHAR
STARTCHAR uni04CB
ENCODING 1227
SWIDTH 773 0
DWIDTH 14 0
BBX 11 22 2 -6
BITMAP
6060
6060
6060
6060
60E0
E0E0
E0E0
E1E0
E3C0
FFC0
7EC0
00C0
00C0
01C0
03C0
07C0
0F00
3B00
3600
7600
7E00
3C00
ENDCHAR
STARTCHAR uni04CC
ENCODING 1228
SWIDTH 555 0
DWIDTH 10 0
BBX 12 13 0 -2
BITMAP
0800
1C00
1FC0
1FC0
3380
3700
6610
6C10
CE70
8FE0
07C0
00C0
00C0
ENDCHAR
STARTCHAR uni04CD
ENCODING 1229
SWIDTH 1133 0
DWIDTH 20 0
BBX 23 20 0 -4
BITMAP
00E0C0
00E1C0
00E1C0
01E3C0
01E3C0
01E6C0
01E6C0
01E7C0
036DC0
036DC0
036DC0
0779C0
C678C6
EE38CE
7C30FC
383078
000070
000060
0000E0
0000C0
ENDCHAR
STARTCHAR uni04CE
ENCODING 1230
SWIDTH 734 0
DWIDTH 13 0
BBX 16 12 0 -3
BITMAP
0630
0670
0E70
0EF0
4FF0
DBB3
DBB6
F33C
7318
0018
0030
0060
ENDCHAR
STARTCHAR uni04CF
ENCODING 1231
SWIDTH 222 0
DWIDTH 4 0
BBX 4 16 1 0
BITMAP
10
30
30
70
60
60
60
60
E0
E0
C0
C0
C0
C0
C0
C0
ENDCHAR
STARTCHAR uni04D0
ENCODING 1232
SWIDTH 786 0
DWIDTH 14 0
BBX 15 21 1 0
BITMAP
010C
018C
01F8
00F0
0000
01FC
07FC
1F08
3C30
3830
7070
6070
E060
E060
E0E0
E0E0
E0E0
E1E2
73E6
7E7C
3C38
ENDCHAR
STARTCHAR uni04D1
ENCODING 1233
SWIDTH 470 0
DWIDTH 8 0
BBX 10 15 1 0
BITMAP
0100
2300
6300
7E00
3C00
0000
1800
7E00
6600
EE00
CC00
CCC0
DDC0
FF80
7700
ENDCHAR
STARTCHAR uni04D2
ENCODING 1234
SWIDTH 786 0
DWIDTH 14 0
BBX 15 20 1 0
BITMAP
0198
01B8
0198
0000
01FC
07FC
1F08
3C30
3830
7070
6070
E060
E060
E0E0
E0E0
E0E0
E1E2
73E6
7E7C
3C38
ENDCHAR
STARTCHAR uni04D3
ENCODING 1235
SWIDTH 470 0
DWIDTH 8 0
BBX 10 13 1 0
BITMAP
3300
3700
3700
0000
1800
7E00
6600
EE00
CC00
CCC0
DDC0
FF80
7700
ENDCHAR
STARTCHAR uni04D4
ENCODING 1236
SWIDTH 1015 0
DWIDTH 18 0
BBX 20 16 1 0
BITMAP
03DFC0
0FDFC0
1F3800
3C3000
383000
707000
607000
E07F80
E07F80
E0E000
E0E000
E0E000
E1F020
73F070
7F3FE0
3E1F80
ENDCHAR
STARTCHAR uni04D5
ENCODING 1237
SWIDTH 653 0
DWIDTH 12 0
BBX 13 9 1 0
BITMAP
1DC0
7FE0
E660
CE40
CDC0
CF08
CE38
FFF0
73C0
ENDCHAR
STARTCHAR uni04D6
ENCODING 1238
SWIDTH 686 0
DWIDTH 12 0
BBX 14 21 1 0
BITMAP
0420
0660
07E0
03C0
0000
0FC0
1FE0
3870
7070
7070
3820
1F00
3F00
7000
E000
C000
C000
E008
F03C
7FF8
1FE0
ENDCHAR
STARTCHAR uni04D7
ENCODING 1239
SWIDTH 393 0
DWIDTH 7 0
BBX 8 15 1 0
BITMAP
02
42
C6
7C
78
00
38
7C
CC
CC
F8
F1
C7
FE
7C
ENDCHAR
STARTCHAR uni04D8
ENCODING 1240
SWIDTH 792 0
DWIDTH 14 0
BBX 13 16 1 0
BITMAP
0FC0
3FE0
38F0
6030
0038
0038
0038
7FF8
FFF8
E038
E030
E070
6060
71E0
3FC0
1F00
ENDCHAR
STARTCHAR uni04D9
ENCODING 1241
SWIDTH 455 0
DWIDTH 8 0
BBX 11 9 0 0
BITMAP
3C00
7E00
0700
7FE0
7FC0
C300
E700
7E00
3C00
ENDCHAR
STARTCHAR uni04DA
ENCODING 1242
SWIDTH 792 0
DWIDTH 14 0
BBX 13 20 1 0
BITMAP
0EC0
0EE0
0EC0
0000
0FC0
3FE0
38F0
6030
0038
0038
0038
7FF8
FFF8
E038
E030
E070
6060
71E0
3FC0
1F00
ENDCHAR
STARTCHAR uni04DB
ENCODING 1243
SWIDTH 455 0
DWIDTH 8 0
BBX 11 13 0 0
BITMAP
3300
3700
3300
0000
3C00
7E00
0700
7FE0
7FC0
C300
E700
7E00
3C00
ENDCHAR
STARTCHAR uni04DC
ENCODING 1244
SWIDTH 1234 0
DWIDTH 22 0
BBX 24 20 0 0
BITMAP
001980
003B80
001B80
000000
0F0C1E
1F0E3F
138C36
018C60
01CC60
01CCE0
00DDC0
007F80
00FF00
01DB80
0399C0
0319C0
4718E1
EE38E3
7C387E
38383C
ENDCHAR
STARTCHAR uni04DD
ENCODING 1245
SWIDTH 717 0
DWIDTH 13 0
BBX 15 13 0 0
BITMAP
0660
0660
0660
0000
3B38
3F78
6FEC
0FC8
0FC0
6FC2
CBC6
FB7C
7338
ENDCHAR
STARTCHAR uni04DE
ENCODING 1246
SWIDTH 725 0
DWIDTH 13 0
BBX 11 20 1 0
BITMAP
0EC0
0EE0
0CC0
0000
0F80
3FC0
38E0
70E0
70E0
20C0
01C0
0FC0
0EE0
0060
C060
C060
E0E0
E1C0
7F80
3F00
ENDCHAR
STARTCHAR uni04DF
ENCODING 1247
SWIDTH 435 0
DWIDTH 8 0
BBX 11 22 -1 -9
BITMAP
1B00
3B80
3300
0000
1E00
3F00
3300
0300
0700
1E60
38E0
3DC0
0F00
0E00
1E00
3600
6600
6C00
CC00
DC00
F800
7000
ENDCHAR
STARTCHAR uni04E0
ENCODING 1248
SWIDTH 744 0
DWIDTH 13 0
BBX 13 16 1 0
BITMAP
0FE0
3FF8
3078
7060
30E0
30C0
01C0
0FC0
0EE0
0060
C060
C060
E0E0
E1C0
7F80
3F00
ENDCHAR
STARTCHAR uni04E1
ENCODING 1249
SWIDTH 435 0
DWIDTH 8 0
BBX 11 18 -1 -9
BITMAP
3F80
3F80
0780
0E00
1800
3860
31C0
3F80
0F00
0E00
1E00
3600
6600
4C00
CC00
D800
F800
7000
ENDCHAR
STARTCHAR uni04E2
ENCODING 1250
SWIDTH 890 0
DWIDTH 16 0
BBX 18 19 0 0
BITMAP
01F800
01F000
000000
1C0600
7E0E00
660E00
C60E00
8E0E00
0E0E00
0E0C00
0C1C00
0C1C00
1C1C00
1C3C00
1C3C00
1C7C40
1DDDC0
1F9F80
0F0F00
ENDCHAR
STARTCHAR uni04E3
ENCODING 1251
SWIDTH 462 0
DWIDTH 8 0
BBX 10 12 1 0
BITMAP
3E00
7E00
0000
6600
6600
CE00
CC00
CC00
DCC0
FD80
FF80
6E00
ENDCHAR
STARTCHAR uni04E4
ENCODING 1252
SWIDTH 890 0
DWIDTH 16 0
BBX 18 20 0 0
BITMAP
019800
01B800
019800
000000
1C0600
7E0E00
660E00
C60E00
8E0E00
0E0E00
0E0C00
0C1C00
0C1C00
1C1C00
1C3C00
1C3C00
1C7C40
1DDDC0
1F9F80
0F0F00
ENDCHAR
STARTCHAR uni04E5
ENCODING 1253
SWIDTH 462 0
DWIDTH 8 0
BBX 10 13 1 0
BITMAP
3600
7700
7600
0000
6600
6600
CE00
CC00
CC00
DCC0
FD80
FF80
6E00
ENDCHAR
STARTCHAR uni04E6
ENCODING 1254
SWIDTH 816 0
DWIDTH 15 0
BBX 13 20 1 0
BITMAP
0660
0760
0660
0000
07C0
1FF0
3C70
3838
7038
6018
E018
E018
E018
E038
E038
E030
7070
70E0
3FC0
1F00
ENDCHAR
STARTCHAR uni04E7
ENCODING 1255
SWIDTH 451 0
DWIDTH 8 0
BBX 10 13 1 0
BITMAP
6600
6E00
6600
0000
3800
7C00
EE00
CFC0
CF80
C600
CC00
FC00
7800
ENDCHAR
STARTCHAR uni04E8
ENCODING 1256
SWIDTH 816 0
DWIDTH 15 0
BBX 13 16 1 0
BITMAP
07C0
1FF0
3C70
3838
7038
6018
E018
FFF8
FFF8
E038
E038
E030
7070
70E0
3FC0
1F00
ENDCHAR
STARTCHAR uni04E9
ENCODING 1257
SWIDTH 451 0
DWIDTH 8 0
BBX 10 9 1 0
BITMAP
3800
7C00
C600
FFC0
FF80
CE00
CC00
FC00
7800
ENDCHAR
STARTCHAR uni04EA
ENCODING 1258
SWIDTH 816 0
DWIDTH 15 0
BBX 13 20 1 0
BITMAP
0660
0760
0660
0000
07C0
1FF0
3C70
3838
7038
6018
E018
FFF8
FFF8
E038
E038
E030
7070
70E0
3FC0
1F00
ENDCHAR
STARTCHAR uni04EB
ENCODING 1259
SWIDTH 451 0
DWIDTH 8 0
BBX 10 13 1 0
BITMAP
6600
6E00
6600
0000
3800
7C00
C600
FFC0
FF80
CE00
CC00
FC00
7800
ENDCHAR
STARTCHAR uni04EC
ENCODING 1260
SWIDTH 755 0
DWIDTH 14 0
BBX 12 20 1 0
BITMAP
0EC0
0EE0
0CC0
0000
0F80
3FC0
70E0
4070
0070
0030
0030
1FF0
1FF0
0070
4070
C060
C0E0
E1C0
FF80
3E00
ENDCHAR
STARTCHAR uni04ED
ENCODING 1261
SWIDTH 466 0
DWIDTH 8 0
BBX 10 13 1 0
BITMAP
6600
7600
6600
0000
7C00
FE00
0600
3FC0
BFC0
8600
CE00
FC00
7800
ENDCHAR
STARTCHAR uni04EE
ENCODING 1262
SWIDTH 824 0
DWIDTH 15 0
BBX 16 24 1 -5
BITMAP
03E0
03E0
0000
380C
FC1C
DC1C
9C1C
1C1C
1C38
1838
1878
18D8
1FB8
0F3B
003F
00FE
03F0
07B0
0E30
0C60
1860
1CE0
0FC0
0F00
ENDCHAR
STARTCHAR uni04EF
ENCODING 1263
SWIDTH 479 0
DWIDTH 9 0
BBX 11 21 0 -9
BITMAP
1F00
3F00
0000
3300
3300
6700
6600
6600
6E60
7FC0
7F80
3700
0E00
1C00
3C00
6C00
CC00
D800
D800
F000
6000
ENDCHAR
STARTCHAR uni04F0
ENCODING 1264
SWIDTH 824 0
DWIDTH 15 0
BBX 16 25 1 -5
BITMAP
0370
0770
0370
0000
380C
FC1C
DC1C
9C1C
1C1C
1C38
1838
1878
18D8
1FB8
0F3B
003F
00FE
03F0
07B0
0E30
0C60
1860
1CE0
0FC0
0F00
ENDCHAR
STARTCHAR uni04F1
ENCODING 1265
SWIDTH 479 0
DWIDTH 9 0
BBX 11 22 0 -9
BITMAP
1B00
3B80
3B00
0000
3300
3300
6700
6600
6600
6E60
7FC0
7F80
3700
0E00
1C00
3C00
6C00
CC00
D800
D800
F000
6000
ENDCHAR
STARTCHAR uni04F2
ENCODING 1266
SWIDTH 824 0
DWIDTH 15 0
BBX 16 27 1 -5
BITMAP
0110
01B0
01B0
0320
0360
0000
380C
FC1C
DC1C
9C1C
1C1C
1C38
1838
1878
18D8
1FB8
0F3B
003F
00FE
03F0
07B0
0E30
0C60
1860
1CE0
0FC0
0F00
ENDCHAR
STARTCHAR uni04F3
ENCODING 1267
SWIDTH 479 0
DWIDTH 9 0
BBX 11 25 0 -9
BITMAP
0C80
0DC0
0D80
0980
1900
1300
0000
3300
3300
6700
6600
6600
6E60
7FC0
7F80
3700
0E00
1C00
3C00
6C00
CC00
D800
D800
F000
6000
ENDCHAR
STARTCHAR uni04F4
ENCODING 1268
SWIDTH 773 0
DWIDTH 14 0
BBX 11 20 2 0
BITMAP
1D80
1DC0
1D80
0000
6060
6060
6060
6060
60E0
E0E0
E0E0
E1E0
E3C0
FFC0
7EC0
00C0
00C0
01C0
01C0
01C0
ENDCHAR
STARTCHAR uni04F5
ENCODING 1269
SWIDTH 555 0
DWIDTH 10 0
BBX 12 13 0 0
BITMAP
0660
06E0
0660
1C00
1FC0
1FC0
3380
3700
6610
6C10
CE70
8FE0
07C0
ENDCHAR
STARTCHAR uni04F6
ENCODING 1270
SWIDTH 600 0
DWIDTH 11 0
BBX 14 23 1 -7
BITMAP
1FFC
7FFC
E600
C600
CE00
CE00
CE00
0C00
0C00
0C00
1C00
1C00
1C00
1C00
1A00
1E00
1E00
3E00
7600
6C00
EC00
FC00
7800
ENDCHAR
STARTCHAR uni04F7
ENCODING 1271
SWIDTH 441 0
DWIDTH 8 0
BBX 9 15 1 -6
BITMAP
7800
FC00
9C00
1800
7000
C000
C580
FF00
FE00
3C00
6800
5800
D800
F000
6000
ENDCHAR
STARTCHAR uni04F8
ENCODING 1272
SWIDTH 1078 0
DWIDTH 19 0
BBX 19 20 0 0
BITMAP
006600
00EE00
006E00
000000
0C00E0
1C00E0
1C00E0
1800E0
1800C0
1FE0C0
3FF0C0
7879C0
F039C0
3039C0
303980
303180
387180
38E180
1FE380
0F8180
ENDCHAR
STARTCHAR uni04F9
ENCODING 1273
SWIDTH 702 0
DWIDTH 13 0
BBX 14 13 1 0
BITMAP
0CC0
0DC0
0DC0
0000
6060
E060
FCE0
FFE0
E7C4
C7CC
E6CC
FCF8
7870
ENDCHAR
STARTCHAR uni04FA
ENCODING 1274
SWIDTH 635 0
DWIDTH 11 0
BBX 16 23 -1 -7
BITMAP
07FF
1FFF
3980
3180
3380
3380
1380
0FE0
0FE0
0300
0700
0700
0700
0700
0600
0600
0E00
0E00
0E00
4C00
DC00
F800
7000
ENDCHAR
STARTCHAR uni04FB
ENCODING 1275
SWIDTH 441 0
DWIDTH 8 0
BBX 10 15 0 -6
BITMAP
3C00
7E00
4E00
0C00
F800
7C00
62C0
7F80
7F00
1E00
3400
2C00
6C00
7800
3000
ENDCHAR
STARTCHAR uni04FC
ENCODING 1276
SWIDTH 716 0
DWIDTH 13 0
BBX 15 22 0 -6
BITMAP
3C1C
7E1C
CE38
8770
07E0
03C0
0380
0380
0780
0F80
1DC0
39C0
38C0
70F6
E0FE
C078
00F0
01F0
0330
0360
03E0
03C0
ENDCHAR
STARTCHAR uni04FD
ENCODING 1277
SWIDTH 601 0
DWIDTH 11 0
BBX 13 15 0 -6
BITMAP
39C0
7FC0
2EC0
0E00
0E00
6E00
CE18
FFF0
77E0
01C0
0680
0D80
0D80
0F00
0600
ENDCHAR
STARTCHAR uni04FE
ENCODING 1278
SWIDTH 712 0
DWIDTH 13 0
BBX 15 16 0 0
BITMAP
3C1C
7E1C
CE38
8770
07E0
03C0
03C0
1FF0
1FF0
0780
0F80
1DC0
39C2
70C6
E0FC
C078
ENDCHAR
STARTCHAR uni04FF
ENCODING 1279
SWIDTH 529 0
DWIDTH 10 0
BBX 12 9 0 0
BITMAP
39C0
7FC0
2EC0
1F00
7F10
CE30
CE60
FFE0
7380
ENDCHAR
STARTCHAR uni0510
ENCODING 1296
SWIDTH 706 0
DWIDTH 13 0
BBX 11 16 1 0
BITMAP
0F80
1FC0
38E0
3060
3060
3040
3800
3F00
7700
E000
E060
E060
E0E0
F0E0
7FC0
1F00
ENDCHAR
STARTCHAR uni0511
ENCODING 1297
SWIDTH 392 0
DWIDTH 7 0
BBX 9 9 0 0
BITMAP
3C00
7E00
6000
3800
7880
E180
E380
7F00
7C00
ENDCHAR
STARTCHAR uni0512
ENCODING 1298
SWIDTH 884 0
DWIDTH 16 0
BBX 18 22 0 -6
BITMAP
003800
003800
007800
007800
007800
00F800
00F800
00F800
01F800
01B800
01B800
03B800
C71800
E61EC0
7E1FC0
380F00
001E00
003E00
006600
006E00
007C00
007800
ENDCHAR
STARTCHAR uni0513
ENCODING 1299
SWIDTH 631 0
DWIDTH 11 0
BBX 13 15 0 -6
BITMAP
0300
0700
0700
0F00
4F00
CF00
DB18
F3F8
71E0
01C0
03C0
06C0
0580
0780
0700
ENDCHAR
STARTCHAR uni051A
ENCODING 1306
SWIDTH 816 0
DWIDTH 15 0
BBX 15 22 1 -6
BITMAP
07C0
1FF0
3C70
3838
7038
6018
E018
E018
E018
E038
E038
E030
7070
78E0
3FC0
1F80
0380
0380
01C2
01C6
00FC
0078
ENDCHAR
STARTCHAR uni051B
ENCODING 1307
SWIDTH 500 0
DWIDTH 9 0
BBX 10 18 1 -8
BITMAP
0700
1E00
7E00
6600
EE00
CC00
CDC0
DDC0
FD00
7D00
1900
1900
1900
1B00
1B00
1E00
0E00
0C00
ENDCHAR
STARTCHAR uni051C
ENCODING 1308
SWIDTH 1217 0
DWIDTH 22 0
BBX 23 16 2 0
BITMAP
6070E0
6071F0
6071B0
E06130
E0E130
E0E1B0
E0E1B0
E0E1F0
E1E0FE
E1E07C
E1E0C0
E361C0
677180
7E3F00
7E3E00
381C00
ENDCHAR
STARTCHAR uni051D
ENCODING 1309
SWIDTH 700 0
DWIDTH 13 0
BBX 14 9 1 0
BITMAP
C660
CEE0
CEE0
CEFC
DEFC
D7C0
F780
F700
6700
ENDCHAR
STARTCHAR uni0524
ENCODING 1316
SWIDTH 892 0
DWIDTH 16 0
BBX 17 22 1 -6
BITMAP
0FFF00
7FFF80
E60C00
C60C00
CE1C00
CE1C00
CE1C00
0E1800
0C1800
0C3800
0C3800
1C3800
1C3800
1C3F80
1C1F80
180E00
003C00
007C00
00CC00
00DC00
00F800
007000
ENDCHAR
STARTCHAR uni0525
ENCODING 1317
SWIDTH 536 0
DWIDTH 10 0
BBX 11 15 1 -6
BITMAP
6600
EE00
DE00
F600
E600
E600
EE60
C7C0
C380
0E00
1E00
3600
3600
3C00
3800
ENDCHAR
STARTCHAR uni0526
ENCODING 1318
SWIDTH 818 0
DWIDTH 15 0
BBX 16 22 1 -6
BITMAP
1800
1800
3800
3800
3800
3000
3000
73C0
7FE0
7C60
7060
7060
6060
607B
E07F
607C
0078
00D8
01B8
03B0
03F0
01E0
ENDCHAR
STARTCHAR uni0527
ENCODING 1319
SWIDTH 542 0
DWIDTH 10 0
BBX 11 24 1 -6
BITMAP
1C00
1E00
3600
3600
6600
6400
6C00
6800
F800
F600
EE00
DE00
D600
F600
E600
EE60
E7C0
C380
0E00
1A00
3600
3600
3C00
3800
ENDCHAR
STARTCHAR uni0528
ENCODING 1320
SWIDTH 873 0
DWIDTH 16 0
BBX 20 23 -2 -6
BITMAP
0000C0
0701E0
1F8320
338320
218760
218660
038640
0387C0
038F00
0FFE00
0FFE00
030E00
070E00
070E10
070E30
0607E0
0603C0
0E0000
0E0000
0C0000
DC0000
F80000
700000
ENDCHAR
STARTCHAR uni0529
ENCODING 1321
SWIDTH 475 0
DWIDTH 9 0
BBX 13 15 -2 -6
BITMAP
0CC0
1CC0
18C0
1FC0
1F88
1998
19B8
19F0
18E0
1800
1800
1800
D800
F800
7000
ENDCHAR
STARTCHAR uni052E
ENCODING 1326
SWIDTH 884 0
DWIDTH 16 0
BBX 18 22 0 -6
BITMAP
003800
003800
007800
007800
007800
00F800
00F800
00F800
01F800
01B800
01B800
03B800
C71800
E61EC0
7E1FC0
380F00
001E00
003E00
006600
006E00
007C00
007800
ENDCHAR
STARTCHAR uni052F
ENCODING 1327
SWIDTH 631 0
DWIDTH 11 0
BBX 13 15 0 -6
BITMAP
0300
0700
0700
0F00
4F00
CF00
DB18
F3F8
71E0
01C0
03C0
06C0
0580
0780
0700
ENDCHAR
STARTCHAR Wgrave
ENCODING 7808
SWIDTH 1217 0
DWIDTH 22 0
BBX 23 22 2 0
BITMAP
020000
030000
03C000
00E000
006000
000000
6070E0
6071F0
6071B0
E06130
E0E130
E0E1B0
E0E1B0
E0E1F0
E1E0FE
E1E07C
E1E0C0
E361C0
677180
7E3F00
7E3E00
381C00
ENDCHAR
STARTCHAR wgrave
ENCODING 7809
SWIDTH 700 0
DWIDTH 13 0
BBX 14 16 1 0
BITMAP
1800
1800
1800
0C00
0C00
0400
0000
C660
CEE0
CEE0
CEFC
DEFC
D7C0
F780
F700
6700
ENDCHAR
STARTCHAR Wacute
ENCODING 7810
SWIDTH 1217 0
DWIDTH 22 0
BBX 23 22 2 0
BITMAP
000200
000600
000E00
001C00
003000
000000
6070E0
6071F0
6071B0
E06130
E0E130
E0E1B0
E0E1B0
E0E1F0
E1E0FE
E1E07C
E1E0C0
E361C0
677180
7E3F00
7E3E00
381C00
ENDCHAR
STARTCHAR wacute
ENCODING 7811
SWIDTH 700 0
DWIDTH 13 0
BBX 14 16 1 0
BITMAP
0180
0180
0380
0300
0600
0600
0000
C660
CEE0
CEE0
CEFC
DEFC
D7C0
F780
F700
6700
ENDCHAR
STARTCHAR Wdieresis
ENCODING 7812
SWIDTH 1217 0
DWIDTH 22 0
BBX 23 20 2 0
BITMAP
00CC00
00DC00
00CC00
000000
6070E0
6071F0
6071B0
E06130
E0E130
E0E1B0
E0E1B0
E0E1F0
E1E0FE
E1E07C
E1E0C0
E361C0
677180
7E3F00
7E3E00
381C00
ENDCHAR
STARTCHAR wdieresis
ENCODING 7813
SWIDTH 700 0
DWIDTH 13 0
BBX 14 13 1 0
BITMAP
1980
1980
1980
0000
C660
CEE0
CEE0
CEFC
DEFC
D7C0
F780
F700
6700
ENDCHAR
STARTCHAR uni1E9E
ENCODING 7838
SWIDTH 843 0
DWIDTH 15 0
BBX 13 17 2 -1
BITMAP
31E0
77F0
7638
6C38
7830
7070
F1E0
F780
E3E0
E070
E030
E030
C070
C070
C1E0
C7C0
0700
ENDCHAR
STARTCHAR uni1EA0
ENCODING 7840
SWIDTH 786 0
DWIDTH 14 0
BBX 15 20 1 -4
BITMAP
01FC
07FC
1F08
3C30
3830
7070
6070
E060
E060
E0E0
E0E0
E0E0
E1E2
73E6
7E7C
3C38
0000
0E00
0E00
0E00
ENDCHAR
STARTCHAR uni1EA1
ENCODING 7841
SWIDTH 470 0
DWIDTH 8 0
BBX 10 13 1 -4
BITMAP
1800
7E00
6600
EE00
CC00
CCC0
DDC0
FF80
7700
0000
7000
7000
7000
ENDCHAR
STARTCHAR uni1EA2
ENCODING 7842
SWIDTH 786 0
DWIDTH 14 0
BBX 15 22 1 0
BITMAP
00F0
00F0
0018
0070
0070
0000
01FC
07FC
1F08
3C30
3830
7070
6070
E060
E060
E0E0
E0E0
E0E0
E1E2
73E6
7E7C
3C38
ENDCHAR
STARTCHAR uni1EA3
ENCODING 7843
SWIDTH 470 0
DWIDTH 8 0
BBX 10 16 1 0
BITMAP
1C00
1E00
0200
0600
0E00
0C00
0000
1800
7E00
6600
EE00
CC00
CCC0
DDC0
FF80
7700
ENDCHAR
STARTCHAR uni1EA4
ENCODING 7844
SWIDTH 786 0
DWIDTH 14 0
BBX 15 28 1 0
BITMAP
0002
0006
001E
0038
0030
0000
0070
00F0
00F0
0198
0198
0000
01FC
07FC
1F08
3C30
3830
7070
6070
E060
E060
E0E0
E0E0
E0E0
E1E2
73E6
7E7C
3C38
ENDCHAR
STARTCHAR uni1EA5
ENCODING 7845
SWIDTH 470 0
DWIDTH 8 0
BBX 10 17 1 0
BITMAP
0040
00C0
01C0
0D00
1E00
3600
3300
0000
1800
7E00
6600
EE00
CC00
CCC0
DDC0
FF80
7700
ENDCHAR
STARTCHAR uni1EA6
ENCODING 7846
SWIDTH 786 0
DWIDTH 14 0
BBX 15 28 1 0
BITMAP
0200
0300
0380
01E0
0060
0000
0070
00F0
00F0
0198
0198
0000
01FC
07FC
1F08
3C30
3830
7070
6070
E060
E060
E0E0
E0E0
E0E0
E1E2
73E6
7E7C
3C38
ENDCHAR
STARTCHAR uni1EA7
ENCODING 7847
SWIDTH 470 0
DWIDTH 8 0
BBX 10 17 1 0
BITMAP
8000
C000
E000
2C00
1E00
3600
3300
0000
1800
7E00
6600
EE00
CC00
CCC0
DDC0
FF80
7700
ENDCHAR
STARTCHAR uni1EA8
ENCODING 7848
SWIDTH 786 0
DWIDTH 14 0
BBX 15 28 1 0
BITMAP
0078
0078
0018
0038
0030
0000
0070
00F0
00F0
0198
0198
0000
01FC
07FC
1F08
3C30
3830
7070
6070
E060
E060
E0E0
E0E0
E0E0
E1E2
73E6
7E7C
3C38
ENDCHAR
STARTCHAR uni1EA9
ENCODING 7849
SWIDTH 470 0
DWIDTH 8 0
BBX 10 16 1 0
BITMAP
01C0
0040
0040
0DC0
3E00
3300
0000
1800
7E00
6600
EE00
CC00
CCC0
DDC0
FF80
7700
ENDCHAR
STARTCHAR uni1EAA
ENCODING 7850
SWIDTH 786 0
DWIDTH 14 0
BBX 15 27 1 0
BITMAP
00C4
01F6
01BC
011C
0000
0070
00F0
00F0
0198
0198
0000
01FC
07FC
1F08
3C30
3830
7070
6070
E060
E060
E0E0
E0E0
E0E0
E1E2
73E6
7E7C
3C38
ENDCHAR
STARTCHAR uni1EAB
ENCODING 7851
SWIDTH 470 0
DWIDTH 8 0
BBX 10 17 1 0
BITMAP
1980
3D00
2200
0C00
1E00
3600
3300
0000
1800
7E00
6600
EE00
CC00
CCC0
DDC0
FF80
7700
ENDCHAR
STARTCHAR uni1EAC
ENCODING 7852
SWIDTH 786 0
DWIDTH 14 0
BBX 15 26 1 -4
BITMAP
0070
00F0
00F0
0198
0198
0000
01FC
07FC
1F08
3C30
3830
7070
6070
E060
E060
E0E0
E0E0
E0E0
E1E2
73E6
7E7C
3C38
0000
0E00
0E00
0E00
ENDCHAR
STARTCHAR uni1EAD
ENCODING 7853
SWIDTH 470 0
DWIDTH 8 0
BBX 10 21 1 -4
BITMAP
0400
0E00
1E00
1E00
3600
3300
6200
0000
1800
7E00
6600
EE00
CC00
CCC0
DDC0
FF80
7700
0000
7000
7000
7000
ENDCHAR
STARTCHAR uni1EAE
ENCODING 7854
SWIDTH 786 0
DWIDTH 14 0
BBX 15 23 1 0
BITMAP
0018
0038
0128
038C
01F8
00F0
0000
01FC
07FC
1F08
3C30
3830
7070
6070
E060
E060
E0E0
E0E0
E0E0
E1E2
73E6
7E7C
3C38
ENDCHAR
STARTCHAR uni1EAF
ENCODING 7855
SWIDTH 470 0
DWIDTH 8 0
BBX 10 16 1 0
BITMAP
0300
0700
2D00
6380
7F00
3E00
0000
1800
7E00
6600
EE00
CC00
CCC0
DDC0
FF80
7700
ENDCHAR
STARTCHAR uni1EB0
ENCODING 7856
SWIDTH 786 0
DWIDTH 14 0
BBX 15 23 1 0
BITMAP
0080
00C0
0020
030C
01F8
00F0
0000
01FC
07FC
1F08
3C30
3830
7070
6070
E060
E060
E0E0
E0E0
E0E0
E1E2
73E6
7E7C
3C38
ENDCHAR
STARTCHAR uni1EB1
ENCODING 7857
SWIDTH 470 0
DWIDTH 8 0
BBX 10 16 1 0
BITMAP
3000
3800
0C00
6380
7F00
3E00
0000
1800
7E00
6600
EE00
CC00
CCC0
DDC0
FF80
7700
ENDCHAR
STARTCHAR uni1EB2
ENCODING 7858
SWIDTH 786 0
DWIDTH 14 0
BBX 15 24 1 0
BITMAP
00F0
0030
0030
0060
030C
01F8
00F0
0000
01FC
07FC
1F08
3C30
3830
7070
6070
E060
E060
E0E0
E0E0
E0E0
E1E2
73E6
7E7C
3C38
ENDCHAR
STARTCHAR uni1EB3
ENCODING 7859
SWIDTH 470 0
DWIDTH 8 0
BBX 10 17 1 0
BITMAP
1C00
0600
0600
0C00
6380
7F00
3E00
0000
1800
7E00
6600
EE00
CC00
CCC0
DDC0
FF80
7700
ENDCHAR
STARTCHAR uni1EB4
ENCODING 7860
SWIDTH 786 0
DWIDTH 14 0
BBX 15 25 1 0
BITMAP
0080
00EC
01FC
0118
0108
030C
01F8
00F0
0000
01FC
07FC
1F08
3C30
3830
7070
6070
E060
E060
E0E0
E0E0
E0E0
E1E2
73E6
7E7C
3C38
ENDCHAR
STARTCHAR uni1EB5
ENCODING 7861
SWIDTH 470 0
DWIDTH 8 0
BBX 10 18 1 0
BITMAP
1000
3980
3F00
2700
2100
6380
7F00
1E00
0000
1800
7E00
6600
EE00
CC00
CCC0
DDC0
FF80
7700
ENDCHAR
STARTCHAR uni1EB6
ENCODING 7862
SWIDTH 786 0
DWIDTH 14 0
BBX 15 25 1 -4
BITMAP
0108
039C
01F8
00F0
0000
01FC
07FC
1F08
3C30
3830
7070
6070
E060
E060
E0E0
E0E0
E0E0
E1E2
73E6
7E7C
3C38
0000
0E00
0E00
0E00
ENDCHAR
STARTCHAR uni1EB7
ENCODING 7863
SWIDTH 470 0
DWIDTH 8 0
BBX 10 19 1 -4
BITMAP
2100
6180
7300
3F00
1E00
0000
1800
7E00
6600
EE00
CC00
CCC0
DDC0
FF80
7700
0000
7000
7000
7000
ENDCHAR
STARTCHAR uni1EB8
ENCODING 7864
SWIDTH 686 0
DWIDTH 12 0
BBX 14 20 1 -4
BITMAP
0FC0
1FE0
3870
7070
7070
3820
1F00
3F00
7000
E000
C000
C000
E008
F03C
7FF8
1FE0
0000
0E00
0E00
0E00
ENDCHAR
STARTCHAR uni1EB9
ENCODING 7865
SWIDTH 393 0
DWIDTH 7 0
BBX 8 13 1 -4
BITMAP
38
7C
CC
CC
F8
F1
C7
FE
7C
00
30
78
30
ENDCHAR
STARTCHAR uni1EBA
ENCODING 7866
SWIDTH 686 0
DWIDTH 12 0
BBX 14 22 1 0
BITMAP
03C0
03C0
0040
01C0
0180
0000
0FC0
1FE0
3870
7070
7070
3820
1F00
3F00
7000
E000
C000
C000
E008
F03C
7FF8
1FE0
ENDCHAR
STARTCHAR uni1EBB
ENCODING 7867
SWIDTH 393 0
DWIDTH 7 0
BBX 8 16 1 0
BITMAP
3C
3C
06
04
1C
18
00
38
7C
CC
CC
F8
F1
C7
FE
7C
ENDCHAR
STARTCHAR uni1EBC
ENCODING 7868
SWIDTH 686 0
DWIDTH 12 0
BBX 14 21 1 0
BITMAP
0620
0FB0
0DE0
08E0
0000
0FC0
1FE0
3870
7070
7070
3820
1F00
3F00
7000
E000
C000
C000
E008
F03C
7FF8
1FE0
ENDCHAR
STARTCHAR uni1EBD
ENCODING 7869
SWIDTH 393 0
DWIDTH 7 0
BBX 8 14 1 0
BITMAP
71
7B
DE
8E
00
38
7C
CC
CC
F8
F1
C7
FE
7C
ENDCHAR
STARTCHAR uni1EBE
ENCODING 7870
SWIDTH 686 0
DWIDTH 12 0
BBX 14 24 1 0
BITMAP
0008
0018
0038
01A0
03C0
06C0
0E60
0000
0FC0
1FE0
3870
7070
7070
3820
1F00
3F00
7000
E000
C000
C000
E008
F03C
7FF8
1FE0
ENDCHAR
STARTCHAR uni1EBF
ENCODING 7871
SWIDTH 393 0
DWIDTH 7 0
BBX 9 17 1 0
BITMAP
0080
0180
0380
1E00
3C00
7600
6600
0000
3800
7C00
CC00
CC00
F800
F100
C700
FE00
7C00
ENDCHAR
STARTCHAR uni1EC0
ENCODING 7872
SWIDTH 686 0
DWIDTH 12 0
BBX 14 24 1 0
BITMAP
1000
1800
1C00
0580
03C0
06C0
0E60
0000
0FC0
1FE0
3870
7070
7070
3820
1F00
3F00
7000
E000
C000
C000
E008
F03C
7FF8
1FE0
ENDCHAR
STARTCHAR uni1EC1
ENCODING 7873
SWIDTH 393 0
DWIDTH 7 0
BBX 9 17 0 0
BITMAP
4000
C000
7000
2E00
1E00
3B00
3300
0000
1C00
3E00
6600
6600
7C00
7880
6380
7F00
3E00
ENDCHAR
STARTCHAR uni1EC2
ENCODING 7874
SWIDTH 686 0
DWIDTH 12 0
BBX 14 23 1 0
BITMAP
0038
0008
0008
01B8
07C0
0E60
0000
0FC0
1FE0
3870
7070
7070
3820
1F00
3F00
7000
E000
C000
C000
E008
F03C
7FF8
1FE0
ENDCHAR
STARTCHAR uni1EC3
ENCODING 7875
SWIDTH 393 0
DWIDTH 7 0
BBX 10 16 1 0
BITMAP
0380
00C0
00C0
1F80
3C00
6600
0000
3800
7C00
CC00
CC00
F800
F100
C700
FE00
7C00
ENDCHAR
STARTCHAR uni1EC4
ENCODING 7876
SWIDTH 686 0
DWIDTH 12 0
BBX 14 24 1 0
BITMAP
0330
07A0
0440
0180
03C0
06C0
0C60
0000
0FC0
1FE0
3870
7070
7070
3820
1F00
3F00
7000
E000
C000
C000
E008
F03C
7FF8
1FE0
ENDCHAR
STARTCHAR uni1EC5
ENCODING 7877
SWIDTH 393 0
DWIDTH 7 0
BBX 8 17 1 0
BITMAP
33
7E
46
1C
3C
76
66
00
38
7C
CC
CC
F8
F1
C7
FE
7C
ENDCHAR
STARTCHAR uni1EC6
ENCODING 7878
SWIDTH 686 0
DWIDTH 12 0
BBX 14 26 1 -4
BITMAP
0180
03C0
07C0
06E0
0C60
0000
0FC0
1FE0
3870
7070
7070
3820
1F00
3F00
7000
E000
C000
C000
E008
F03C
7FF8
1FE0
0000
0E00
0E00
0E00
ENDCHAR
STARTCHAR uni1EC7
ENCODING 7879
SWIDTH 393 0
DWIDTH 7 0
BBX 8 21 1 -4
BITMAP
08
1C
1C
34
36
66
66
00
38
7C
CC
CC
F8
F1
C7
FE
7C
00
30
78
30
ENDCHAR
STARTCHAR uni1EC8
ENCODING 7880
SWIDTH 495 0
DWIDTH 9 0
BBX 10 22 0 0
BITMAP
0700
0780
0180
0780
0700
0000
3FC0
3FC0
0E00
0E00
0E00
0E00
0C00
0C00
0C00
1C00
1C00
1C00
1800
1800
FF00
FF00
ENDCHAR
STARTCHAR uni1EC9
ENCODING 7881
SWIDTH 246 0
DWIDTH 4 0
BBX 6 16 1 0
BITMAP
70
F8
18
18
70
60
00
60
E0
E0
C0
C0
CC
DC
F8
70
ENDCHAR
STARTCHAR uni1ECA
ENCODING 7882
SWIDTH 495 0
DWIDTH 9 0
BBX 10 20 0 -4
BITMAP
3FC0
3FC0
0E00
0E00
0E00
0E00
0C00
0C00
0C00
1C00
1C00
1C00
1800
1800
FF00
FF00
0000
3800
3800
3800
ENDCHAR
STARTCHAR uni1ECB
ENCODING 7883
SWIDTH 246 0
DWIDTH 4 0
BBX 7 17 0 -4
BITMAP
38
38
38
00
30
70
70
60
60
66
6E
7C
38
00
60
E0
E0
ENDCHAR
STARTCHAR uni1ECC
ENCODING 7884
SWIDTH 816 0
DWIDTH 15 0
BBX 13 20 1 -4
BITMAP
07C0
1FF0
3C70
3838
7038
6018
E018
E018
E018
E038
E038
E030
7070
70E0
3FC0
1F00
0000
0E00
0E00
0E00
ENDCHAR
STARTCHAR uni1ECD
ENCODING 7885
SWIDTH 451 0
DWIDTH 8 0
BBX 10 13 1 -4
BITMAP
3800
7C00
EE00
CFC0
CF80
C600
CC00
FC00
7800
0000
3000
7000
7000
ENDCHAR
STARTCHAR uni1ECE
ENCODING 7886
SWIDTH 816 0
DWIDTH 15 0
BBX 13 22 1 0
BITMAP
03C0
03C0
0060
01C0
01C0
0000
07C0
1FF0
3C70
3838
7038
6018
E018
E018
E018
E038
E038
E030
7070
70E0
3FC0
1F00
ENDCHAR
STARTCHAR uni1ECF
ENCODING 7887
SWIDTH 451 0
DWIDTH 8 0
BBX 10 16 1 0
BITMAP
3C00
3C00
0400
0400
1C00
1800
0000
3800
7C00
EE00
CFC0
CF80
C600
CC00
FC00
7800
ENDCHAR
STARTCHAR uni1ED0
ENCODING 7888
SWIDTH 816 0
DWIDTH 15 0
BBX 13 24 1 0
BITMAP
0008
0018
0038
01E0
03C0
0760
0660
0000
07C0
1FF0
3C70
3838
7038
6018
E018
E018
E018
E038
E038
E030
7070
70E0
3FC0
1F00
ENDCHAR
STARTCHAR uni1ED1
ENCODING 7889
SWIDTH 451 0
DWIDTH 8 0
BBX 10 17 1 0
BITMAP
0080
0180
0380
1E00
3C00
6E00
6600
0000
3800
7C00
EE00
CFC0
CF80
C600
CC00
FC00
7800
ENDCHAR
STARTCHAR uni1ED2
ENCODING 7890
SWIDTH 816 0
DWIDTH 15 0
BBX 13 24 1 0
BITMAP
0800
1800
0E00
05C0
03C0
0760
0660
0000
07C0
1FF0
3C70
3838
7038
6018
E018
E018
E018
E038
E038
E030
7070
70E0
3FC0
1F00
ENDCHAR
STARTCHAR uni1ED3
ENCODING 7891
SWIDTH 451 0
DWIDTH 8 0
BBX 11 17 0 0
BITMAP
4000
C000
6000
2E00
1E00
3700
3300
0000
1C00
3E00
7700
67E0
67C0
6300
6600
7E00
3C00
ENDCHAR
STARTCHAR uni1ED4
ENCODING 7892
SWIDTH 816 0
DWIDTH 15 0
BBX 14 23 1 0
BITMAP
0038
000C
000C
01F8
03C0
0660
0000
07C0
1FF0
3C70
3838
7038
6018
E018
E018
E018
E038
E038
E030
7070
70E0
3FC0
1F00
ENDCHAR
STARTCHAR uni1ED5
ENCODING 7893
SWIDTH 451 0
DWIDTH 8 0
BBX 10 16 1 0
BITMAP
0380
00C0
0080
1F80
3C00
6600
0000
3800
7C00
EE00
CFC0
CF80
C600
CC00
FC00
7800
ENDCHAR
STARTCHAR uni1ED6
ENCODING 7894
SWIDTH 816 0
DWIDTH 15 0
BBX 13 24 1 0
BITMAP
0330
07E0
0460
01C0
03C0
0760
0660
0000
07C0
1FF0
3C70
3838
7038
6018
E018
E018
E018
E038
E038
E030
7070
70E0
3FC0
1F00
ENDCHAR
STARTCHAR uni1ED7
ENCODING 7895
SWIDTH 451 0
DWIDTH 8 0
BBX 10 17 1 0
BITMAP
3300
7E00
4600
1800
3C00
6E00
6600
0000
3800
7C00
EE00
CFC0
CF80
C600
CC00
FC00
7800
ENDCHAR
STARTCHAR uni1ED8
ENCODING 7896
SWIDTH 816 0
DWIDTH 15 0
BBX 13 26 1 -4
BITMAP
01C0
03C0
03C0
0660
0660
0000
07C0
1FF0
3C70
3838
7038
6018
E018
E018
E018
E038
E038
E030
7070
70E0
3FC0
1F00
0000
0E00
0E00
0E00
ENDCHAR
STARTCHAR uni1ED9
ENCODING 7897
SWIDTH 451 0
DWIDTH 8 0
BBX 10 21 1 -4
BITMAP
0800
1C00
3C00
3C00
6400
6600
4600
0000
3800
7C00
EE00
CFC0
CF80
C600
CC00
FC00
7800
0000
3000
7000
7000
ENDCHAR
STARTCHAR uni1EDA
ENCODING 7898
SWIDTH 816 0
DWIDTH 15 0
BBX 15 22 1 0
BITMAP
0010
0038
0074
00EE
018C
000C
07FC
1FF8
3C70
3838
7038
6018
E018
E018
E018
E038
E038
E030
7070
70E0
3FC0
1F00
ENDCHAR
STARTCHAR uni1EDB
ENCODING 7899
SWIDTH 451 0
DWIDTH 8 0
BBX 10 16 1 0
BITMAP
0400
0E00
0C00
1800
1900
1300
0300
3E00
7E00
EE00
CFC0
CF80
C600
CC00
FC00
7800
ENDCHAR
STARTCHAR uni1EDC
ENCODING 7900
SWIDTH 816 0
DWIDTH 15 0
BBX 15 22 1 0
BITMAP
0800
1C00
1E04
070E
030C
000C
07FC
1FF8
3C70
3838
7038
6018
E018
E018
E018
E038
E038
E030
7070
70E0
3FC0
1F00
ENDCHAR
STARTCHAR uni1EDD
ENCODING 7901
SWIDTH 451 0
DWIDTH 8 0
BBX 10 16 1 0
BITMAP
C000
E000
6000
6000
3100
1300
0300
3E00
7E00
EE00
CFC0
CF80
C600
CC00
FC00
7800
ENDCHAR
STARTCHAR uni1EDE
ENCODING 7902
SWIDTH 816 0
DWIDTH 15 0
BBX 15 22 1 0
BITMAP
03C0
03C0
0064
01CE
01CC
000C
07FC
1FF8
3C70
3838
7038
6018
E018
E018
E018
E038
E038
E030
7070
70E0
3FC0
1F00
ENDCHAR
STARTCHAR uni1EDF
ENCODING 7903
SWIDTH 451 0
DWIDTH 8 0
BBX 10 16 1 0
BITMAP
3800
3C00
0C00
0C00
3D00
3B00
0300
3E00
7E00
EE00
CFC0
CF80
C600
CC00
FC00
7800
ENDCHAR
STARTCHAR uni1EE0
ENCODING 7904
SWIDTH 816 0
DWIDTH 15 0
BBX 15 21 1 0
BITMAP
0710
07B4
0DFE
08EC
000C
07FC
1FF8
3C70
3838
7038
6018
E018
E018
E018
E038
E038
E030
7070
70E0
3FC0
1F00
ENDCHAR
STARTCHAR uni1EE1
ENCODING 7905
SWIDTH 451 0
DWIDTH 8 0
BBX 10 14 1 0
BITMAP
6200
7E00
DD00
8B00
0300
3E00
7C00
EE00
CFC0
C780
C600
CC00
FC00
7800
ENDCHAR
STARTCHAR uni1EE2
ENCODING 7906
SWIDTH 816 0
DWIDTH 15 0
BBX 15 24 1 -4
BITMAP
0004
000E
000C
000C
07FC
1FF8
3C70
3838
7038
6018
E018
E018
E018
E038
E038
E030
7070
70E0
3FC0
1F00
0000
0E00
0E00
0E00
ENDCHAR
STARTCHAR uni1EE3
ENCODING 7907
SWIDTH 451 0
DWIDTH 8 0
BBX 10 16 1 -4
BITMAP
0100
0300
0300
3E00
7E00
EE00
CFC0
CF80
C600
CC00
FC00
7800
0000
3000
7000
7000
ENDCHAR
STARTCHAR uni1EE4
ENCODING 7908
SWIDTH 890 0
DWIDTH 16 0
BBX 18 20 0 -4
BITMAP
1C0600
7E0E00
660E00
C60E00
8E0E00
0E0E00
0E0C00
0C1C00
0C1C00
1C1C00
1C3C00
1C3C00
1C7C40
1DDDC0
1F9F80
0F0F00
000000
038000
038000
038000
ENDCHAR
STARTCHAR uni1EE5
ENCODING 7909
SWIDTH 462 0
DWIDTH 8 0
BBX 10 13 1 -4
BITMAP
6600
6600
CE00
CC00
CC00
DCC0
FD80
FF80
6E00
0000
3000
7000
7000
ENDCHAR
STARTCHAR uni1EE6
ENCODING 7910
SWIDTH 890 0
DWIDTH 16 0
BBX 18 22 0 0
BITMAP
00F000
00F000
001000
007000
006000
000000
1C0600
7E0E00
660E00
C60E00
8E0E00
0E0E00
0E0C00
0C1C00
0C1C00
1C1C00
1C3C00
1C3C00
1C7C40
1DDDC0
1F9F80
0F0F00
ENDCHAR
STARTCHAR uni1EE7
ENCODING 7911
SWIDTH 462 0
DWIDTH 8 0
BBX 10 16 1 0
BITMAP
1C00
1E00
0600
0600
1E00
1C00
0000
6600
6600
CE00
CC00
CC00
DCC0
FD80
FF80
6E00
ENDCHAR
STARTCHAR uni1EE8
ENCODING 7912
SWIDTH 890 0
DWIDTH 16 0
BBX 18 22 0 0
BITMAP
000400
000C00
001C80
0038C0
0060C0
000180
1C0780
7E0E00
660E00
C60E00
8E0E00
0E0C00
0E0C00
0C1C00
0C1C00
1C1C00
1C3C00
1C3C00
1C7C40
1DDDC0
1F9F80
0F0F00
ENDCHAR
STARTCHAR uni1EE9
ENCODING 7913
SWIDTH 512 0
DWIDTH 9 0
BBX 11 16 1 0
BITMAP
0200
0700
0600
0C00
0C80
0980
0180
6780
6700
CE00
CC00
CC00
DC60
FCC0
FF80
6700
ENDCHAR
STARTCHAR uni1EEA
ENCODING 7914
SWIDTH 890 0
DWIDTH 16 0
BBX 18 22 0 0
BITMAP
040000
060000
078080
01C0C0
00C0C0
000180
1C0780
7E0E00
660E00
C60E00
8E0E00
0E0C00
0E0C00
0C1C00
0C1C00
1C1C00
1C3C00
1C3C00
1C7C40
1DDDC0
1F9F80
0F0F00
ENDCHAR
STARTCHAR uni1EEB
ENCODING 7915
SWIDTH 512 0
DWIDTH 9 0
BBX 11 16 1 0
BITMAP
6000
6000
3000
3000
1880
0980
0180
6780
6700
CE00
CC00
CC00
DC60
FCC0
FF80
6700
ENDCHAR
STARTCHAR uni1EEC
ENCODING 7916
SWIDTH 890 0
DWIDTH 16 0
BBX 18 22 0 0
BITMAP
00F000
00F000
001080
0070C0
0060C0
000180
1C0780
7E0E00
660E00
C60E00
8E0E00
0E0C00
0E0C00
0C1C00
0C1C00
1C1C00
1C3C00
1C3C00
1C7C40
1DDDC0
1F9F80
0F0F00
ENDCHAR
STARTCHAR uni1EED
ENCODING 7917
SWIDTH 512 0
DWIDTH 9 0
BBX 11 16 1 0
BITMAP
1C00
1E00
0600
0600
1E80
1D80
0180
6780
6700
CE00
CC00
CC00
DC60
FCC0
FF80
6700
ENDCHAR
STARTCHAR uni1EEE
ENCODING 7918
SWIDTH 890 0
DWIDTH 16 0
BBX 18 21 0 0
BITMAP
01C400
03EC80
0378C0
0238C0
000180
1C0780
7E0E00
660E00
C60E00
8E0E00
0E0C00
0E0C00
0C1C00
0C1C00
1C1C00
1C3C00
1C3C00
1C7C40
1DDDC0
1F9F80
0F0F00
ENDCHAR
STARTCHAR uni1EEF
ENCODING 7919
SWIDTH 512 0
DWIDTH 9 0
BBX 11 14 1 0
BITMAP
3300
3B00
6E80
4580
0180
6780
6700
CE00
CC00
CC00
DC60
FCC0
FF80
6700
ENDCHAR
STARTCHAR uni1EF0
ENCODING 7920
SWIDTH 890 0
DWIDTH 16 0
BBX 18 24 0 -4
BITMAP
000080
0000C0
0000C0
000180
1C0780
7E0E00
660E00
C60E00
8E0E00
0E0C00
0E0C00
0C1C00
0C1C00
1C1C00
1C3C00
1C3C00
1C7C40
1DDDC0
1F9F80
0F0F00
000000
038000
038000
038000
ENDCHAR
STARTCHAR uni1EF1
ENCODING 7921
SWIDTH 512 0
DWIDTH 9 0
BBX 11 16 1 -4
BITMAP
0080
0180
0180
6780
6700
CE00
CC00
CC00
DC60
FCC0
FF80
6700
0000
3000
7000
7000
ENDCHAR
STARTCHAR Ygrave
ENCODING 7922
SWIDTH 851 0
DWIDTH 15 0
BBX 17 28 0 -6
BITMAP
020000
070000
078000
01C000
004000
000000
1C0600
7E0E00
660E00
C60E00
8E0E00
0E0E00
0E0C00
0C1C00
0C1C00
1C3C00
1C2C00
0C7C00
0FDF80
07BF80
00FC00
01D800
071800
063800
0E3000
0E7000
07E000
07C000
ENDCHAR
STARTCHAR ygrave
ENCODING 7923
SWIDTH 479 0
DWIDTH 9 0
BBX 11 25 0 -9
BITMAP
3000
3000
1800
1800
0C00
0400
0000
3300
3300
6700
6600
6600
6E60
7FC0
7F80
3700
0E00
1C00
3C00
6C00
CC00
D800
D800
F000
6000
ENDCHAR
STARTCHAR uni1EF4
ENCODING 7924
SWIDTH 851 0
DWIDTH 15 0
BBX 17 22 0 -6
BITMAP
1C0600
7E0E00
660E00
C60E00
8E0E00
0E0E00
0E0C00
0C1C00
0C1C00
1C3C00
1C2C00
0C7C00
0FDF80
07BF80
00FC00
01D800
071800
063800
0E3000
0E7E00
07EE00
07CE00
ENDCHAR
STARTCHAR uni1EF5
ENCODING 7925
SWIDTH 479 0
DWIDTH 9 0
BBX 11 18 0 -9
BITMAP
3300
3300
6700
6600
6600
6E60
7FC0
7F80
3700
0E00
1C00
3C00
6C00
CC00
DB00
DF00
F300
6000
ENDCHAR
STARTCHAR uni1EF6
ENCODING 7926
SWIDTH 851 0
DWIDTH 15 0
BBX 17 28 0 -6
BITMAP
007000
00F800
001800
007000
007000
000000
1C0600
7E0E00
660E00
C60E00
8E0E00
0E0E00
0E0C00
0C1C00
0C1C00
1C3C00
1C2C00
0C7C00
0FDF80
07BF80
00FC00
01D800
071800
063800
0E3000
0E7000
07E000
07C000
ENDCHAR
STARTCHAR uni1EF7
ENCODING 7927
SWIDTH 479 0
DWIDTH 9 0
BBX 11 25 0 -9
BITMAP
0E00
0F00
0300
0300
0F00
0E00
0000
3300
3300
6700
6600
6600
6E60
7FC0
7F80
3700
0E00
1C00
3C00
6C00
CC00
D800
D800
F000
6000
ENDCHAR
STARTCHAR uni1EF8
ENCODING 7928
SWIDTH 851 0
DWIDTH 15 0
BBX 17 27 0 -6
BITMAP
01C400
01EC00
037C00
011800
000000
1C0600
7E0E00
660E00
C60E00
8E0E00
0E0E00
0E0C00
0C1C00
0C1C00
1C3C00
1C2C00
0C7C00
0FDF80
07BF80
00FC00
01D800
071800
063800
0E3000
0E7000
07E000
07C000
ENDCHAR
STARTCHAR uni1EF9
ENCODING 7929
SWIDTH 479 0
DWIDTH 9 0
BBX 11 23 0 -9
BITMAP
1880
3D80
3780
2300
0000
3300
3300
6700
6600
6600
6E60
7FC0
7F80
3700
0E00
1C00
3C00
6C00
CC00
D800
D800
F000
6000
ENDCHAR
STARTCHAR endash
ENCODING 8211
SWIDTH 484 0
DWIDTH 9 0
BBX 7 2 1 5
BITMAP
FE
FE
ENDCHAR
STARTCHAR emdash
ENCODING 8212
SWIDTH 620 0
DWIDTH 11 0
BBX 10 2 1 5
BITMAP
FFC0
FF80
ENDCHAR
STARTCHAR quoteleft
ENCODING 8216
SWIDTH 237 0
DWIDTH 4 0
BBX 3 6 2 12
BITMAP
20
60
60
E0
E0
E0
ENDCHAR
STARTCHAR quoteright
ENCODING 8217
SWIDTH 236 0
DWIDTH 4 0
BBX 3 6 2 12
BITMAP
60
60
E0
E0
C0
C0
ENDCHAR
STARTCHAR quotesinglbase
ENCODING 8218
SWIDTH 257 0
DWIDTH 5 0
BBX 4 7 0 -3
BITMAP
20
70
60
60
60
C0
C0
ENDCHAR
STARTCHAR quotedblleft
ENCODING 8220
SWIDTH 457 0
DWIDTH 8 0
BBX 7 6 2 12
BITMAP
26
66
6E
EE
EE
EC
ENDCHAR
STARTCHAR quotedblright
ENCODING 8221
SWIDTH 456 0
DWIDTH 8 0
BBX 7 6 2 12
BITMAP
66
6E
EE
EE
CC
CC
ENDCHAR
STARTCHAR quotedblbase
ENCODING 8222
SWIDTH 477 0
DWIDTH 9 0
BBX 8 7 0 -3
BITMAP
22
77
66
66
66
CC
CC
ENDCHAR
STARTCHAR dagger
ENCODING 8224
SWIDTH 588 0
DWIDTH 11 0
BBX 8 13 2 5
BITMAP
0C
0C
0C
7F
FF
18
18
18
18
18
18
30
30
ENDCHAR
STARTCHAR daggerdbl
ENCODING 8225
SWIDTH 588 0
DWIDTH 11 0
BBX 8 13 2 5
BITMAP
0C
0C
0C
7F
FF
18
18
18
FF
FF
18
30
30
ENDCHAR
STARTCHAR bullet
ENCODING 8226
SWIDTH 512 0
DWIDTH 9 0
BBX 5 6 2 2
BITMAP
78
F8
F8
F8
F8
70
ENDCHAR
STARTCHAR ellipsis
ENCODING 8230
SWIDTH 777 0
DWIDTH 14 0
BBX 13 4 0 0
BITMAP
6338
77B8
F738
6338
ENDCHAR
STARTCHAR perthousand
ENCODING 8240
SWIDTH 1277 0
DWIDTH 23 0
BBX 22 15 1 0
BITMAP
302000
787000
DCE000
DFE000
CFC000
CDC000
F98000
339830
033CF8
0666DC
0E66CC
0C66CC
1C66D8
187CF8
183870
ENDCHAR
STARTCHAR guilsinglleft
ENCODING 8249
SWIDTH 350 0
DWIDTH 6 0
BBX 6 7 0 1
BITMAP
1C
38
70
E0
70
38
18
ENDCHAR
STARTCHAR guilsinglright
ENCODING 8250
SWIDTH 350 0
DWIDTH 6 0
BBX 5 7 1 1
BITMAP
C0
E0
70
38
78
E0
C0
ENDCHAR
STARTCHAR fraction
ENCODING 8260
SWIDTH 200 0
DWIDTH 4 0
BBX 8 12 -2 2
BITMAP
03
03
06
0E
0C
1C
18
30
30
60
E0
40
ENDCHAR
STARTCHAR uni2074
ENCODING 8308
SWIDTH 450 0
DWIDTH 8 0
BBX 6 9 2 6
BITMAP
30
60
6C
CC
D8
FC
FC
18
18
ENDCHAR
STARTCHAR colonmonetary
ENCODING 8353
SWIDTH 517 0
DWIDTH 9 0
BBX 10 15 0 -2
BITMAP
0140
0340
1F80
3F80
3580
7580
6B00
6A00
7600
7480
7D80
3F00
7E00
5000
F000
ENDCHAR
STARTCHAR franc
ENCODING 8355
SWIDTH 750 0
DWIDTH 14 0
BBX 12 11 1 0
BITMAP
FFC0
7FC0
6060
60E0
7EE0
FFF0
C770
C730
C700
C600
C600
ENDCHAR
STARTCHAR lira
ENCODING 8356
SWIDTH 525 0
DWIDTH 9 0
BBX 9 11 0 0
BITMAP
0F00
1F80
3980
3080
7E00
3000
FE00
3000
7000
FF80
FF80
ENDCHAR
STARTCHAR uni20A6
ENCODING 8358
SWIDTH 672 0
DWIDTH 12 0
BBX 12 12 0 0
BITMAP
1020
1860
3860
3C60
3C60
3E60
7FF0
33C0
FFF0
71C0
71C0
60C0
ENDCHAR
STARTCHAR peseta
ENCODING 8359
SWIDTH 1085 0
DWIDTH 20 0
BBX 18 12 1 0
BITMAP
7C6000
FE6000
666000
67FD80
67F980
E6C300
CEC380
FCC7C0
F0C6C0
C0CCC0
C0FBC0
C07380
ENDCHAR
STARTCHAR uni20A9
ENCODING 8361
SWIDTH 775 0
DWIDTH 14 0
BBX 14 12 0 0
BITMAP
3108
3198
7FFC
3398
3398
FFFC
37B0
37B0
35E0
3DE0
1DC0
19C0
ENDCHAR
STARTCHAR dong
ENCODING 8363
SWIDTH 463 0
DWIDTH 8 0
BBX 10 18 0 -3
BITMAP
0100
0180
0380
3FC0
3FC0
0300
1F00
3F00
7700
6700
6600
6600
6E00
7E00
3600
0000
FF00
FF00
ENDCHAR
STARTCHAR Euro
ENCODING 8364
SWIDTH 552 0
DWIDTH 10 0
BBX 10 11 0 0
BITMAP
0F80
1FC0
38C0
30C0
7E00
3000
FC00
3080
3980
1F80
0F00
ENDCHAR
STARTCHAR uni20AD
ENCODING 8365
SWIDTH 590 0
DWIDTH 11 0
BBX 11 12 0 0
BITMAP
1040
38C0
31C0
3180
3300
7FC0
FFC0
3600
7700
6300
63E0
61E0
ENDCHAR
STARTCHAR uni20AE
ENCODING 8366
SWIDTH 513 0
DWIDTH 9 0
BBX 9 11 1 0
BITMAP
FF00
FF80
1800
1C00
3C00
7A00
1E00
7000
3000
3000
3000
ENDCHAR
STARTCHAR uni20B1
ENCODING 8369
SWIDTH 557 0
DWIDTH 10 0
BBX 10 12 0 0
BITMAP
0800
7F00
3B80
FFC0
3180
FFC0
3700
3E00
3800
7000
7000
6000
ENDCHAR
STARTCHAR uni20B2
ENCODING 8370
SWIDTH 599 0
DWIDTH 11 0
BBX 9 16 1 -2
BITMAP
0400
0C00
0C00
3E00
7F00
6980
EB00
C900
C800
CB80
DB80
F980
7F80
3F80
1180
1100
ENDCHAR
STARTCHAR uni20B4
ENCODING 8372
SWIDTH 570 0
DWIDTH 10 0
BBX 9 11 1 0
BITMAP
3E00
7F00
6300
0300
FF80
0000
FF80
6100
6300
7F00
3C00
ENDCHAR
STARTCHAR uni20B5
ENCODING 8373
SWIDTH 517 0
DWIDTH 9 0
BBX 8 16 1 -2
BITMAP
04
0C
0C
3E
7F
6B
EB
CA
C8
C8
D9
FB
7E
3C
10
10
ENDCHAR
STARTCHAR uni20B8
ENCODING 8376
SWIDTH 522 0
DWIDTH 9 0
BBX 8 11 1 0
BITMAP
FF
FF
00
FF
FF
18
18
10
30
30
30
ENDCHAR
STARTCHAR uni20B9
ENCODING 8377
SWIDTH 511 0
DWIDTH 9 0
BBX 10 10 0 0
BITMAP
7FC0
7F80
0600
0C00
7800
F800
1C00
0C00
0F80
0780
ENDCHAR
STARTCHAR uni20BA
ENCODING 8378
SWIDTH 452 0
DWIDTH 8 0
BBX 8 12 0 0
BITMAP
10
38
36
3C
34
7C
78
70
F3
77
7E
38
ENDCHAR
STARTCHAR uni20BC
ENCODING 8380
SWIDTH 673 0
DWIDTH 12 0
BBX 11 14 0 0
BITMAP
0100
0100
0300
0F80
1FC0
1EC0
3A60
3260
7260
6260
6660
6660
E660
C460
ENDCHAR
STARTCHAR uni20BD
ENCODING 8381
SWIDTH 505 0
DWIDTH 9 0
BBX 9 12 0 0
BITMAP
3E00
7F00
3B80
3180
3180
3300
3700
FE00
3000
FC00
7000
6000
ENDCHAR
STARTCHAR uni2116
ENCODING 8470
SWIDTH 1198 0
DWIDTH 22 0
BBX 20 16 1 0
BITMAP
39E0E0
3BF1F0
373330
3C3B30
3C3330
3833F0
7831E0
707000
7077F0
7077E0
706000
606000
606000
60E000
E0E000
606000
ENDCHAR
STARTCHAR trademark
ENCODING 8482
SWIDTH 1150 0
DWIDTH 21 0
BBX 18 7 2 8
BITMAP
FFBBC0
31CAC0
318CC0
2198C0
219880
611980
611980
ENDCHAR
STARTCHAR partialdiff
ENCODING 8706
SWIDTH 451 0
DWIDTH 8 0
BBX 7 15 1 0
BITMAP
40
F0
38
1C
0C
06
3E
7E
E6
C6
C6
CE
CC
FC
78
ENDCHAR
STARTCHAR product
ENCODING 8719
SWIDTH 700 0
DWIDTH 13 0
BBX 11 15 1 0
BITMAP
3FE0
3FE0
3060
3060
7060
70E0
60E0
60C0
60C0
60C0
60C0
E0C0
E1C0
C1C0
C180
ENDCHAR
STARTCHAR summation
ENCODING 8721
SWIDTH 700 0
DWIDTH 13 0
BBX 11 15 1 0
BITMAP
3FE0
3FE0
3800
1C00
0E00
0700
0380
0180
0300
0E00
1C00
3800
7000
FFC0
FFC0
ENDCHAR
STARTCHAR minus
ENCODING 8722
SWIDTH 700 0
DWIDTH 13 0
BBX 10 2 1 4
BITMAP
7FC0
FFC0
ENDCHAR
STARTCHAR uni2215
ENCODING 8725
SWIDTH 700 0
DWIDTH 13 0
BBX 10 17 2 0
BITMAP
00C0
01C0
0180
0380
0300
0700
0600
0E00
0C00
1C00
1800
3000
7000
6000
E000
C000
C000
ENDCHAR
STARTCHAR uni2219
ENCODING 8729
SWIDTH 700 0
DWIDTH 13 0
BBX 3 3 5 3
BITMAP
E0
E0
E0
ENDCHAR
STARTCHAR radical
ENCODING 8730
SWIDTH 700 0
DWIDTH 13 0
BBX 12 15 1 0
BITMAP
0010
0030
0030
0060
0060
00C0
00C0
E180
F180
3100
1B00
1B00
1E00
0E00
0C00
ENDCHAR
STARTCHAR infinity
ENCODING 8734
SWIDTH 700 0
DWIDTH 13 0
BBX 11 7 1 2
BITMAP
79C0
FFE0
CE60
CC60
CE60
FFE0
73C0
ENDCHAR
STARTCHAR integral
ENCODING 8747
SWIDTH 700 0
DWIDTH 13 0
BBX 11 22 1 -5
BITMAP
01E0
03E0
0700
0700
0600
0600
0600
0600
0600
0E00
0E00
0E00
0C00
0C00
0C00
0C00
0C00
1C00
1C00
1C00
F800
F000
ENDCHAR
STARTCHAR approxequal
ENCODING 8776
SWIDTH 700 0
DWIDTH 13 0
BBX 11 9 1 1
BITMAP
3860
7EE0
67C0
4180
2000
78C0
7EC0
CF80
8380
ENDCHAR
STARTCHAR notequal
ENCODING 8800
SWIDTH 700 0
DWIDTH 13 0
BBX 11 11 1 0
BITMAP
0100
0300
0300
7FE0
7FC0
0600
0C00
FFC0
FFC0
1800
3000
ENDCHAR
STARTCHAR lessequal
ENCODING 8804
SWIDTH 700 0
DWIDTH 13 0
BBX 11 11 1 0
BITMAP
0040
01E0
1FC0
7C00
7800
7F00
0FC0
01C0
0000
FFC0
FFC0
ENDCHAR
STARTCHAR greaterequal
ENCODING 8805
SWIDTH 700 0
DWIDTH 13 0
BBX 11 11 1 0
BITMAP
2000
7800
3F00
07C0
01E0
1FC0
7C00
E000
0000
FFC0
FFC0
ENDCHAR
STARTCHAR lozenge
ENCODING 9674
SWIDTH 700 0
DWIDTH 13 0
BBX 9 17 2 0
BITMAP
0600
0E00
0E00
1B00
1B00
3300
7180
6180
E180
6180
6300
6300
2600
3C00
3C00
1800
1800
ENDCHAR
STARTCHAR fi
ENCODING 64257
SWIDTH 633 0
DWIDTH 11 0
BBX 14 24 0 -6
BITMAP
0300
0780
0D80
0D80
1980
1970
1B70
3A60
3400
7FE0
FFE0
30C0
34C0
76C0
76CC
76D8
76F8
7660
7600
3400
3400
3400
3C00
1800
ENDCHAR
STARTCHAR fl
ENCODING 64258
SWIDTH 688 0
DWIDTH 12 0
BBX 14 24 1 -6
BITMAP
0E30
1E78
1A78
32D8
32D8
37D8
6798
6598
6DB0
79B0
F1E0
E1E0
C1C0
DF80
DF8C
D19C
D1F8
D0F0
D800
D800
D800
D000
7000
7000
ENDCHAR
STARTCHAR .notdef
ENCODING -1
SWIDTH 265 0
DWIDTH 5 0
BBX 1 1 0 0
BITMAP
00
ENDCHAR
STARTCHAR Iacute_J.loclNLD
ENCODING -1
SWIDTH 776 0
DWIDTH 14 0
BBX 15 22 2 0
BITMAP
0202
060E
0E1E
1C38
3030
0000
6060
6060
6060
6060
E0E0
E0E0
E0E0
E1E0
E3E0
FFE0
7EC0
00C0
01C0
C380
FF00
7E00
ENDCHAR
STARTCHAR A.ss01
ENCODING -1
SWIDTH 780 0
DWIDTH 14 0
BBX 14 16 1 0
BITMAP
01FC
07FC
1E00
3C30
3830
7070
6070
E070
E060
E0E0
E0E0
E0E0
E1E0
73E0
7FE0
3CC0
ENDCHAR
STARTCHAR Aacute.ss01
ENCODING -1
SWIDTH 780 0
DWIDTH 14 0
BBX 14 22 1 0
BITMAP
0004
000C
001C
0038
0060
0000
01FC
07FC
1E00
3C30
3830
7070
6070
E070
E060
E0E0
E0E0
E0E0
E1E0
73E0
7FE0
3CC0
ENDCHAR
STARTCHAR Abreve.ss01
ENCODING -1
SWIDTH 780 0
DWIDTH 14 0
BBX 14 21 1 0
BITMAP
0108
039C
01F8
00F0
0000
01FC
07FC
1E00
3C30
3830
7070
6070
E070
E060
E0E0
E0E0
E0E0
E1E0
73E0
7FE0
3CC0
ENDCHAR
STARTCHAR uni1EAE.ss01
ENCODING -1
SWIDTH 780 0
DWIDTH 14 0
BBX 14 23 1 0
BITMAP
0018
0038
0128
038C
01F8
00F0
0000
01FC
07FC
1E00
3C30
3830
7070
6070
E070
E060
E0E0
E0E0
E0E0
E1E0
73E0
7FE0
3CC0
ENDCHAR
STARTCHAR uni1EB6.ss01
ENCODING -1
SWIDTH 780 0
DWIDTH 14 0
BBX 14 25 1 -4
BITMAP
0108
039C
01F8
00F0
0000
01FC
07FC
1E00
3C30
3830
7070
6070
E070
E060
E0E0
E0E0
E0E0
E1E0
73E0
7FE0
3CC0
0000
0E00
0E00
0E00
ENDCHAR
STARTCHAR uni1EB0.ss01
ENCODING -1
SWIDTH 780 0
DWIDTH 14 0
BBX 14 23 1 0
BITMAP
0080
00C0
0020
030C
01F8
00F0
0000
01FC
07FC
1E00
3C30
3830
7070
6070
E070
E060
E0E0
E0E0
E0E0
E1E0
73E0
7FE0
3CC0
ENDCHAR
STARTCHAR uni1EB2.ss01
ENCODING -1
SWIDTH 780 0
DWIDTH 14 0
BBX 14 24 1 0
BITMAP
00F0
0030
0030
0060
030C
01F8
00F0
0000
01FC
07FC
1E00
3C30
3830
7070
6070
E070
E060
E0E0
E0E0
E0E0
E1E0
73E0
7FE0
3CC0
ENDCHAR
STARTCHAR uni1EB4.ss01
ENCODING -1
SWIDTH 780 0
DWIDTH 14 0
BBX 14 25 1 0
BITMAP
0080
00EC
01FC
0118
0108
030C
01F8
00F0
0000
01FC
07FC
1E00
3C30
3830
7070
6070
E070
E060
E0E0
E0E0
E0E0
E1E0
73E0
7FE0
3CC0
ENDCHAR
STARTCHAR Acircumflex.ss01
ENCODING -1
SWIDTH 780 0
DWIDTH 14 0
BBX 14 22 1 0
BITMAP
0070
00F0
00F0
0198
0198
0000
01FC
07FC
1E00
3C30
3830
7070
6070
E070
E060
E0E0
E0E0
E0E0
E1E0
73E0
7FE0
3CC0
ENDCHAR
STARTCHAR uni1EA4.ss01
ENCODING -1
SWIDTH 780 0
DWIDTH 14 0
BBX 15 24 1 0
BITMAP
0002
0006
000E
0078
00F0
01D8
0198
0000
01FC
07FC
1E00
3C30
3830
7070
6070
E070
E060
E0E0
E0E0
E0E0
E1E0
73E0
7FE0
3CC0
ENDCHAR
STARTCHAR uni1EAC.ss01
ENCODING -1
SWIDTH 780 0
DWIDTH 14 0
BBX 14 26 1 -4
BITMAP
0070
00F0
00F0
0198
0198
0000
01FC
07FC
1E00
3C30
3830
7070
6070
E070
E060
E0E0
E0E0
E0E0
E1E0
73E0
7FE0
3CC0
0000
0E00
0E00
0E00
ENDCHAR
STARTCHAR uni1EA6.ss01
ENCODING -1
SWIDTH 780 0
DWIDTH 14 0
BBX 14 24 1 0
BITMAP
0200
0600
0380
0170
00F0
01D8
0198
0000
01FC
07FC
1E00
3C30
3830
7070
6070
E070
E060
E0E0
E0E0
E0E0
E1E0
73E0
7FE0
3CC0
ENDCHAR
STARTCHAR uni1EA8.ss01
ENCODING -1
SWIDTH 780 0
DWIDTH 14 0
BBX 16 23 1 0
BITMAP
000E
0003
0002
007E
00F0
0198
0000
01FC
07FC
1E00
3C30
3830
7070
6070
E070
E060
E0E0
E0E0
E0E0
E1E0
73E0
7FE0
3CC0
ENDCHAR
STARTCHAR uni1EAA.ss01
ENCODING -1
SWIDTH 780 0
DWIDTH 14 0
BBX 14 24 1 0
BITMAP
00CC
01F8
0118
0070
00F0
01D8
0198
0000
01FC
07FC
1E00
3C30
3830
7070
6070
E070
E060
E0E0
E0E0
E0E0
E1E0
73E0
7FE0
3CC0
ENDCHAR
STARTCHAR uni0200.ss01
ENCODING -1
SWIDTH 780 0
DWIDTH 14 0
BBX 14 22 1 0
BITMAP
0120
0360
0330
01B0
0190
0000
01FC
07FC
1E00
3C30
3830
7070
6070
E070
E060
E0E0
E0E0
E0E0
E1E0
73E0
7FE0
3CC0
ENDCHAR
STARTCHAR Adieresis.ss01
ENCODING -1
SWIDTH 780 0
DWIDTH 14 0
BBX 14 20 1 0
BITMAP
0198
01B8
0198
0000
01FC
07FC
1E00
3C30
3830
7070
6070
E070
E060
E0E0
E0E0
E0E0
E1E0
73E0
7FE0
3CC0
ENDCHAR
STARTCHAR uni1EA0.ss01
ENCODING -1
SWIDTH 780 0
DWIDTH 14 0
BBX 14 20 1 -4
BITMAP
01FC
07FC
1E00
3C30
3830
7070
6070
E070
E060
E0E0
E0E0
E0E0
E1E0
73E0
7FE0
3CC0
0000
0E00
0E00
0E00
ENDCHAR
STARTCHAR Agrave.ss01
ENCODING -1
SWIDTH 780 0
DWIDTH 14 0
BBX 14 22 1 0
BITMAP
0200
0700
0780
01C0
00C0
0000
01FC
07FC
1E00
3C30
3830
7070
6070
E070
E060
E0E0
E0E0
E0E0
E1E0
73E0
7FE0
3CC0
ENDCHAR
STARTCHAR uni1EA2.ss01
ENCODING -1
SWIDTH 780 0
DWIDTH 14 0
BBX 14 22 1 0
BITMAP
00F0
00F0
0018
0070
0070
0000
01FC
07FC
1E00
3C30
3830
7070
6070
E070
E060
E0E0
E0E0
E0E0
E1E0
73E0
7FE0
3CC0
ENDCHAR
STARTCHAR uni0202.ss01
ENCODING -1
SWIDTH 780 0
DWIDTH 14 0
BBX 14 21 1 0
BITMAP
00F0
01F8
038C
0000
0000
01FC
07FC
1E00
3C30
3830
7070
6070
E070
E060
E0E0
E0E0
E0E0
E1E0
73E0
7FE0
3CC0
ENDCHAR
STARTCHAR Amacron.ss01
ENCODING -1
SWIDTH 780 0
DWIDTH 14 0
BBX 14 19 1 0
BITMAP
01F8
01F8
0000
01FC
07FC
1E00
3C30
3830
7070
6070
E070
E060
E0E0
E0E0
E0E0
E1E0
73E0
7FE0
3CC0
ENDCHAR
STARTCHAR Aogonek.ss01
ENCODING -1
SWIDTH 780 0
DWIDTH 14 0
BBX 14 21 1 -5
BITMAP
01FC
07FC
1E00
3C30
3830
7070
6070
E070
E060
E0E0
E0E0
E0E0
E1E0
73E0
7FE0
3CE0
0180
0180
0180
01F0
00E0
ENDCHAR
STARTCHAR Aring.ss01
ENCODING -1
SWIDTH 780 0
DWIDTH 14 0
BBX 14 23 1 0
BITMAP
0070
00F0
0098
0090
00F0
0060
0000
01FC
07FC
1E00
3C30
3830
7070
6070
E070
E060
E0E0
E0E0
E0E0
E1E0
73E0
7FE0
3CC0
ENDCHAR
STARTCHAR Aringacute.ss01
ENCODING -1
SWIDTH 780 0
DWIDTH 14 0
BBX 17 25 1 0
BITMAP
000100
000380
007600
00F000
009800
009000
00F000
006000
000000
01FC00
07FC00
1E0000
3C3000
383000
707000
607000
E07000
E06000
E0E000
E0E000
E0E000
E1E000
73E000
7FE000
3CC000
ENDCHAR
STARTCHAR Atilde.ss01
ENCODING -1
SWIDTH 780 0
DWIDTH 14 0
BBX 14 21 1 0
BITMAP
01C4
01EC
037C
0238
0000
01FC
07FC
1E00
3C30
3830
7070
6070
E070
E060
E0E0
E0E0
E0E0
E1E0
73E0
7FE0
3CC0
ENDCHAR
STARTCHAR AE.ss01
ENCODING -1
SWIDTH 1057 0
DWIDTH 19 0
BBX 18 16 1 0
BITMAP
03DFC0
0FDFC0
1F3800
3C3000
383000
707000
607000
E07F80
E07F80
E0E000
E0E000
E0E000
E1F000
73F040
7F3FC0
3E1F80
ENDCHAR
STARTCHAR AEacute.ss01
ENCODING -1
SWIDTH 1057 0
DWIDTH 19 0
BBX 18 22 1 0
BITMAP
000100
000300
000700
000E00
001800
000000
03DFC0
0FDFC0
1F3800
3C3000
383000
707000
607000
E07F80
E07F80
E0E000
E0E000
E0E000
E1F000
73F040
7F3FC0
3E1F80
ENDCHAR
STARTCHAR B.ss01
ENCODING -1
SWIDTH 826 0
DWIDTH 15 0
BBX 13 16 2 0
BITMAP
1FC0
7FE0
6070
0038
7038
7070
60F0
67C0
E7C0
E0E0
E060
C060
C0E0
C1E0
FFC0
FF00
ENDCHAR
STARTCHAR C.ss01
ENCODING -1
SWIDTH 704 0
DWIDTH 13 0
BBX 12 16 1 0
BITMAP
07C0
1FE0
3C60
3870
7070
6060
E000
E000
E000
E000
E000
E000
7030
78E0
3FC0
0F80
ENDCHAR
STARTCHAR Cacute.ss01
ENCODING -1
SWIDTH 704 0
DWIDTH 13 0
BBX 13 22 1 0
BITMAP
0010
0038
0070
00E0
0180
0000
07C0
1FE0
3C60
3870
7070
6060
E000
E000
E000
E000
E000
E000
7030
78E0
3FC0
0F80
ENDCHAR
STARTCHAR Ccaron.ss01
ENCODING -1
SWIDTH 704 0
DWIDTH 13 0
BBX 12 22 1 0
BITMAP
0620
0660
03C0
03C0
0180
0000
07C0
1FE0
3C60
3870
7070
6060
E000
E000
E000
E000
E000
E000
7030
78E0
3FC0
0F80
ENDCHAR
STARTCHAR Ccedilla.ss01
ENCODING -1
SWIDTH 704 0
DWIDTH 13 0
BBX 12 21 1 -5
BITMAP
07C0
0FE0
3C60
3870
7070
6060
6000
E000
E000
E000
E000
E000
7030
7060
3FE0
1F80
0F00
0300
0300
1F00
1E00
ENDCHAR
STARTCHAR Ccircumflex.ss01
ENCODING -1
SWIDTH 704 0
DWIDTH 13 0
BBX 12 22 1 0
BITMAP
01C0
03C0
03C0
0660
0660
0000
07C0
1FE0
3C60
3870
7070
6060
E000
E000
E000
E000
E000
E000
7030
78E0
3FC0
0F80
ENDCHAR
STARTCHAR Cdotaccent.ss01
ENCODING -1
SWIDTH 704 0
DWIDTH 13 0
BBX 12 20 1 0
BITMAP
0180
03C0
0180
0000
07C0
1FE0
3C60
3870
7070
6060
E000
E000
E000
E000
E000
E000
7030
78E0
3FC0
0F80
ENDCHAR
STARTCHAR D.ss01
ENCODING -1
SWIDTH 810 0
DWIDTH 15 0
BBX 13 16 1 0
BITMAP
1F80
3FE0
20F0
0038
3838
3838
3018
3018
7038
7038
7038
6070
60F0
61E0
FFC0
7F00
ENDCHAR
STARTCHAR uni01C4.ss01
ENCODING -1
SWIDTH 1455 0
DWIDTH 26 0
BBX 26 22 1 0
BITMAP
00003100
00001B00
00001B00
00001E00
00000C00
00000000
1F81FF80
3FE1FFC0
20F00380
00380380
38380700
38380E00
30181E00
30181C00
70383800
70387000
7038F000
6070E000
60F1C000
61E38000
FFC7FF80
7F07FF80
ENDCHAR
STARTCHAR Eth.ss01
ENCODING -1
SWIDTH 821 0
DWIDTH 15 0
BBX 14 16 0 0
BITMAP
07E0
0FF0
0C38
0C1C
1C1C
1C0C
7F8C
FF8C
380C
381C
381C
3018
3038
30F0
3FE0
3F80
ENDCHAR
STARTCHAR Dcaron.ss01
ENCODING -1
SWIDTH 810 0
DWIDTH 15 0
BBX 13 22 1 0
BITMAP
0460
06E0
06C0
0380
0300
0000
1F80
3FE0
20F0
0038
3838
3838
3018
3018
7038
7038
7038
6070
60F0
61E0
FFC0
7F00
ENDCHAR
STARTCHAR Dcroat.ss01
ENCODING -1
SWIDTH 821 0
DWIDTH 15 0
BBX 14 16 0 0
BITMAP
07E0
0FF0
0C38
0C1C
1C1C
1C0C
7F8C
FF8C
380C
381C
381C
3018
3038
30F0
3FE0
3F80
ENDCHAR
STARTCHAR E.ss01
ENCODING -1
SWIDTH 720 0
DWIDTH 13 0
BBX 12 16 1 0
BITMAP
0FC0
3FE0
7870
7070
7070
7820
1F00
3E00
7000
E000
E000
C010
E030
F0E0
7FC0
1F00
ENDCHAR
STARTCHAR Eacute.ss01
ENCODING -1
SWIDTH 720 0
DWIDTH 13 0
BBX 12 22 1 0
BITMAP
0020
0070
00F0
01C0
0180
0000
0FC0
3FE0
7870
7070
7070
7820
1F00
3E00
7000
E000
E000
C010
E030
F0E0
7FC0
1F00
ENDCHAR
STARTCHAR Ebreve.ss01
ENCODING -1
SWIDTH 720 0
DWIDTH 13 0
BBX 12 21 1 0
BITMAP
0820
0C60
0FE0
07C0
0000
0FC0
3FE0
7870
7070
7070
7820
1F00
3E00
7000
E000
E000
C010
E030
F0E0
7FC0
1F00
ENDCHAR
STARTCHAR Ecaron.ss01
ENCODING -1
SWIDTH 720 0
DWIDTH 13 0
BBX 12 22 1 0
BITMAP
0660
0660
06C0
0380
0380
0000
0FC0
3FE0
7870
7070
7070
7820
1F00
3E00
7000
E000
E000
C010
E030
F0E0
7FC0
1F00
ENDCHAR
STARTCHAR Ecircumflex.ss01
ENCODING -1
SWIDTH 720 0
DWIDTH 13 0
BBX 12 22 1 0
BITMAP
0180
03C0
06C0
06C0
0C60
0000
0FC0
3FE0
7870
7070
7070
7820
1F00
3E00
7000
E000
E000
C010
E030
F0E0
7FC0
1F00
ENDCHAR
STARTCHAR uni1EBE.ss01
ENCODING -1
SWIDTH 720 0
DWIDTH 13 0
BBX 13 24 1 0
BITMAP
0008
0018
0038
01A0
03C0
06C0
0C40
0000
0FC0
3FE0
7870
7070
7070
7820
1F00
3E00
7000
E000
E000
C010
E030
F0E0
7FC0
1F00
ENDCHAR
STARTCHAR uni1EC6.ss01
ENCODING -1
SWIDTH 720 0
DWIDTH 13 0
BBX 12 26 1 -4
BITMAP
0180
03C0
06C0
06C0
0C60
0000
0FC0
3FE0
7870
7070
7070
7820
1F00
3E00
7000
E000
E000
C010
E030
F0E0
7FC0
1F00
0000
0C00
1E00
0C00
ENDCHAR
STARTCHAR uni1EC0.ss01
ENCODING -1
SWIDTH 720 0
DWIDTH 13 0
BBX 12 24 1 0
BITMAP
1000
1800
1C00
0580
03C0
06C0
0C40
0000
0FC0
3FE0
7870
7070
7070
7820
1F00
3E00
7000
E000
E000
C010
E030
F0E0
7FC0
1F00
ENDCHAR
STARTCHAR uni1EC2.ss01
ENCODING -1
SWIDTH 720 0
DWIDTH 13 0
BBX 13 23 1 0
BITMAP
0038
0008
0008
03B8
06C0
0EC0
0000
0FC0
3FE0
7870
7070
7070
7820
1F00
3E00
7000
E000
E000
C010
E030
F0E0
7FC0
1F00
ENDCHAR
STARTCHAR uni1EC4.ss01
ENCODING -1
SWIDTH 720 0
DWIDTH 13 0
BBX 12 24 1 0
BITMAP
0320
07E0
04C0
0180
03C0
06C0
0C40
0000
0FC0
3FE0
7870
7070
7070
7820
1F00
3E00
7000
E000
E000
C010
E030
F0E0
7FC0
1F00
ENDCHAR
STARTCHAR uni0204.ss01
ENCODING -1
SWIDTH 720 0
DWIDTH 13 0
BBX 12 22 1 0
BITMAP
0880
0D80
0D80
0CC0
06C0
0000
0FC0
3FE0
7870
7070
7070
7820
1F00
3E00
7000
E000
E000
C010
E030
F0E0
7FC0
1F00
ENDCHAR
STARTCHAR Edieresis.ss01
ENCODING -1
SWIDTH 720 0
DWIDTH 13 0
BBX 12 20 1 0
BITMAP
06E0
0EE0
06C0
0000
0FC0
3FE0
7870
7070
7070
7820
1F00
3E00
7000
E000
E000
C010
E030
F0E0
7FC0
1F00
ENDCHAR
STARTCHAR Edotaccent.ss01
ENCODING -1
SWIDTH 720 0
DWIDTH 13 0
BBX 12 20 1 0
BITMAP
0380
0380
0380
0000
0FC0
3FE0
7870
7070
7070
7820
1F00
3E00
7000
E000
E000
C010
E030
F0E0
7FC0
1F00
ENDCHAR
STARTCHAR uni1EB8.ss01
ENCODING -1
SWIDTH 720 0
DWIDTH 13 0
BBX 12 20 1 -4
BITMAP
0FC0
3FE0
7870
7070
7070
7820
1F00
3E00
7000
E000
E000
C010
E030
F0E0
7FC0
1F00
0000
0C00
1E00
0C00
ENDCHAR
STARTCHAR Egrave.ss01
ENCODING -1
SWIDTH 720 0
DWIDTH 13 0
BBX 12 22 1 0
BITMAP
1000
3800
1C00
0E00
0300
0000
0FC0
3FE0
7870
7070
7070
7820
1F00
3E00
7000
E000
E000
C010
E030
F0E0
7FC0
1F00
ENDCHAR
STARTCHAR uni1EBA.ss01
ENCODING -1
SWIDTH 720 0
DWIDTH 13 0
BBX 12 22 1 0
BITMAP
0380
03C0
00C0
01C0
0380
0000
0FC0
3FE0
7870
7070
7070
7820
1F00
3E00
7000
E000
E000
C010
E030
F0E0
7FC0
1F00
ENDCHAR
STARTCHAR uni0206.ss01
ENCODING -1
SWIDTH 720 0
DWIDTH 13 0
BBX 12 21 1 0
BITMAP
03C0
0FE0
0C60
0000
0000
0FC0
3FE0
7870
7070
7070
7820
1F00
3E00
7000
E000
E000
C010
E030
F0E0
7FC0
1F00
ENDCHAR
STARTCHAR Emacron.ss01
ENCODING -1
SWIDTH 720 0
DWIDTH 13 0
BBX 12 19 1 0
BITMAP
07C0
07C0
0000
0FC0
3FE0
7870
7070
7070
7820
1F00
3E00
7000
E000
E000
C010
E030
F0E0
7FC0
1F00
ENDCHAR
STARTCHAR Eogonek.ss01
ENCODING -1
SWIDTH 720 0
DWIDTH 13 0
BBX 12 21 1 -5
BITMAP
0FC0
3FE0
7870
7070
7070
7820
1F00
3E00
7000
E000
E000
C010
E030
F0E0
7FC0
1F00
0600
0600
0600
0780
0380
ENDCHAR
STARTCHAR uni1EBC.ss01
ENCODING -1
SWIDTH 720 0
DWIDTH 13 0
BBX 12 21 1 0
BITMAP
0620
0F30
0DE0
08C0
0000
0FC0
3FE0
7870
7070
7070
7820
1F00
3E00
7000
E000
E000
C010
E030
F0E0
7FC0
1F00
ENDCHAR
STARTCHAR F.ss01
ENCODING -1
SWIDTH 671 0
DWIDTH 12 0
BBX 12 16 1 0
BITMAP
7FF0
7FF0
1C00
1C00
1800
1800
3800
FFC0
FFC0
3800
3000
3000
3000
7000
7000
3000
ENDCHAR
STARTCHAR G.ss01
ENCODING -1
SWIDTH 811 0
DWIDTH 15 0
BBX 13 20 1 -4
BITMAP
07C0
0FE0
3C70
3830
7030
6030
E000
E000
E000
E1F8
E1F8
E038
7030
7830
3FF0
0FF0
0030
0070
0070
0060
ENDCHAR
STARTCHAR Gbreve.ss01
ENCODING -1
SWIDTH 811 0
DWIDTH 15 0
BBX 13 25 1 -4
BITMAP
0410
0630
07F0
03C0
0000
07C0
0FE0
3C70
3830
7030
6030
E000
E000
E000
E1F8
E1F8
E038
7030
7830
3FF0
0FF0
0030
0070
0070
0060
ENDCHAR
STARTCHAR Gcaron.ss01
ENCODING -1
SWIDTH 811 0
DWIDTH 15 0
BBX 13 26 1 -4
BITMAP
0230
0360
0360
01C0
0180
0000
07C0
0FE0
3C70
3830
7030
6030
E000
E000
E000
E1F8
E1F8
E038
7030
7830
3FF0
0FF0
0030
0070
0070
0060
ENDCHAR
STARTCHAR Gcircumflex.ss01
ENCODING -1
SWIDTH 811 0
DWIDTH 15 0
BBX 13 26 1 -4
BITMAP
01C0
01C0
0360
0760
0660
0000
07C0
0FE0
3C70
3830
7030
6030
E000
E000
E000
E1F8
E1F8
E038
7030
7830
3FF0
0FF0
0030
0070
0070
0060
ENDCHAR
STARTCHAR uni0122.ss01
ENCODING -1
SWIDTH 811 0
DWIDTH 15 0
BBX 13 21 1 -5
BITMAP
07C0
0FE0
3C70
3830
7030
6030
E000
E000
E000
E1F8
E1F8
E038
7030
7830
3FF0
0FF0
0030
0670
0670
0660
0600
ENDCHAR
STARTCHAR Gdotaccent.ss01
ENCODING -1
SWIDTH 811 0
DWIDTH 15 0
BBX 13 24 1 -4
BITMAP
01C0
01C0
0180
0000
07C0
0FE0
3C70
3830
7030
6030
E000
E000
E000
E1F8
E1F8
E038
7030
7830
3FF0
0FF0
0030
0070
0070
0060
ENDCHAR
STARTCHAR H.ss01
ENCODING -1
SWIDTH 846 0
DWIDTH 15 0
BBX 14 16 1 0
BITMAP
1818
1818
3818
3818
3838
3838
3038
FFFC
FFFC
7030
7070
7070
6070
6070
6060
6060
ENDCHAR
STARTCHAR Hbar.ss01
ENCODING -1
SWIDTH 856 0
DWIDTH 15 0
BBX 15 16 1 0
BITMAP
1818
1818
7FFE
7FFE
3838
3838
3038
FFFC
FFFC
7030
7030
7070
7070
6070
6070
6060
ENDCHAR
STARTCHAR Hcircumflex.ss01
ENCODING -1
SWIDTH 846 0
DWIDTH 15 0
BBX 14 22 1 0
BITMAP
01C0
01C0
0360
0760
0660
0000
1818
1818
3818
3818
3838
3838
3038
FFFC
FFFC
7030
7070
7070
6070
6070
6060
6060
ENDCHAR
STARTCHAR I.ss01
ENCODING -1
SWIDTH 357 0
DWIDTH 6 0
BBX 5 16 1 0
BITMAP
18
38
38
38
30
30
30
70
70
70
60
60
60
60
E0
60
ENDCHAR
STARTCHAR Iacute.ss01
ENCODING -1
SWIDTH 357 0
DWIDTH 6 0
BBX 9 22 1 0
BITMAP
0100
0380
0700
0E00
1800
0000
1800
3800
3800
3800
3000
3000
3000
7000
7000
7000
6000
6000
6000
6000
E000
6000
ENDCHAR
STARTCHAR Iacute_J.loclNLD.ss01
ENCODING -1
SWIDTH 776 0
DWIDTH 14 0
BBX 15 22 2 0
BITMAP
0202
060E
0E1E
1C38
3030
0000
6060
6060
6060
6060
E0E0
E0E0
E0E0
E1E0
E3E0
FFE0
7EC0
00C0
01C0
C380
FF00
7E00
ENDCHAR
STARTCHAR Ibreve.ss01
ENCODING -1
SWIDTH 357 0
DWIDTH 6 0
BBX 8 21 1 0
BITMAP
41
E3
7E
3C
00
18
38
38
38
30
30
30
70
70
70
60
60
60
60
E0
60
ENDCHAR
STARTCHAR Icircumflex.ss01
ENCODING -1
SWIDTH 357 0
DWIDTH 6 0
BBX 7 22 1 0
BITMAP
1C
3C
3C
66
66
00
18
38
38
38
30
30
30
70
70
70
60
60
60
60
E0
60
ENDCHAR
STARTCHAR uni0208.ss01
ENCODING -1
SWIDTH 357 0
DWIDTH 6 0
BBX 6 22 1 0
BITMAP
48
DC
EC
6C
24
00
18
38
38
38
30
30
30
70
70
70
60
60
60
60
E0
60
ENDCHAR
STARTCHAR Idieresis.ss01
ENCODING -1
SWIDTH 357 0
DWIDTH 6 0
BBX 7 20 1 0
BITMAP
66
76
66
00
18
38
38
38
30
30
30
70
70
70
60
60
60
60
E0
60
ENDCHAR
STARTCHAR Idotaccent.ss01
ENCODING -1
SWIDTH 357 0
DWIDTH 6 0
BBX 6 20 1 0
BITMAP
18
3C
18
00
18
38
38
38
30
30
30
70
70
70
60
60
60
60
E0
60
ENDCHAR
STARTCHAR uni1ECA.ss01
ENCODING -1
SWIDTH 357 0
DWIDTH 6 0
BBX 5 20 1 -4
BITMAP
18
38
38
38
30
30
30
70
70
70
60
60
60
60
E0
60
00
E0
E0
C0
ENDCHAR
STARTCHAR Igrave.ss01
ENCODING -1
SWIDTH 357 0
DWIDTH 6 0
BBX 6 22 0 0
BITMAP
40
E0
F0
38
08
00
0C
1C
1C
1C
18
18
18
38
38
38
30
30
30
30
70
30
ENDCHAR
STARTCHAR uni1EC8.ss01
ENCODING -1
SWIDTH 357 0
DWIDTH 6 0
BBX 7 22 1 0
BITMAP
3C
3C
06
1C
1C
00
18
38
38
38
30
30
30
70
70
70
60
60
60
60
E0
60
ENDCHAR
STARTCHAR uni020A.ss01
ENCODING -1
SWIDTH 357 0
DWIDTH 6 0
BBX 8 21 1 0
BITMAP
3E
7F
E3
00
00
18
38
38
38
30
30
30
70
70
70
60
60
60
60
E0
60
ENDCHAR
STARTCHAR Imacron.ss01
ENCODING -1
SWIDTH 357 0
DWIDTH 6 0
BBX 7 19 1 0
BITMAP
7E
7E
00
18
38
38
38
30
30
30
70
70
70
60
60
60
60
E0
60
ENDCHAR
STARTCHAR Iogonek.ss01
ENCODING -1
SWIDTH 357 0
DWIDTH 6 0
BBX 6 21 0 -5
BITMAP
0C
1C
1C
1C
18
18
18
38
38
38
38
30
30
30
70
70
60
40
C0
78
78
ENDCHAR
STARTCHAR Itilde.ss01
ENCODING -1
SWIDTH 357 0
DWIDTH 6 0
BBX 8 21 1 0
BITMAP
71
7B
DF
86
00
18
38
38
38
30
30
30
70
70
70
60
60
60
60
E0
60
ENDCHAR
STARTCHAR J.ss01
ENCODING -1
SWIDTH 716 0
DWIDTH 13 0
BBX 12 16 1 0
BITMAP
0FE0
3FF0
70E0
E0E0
E0E0
60E0
60E0
00C0
00C0
00C0
01C0
01C0
C180
E380
7F00
3E00
ENDCHAR
STARTCHAR Jcircumflex.ss01
ENCODING -1
SWIDTH 716 0
DWIDTH 13 0
BBX 12 22 1 0
BITMAP
0380
0380
06C0
0EC0
0CC0
0000
0FE0
3FF0
70E0
E0E0
E0E0
60E0
60E0
00C0
00C0
00C0
01C0
01C0
C180
E380
7F00
3E00
ENDCHAR
STARTCHAR K.ss01
ENCODING -1
SWIDTH 779 0
DWIDTH 14 0
BBX 13 16 1 0
BITMAP
1838
3838
3830
3870
3060
30E0
33C0
FF00
FE00
7700
7380
6380
61C0
61C0
60F8
6078
ENDCHAR
STARTCHAR uni0136.ss01
ENCODING -1
SWIDTH 779 0
DWIDTH 14 0
BBX 13 21 1 -5
BITMAP
1838
3838
3830
3870
3060
30E0
33C0
FF00
FE00
7700
7380
6380
61C0
61C0
60F8
6078
0000
0C00
0C00
0C00
0C00
ENDCHAR
STARTCHAR L.ss01
ENCODING -1
SWIDTH 625 0
DWIDTH 11 0
BBX 10 16 1 0
BITMAP
3800
3800
3800
3800
3000
3000
7000
7000
7000
7000
6000
6000
6000
6000
FFC0
FFC0
ENDCHAR
STARTCHAR uni01C7.ss01
ENCODING -1
SWIDTH 1291 0
DWIDTH 23 0
BBX 22 16 1 0
BITMAP
3803FC
380FFC
381C18
381818
301818
301838
701838
700038
700038
700030
600030
600030
601870
601CE0
FFDFC0
FFC780
ENDCHAR
STARTCHAR Lacute.ss01
ENCODING -1
SWIDTH 625 0
DWIDTH 11 0
BBX 10 22 1 0
BITMAP
0100
0380
0700
0E00
1800
0000
3800
3800
3800
3800
3000
3000
7000
7000
7000
7000
6000
6000
6000
6000
FFC0
FFC0
ENDCHAR
STARTCHAR Lcaron.ss01
ENCODING -1
SWIDTH 625 0
DWIDTH 11 0
BBX 10 16 1 0
BITMAP
3800
38C0
38C0
3880
3080
3000
7000
7000
7000
7000
6000
6000
6000
6000
FFC0
FFC0
ENDCHAR
STARTCHAR uni013B.ss01
ENCODING -1
SWIDTH 625 0
DWIDTH 11 0
BBX 10 21 1 -5
BITMAP
3800
3800
3800
3800
3000
3000
7000
7000
7000
7000
6000
6000
6000
6000
FFC0
FFC0
0000
0C00
0C00
0C00
0800
ENDCHAR
STARTCHAR Ldot.ss01
ENCODING -1
SWIDTH 625 0
DWIDTH 11 0
BBX 10 16 1 0
BITMAP
3800
3800
3800
3800
3000
3000
7180
7380
7380
7000
6000
6000
6000
6000
FFC0
FFC0
ENDCHAR
STARTCHAR uni01C8.ss01
ENCODING -1
SWIDTH 854 0
DWIDTH 15 0
BBX 15 25 1 -9
BITMAP
3800
3800
3800
380E
300E
300C
7000
700C
700C
700C
601C
601C
6018
6018
FFD8
FFD8
0038
0078
00F0
01B0
0130
0330
0360
03E0
01C0
ENDCHAR
STARTCHAR Lslash.ss01
ENCODING -1
SWIDTH 625 0
DWIDTH 11 0
BBX 11 16 0 0
BITMAP
1C00
1C00
1C00
1C80
1B80
1F00
1E00
7800
F800
7800
3000
3000
3000
3000
7FE0
7FE0
ENDCHAR
STARTCHAR M.ss01
ENCODING -1
SWIDTH 1139 0
DWIDTH 21 0
BBX 19 16 1 0
BITMAP
39C3C0
3BE7C0
366CE0
3C68E0
3878E0
3870C0
7870C0
7060C0
70E1C0
70E1C0
70E1C0
60E180
60C180
60C180
E0C380
60C180
ENDCHAR
STARTCHAR N.ss01
ENCODING -1
SWIDTH 799 0
DWIDTH 14 0
BBX 13 16 1 0
BITMAP
39E0
3BF0
3730
3438
3C30
3830
7830
7070
7070
7070
7060
6060
6060
60E0
E0E0
6060
ENDCHAR
STARTCHAR uni01CA.ss01
ENCODING -1
SWIDTH 1515 0
DWIDTH 27 0
BBX 26 16 1 0
BITMAP
39E03FC0
3BF0FFC0
3731C180
34398180
3C318180
38318380
78318380
70700380
70700380
70700300
70600300
60600300
60618700
60E1CE00
E0E1FC00
60607800
ENDCHAR
STARTCHAR Nacute.ss01
ENCODING -1
SWIDTH 799 0
DWIDTH 14 0
BBX 13 22 1 0
BITMAP
0010
0030
0070
00E0
0180
0000
39E0
3BF0
3730
3438
3C30
3830
7830
7070
7070
7070
7060
6060
6060
60E0
E0E0
6060
ENDCHAR
STARTCHAR Ncaron.ss01
ENCODING -1
SWIDTH 799 0
DWIDTH 14 0
BBX 13 22 1 0
BITMAP
0620
0660
03C0
03C0
0180
0000
39E0
3BF0
3730
3438
3C30
3830
7830
7070
7070
7070
7060
6060
6060
60E0
E0E0
6060
ENDCHAR
STARTCHAR uni0145.ss01
ENCODING -1
SWIDTH 799 0
DWIDTH 14 0
BBX 13 21 1 -5
BITMAP
39E0
3BF0
3730
3438
3C30
3830
7830
7070
7070
7070
7060
6060
6060
60E0
E0E0
6060
0000
0C00
0C00
0C00
0C00
ENDCHAR
STARTCHAR Eng.ss01
ENCODING -1
SWIDTH 792 0
DWIDTH 14 0
BBX 12 23 1 -7
BITMAP
39E0
3BF0
3630
3430
3C30
3830
7870
7070
7070
7060
7060
60E0
60E0
60C0
E0C0
60C0
01C0
0180
0180
6380
6300
7E00
1C00
ENDCHAR
STARTCHAR uni01CB.ss01
ENCODING -1
SWIDTH 1008 0
DWIDTH 18 0
BBX 18 25 1 -9
BITMAP
39E000
3BF000
373000
343980
3C33C0
383180
783000
707180
707380
707380
706300
606300
606300
60E300
E0E300
606300
000700
000E00
001E00
003600
002600
006C00
006C00
007800
003000
ENDCHAR
STARTCHAR Ntilde.ss01
ENCODING -1
SWIDTH 799 0
DWIDTH 14 0
BBX 13 21 1 0
BITMAP
0710
07B0
0DE0
08E0
0000
39E0
3BF0
3730
3438
3C30
3830
7830
7070
7070
7070
7060
6060
6060
60E0
E0E0
6060
ENDCHAR
STARTCHAR OE.ss01
ENCODING -1
SWIDTH 1166 0
DWIDTH 21 0
BBX 20 16 1 0
BITMAP
07C7F0
1FFFF0
3C7E00
383C00
703C00
601C00
E01C00
E01FE0
E01FE0
E03800
E03800
E03800
707800
70FC10
3FCFF0
1F07E0
ENDCHAR
STARTCHAR P.ss01
ENCODING -1
SWIDTH 662 0
DWIDTH 12 0
BBX 11 16 1 0
BITMAP
3F00
7FC0
59C0
38E0
38E0
38E0
38E0
30C0
31C0
FF80
FE00
7000
7000
7000
6000
6000
ENDCHAR
STARTCHAR Thorn.ss01
ENCODING -1
SWIDTH 658 0
DWIDTH 12 0
BBX 11 16 1 0
BITMAP
1800
1800
3F00
7FC0
79C0
38E0
30E0
30E0
30C0
73C0
FF80
FE00
7000
6000
6000
6000
ENDCHAR
STARTCHAR Q.ss01
ENCODING -1
SWIDTH 816 0
DWIDTH 15 0
BBX 13 22 1 -6
BITMAP
07C0
1FF0
3C70
3838
7038
6018
6018
E018
E018
E038
E038
E030
6070
70E0
3FC0
1F80
0700
0380
01C0
01C0
00E0
0040
ENDCHAR
STARTCHAR R.ss01
ENCODING -1
SWIDTH 744 0
DWIDTH 13 0
BBX 12 16 1 0
BITMAP
3F00
7FC0
59C0
38E0
38E0
38E0
30C0
33C0
FF00
7E00
7700
7300
7380
61C0
61F0
60F0
ENDCHAR
STARTCHAR Racute.ss01
ENCODING -1
SWIDTH 744 0
DWIDTH 13 0
BBX 12 22 1 0
BITMAP
0020
0060
00E0
03C0
0300
0000
3F00
7FC0
59C0
38E0
38E0
38E0
30C0
33C0
FF00
7E00
7700
7300
7380
61C0
61F0
60F0
ENDCHAR
STARTCHAR Rcaron.ss01
ENCODING -1
SWIDTH 744 0
DWIDTH 13 0
BBX 12 22 1 0
BITMAP
0CC0
0CC0
0780
0780
0300
0000
3F00
7FC0
59C0
38E0
38E0
38E0
30C0
33C0
FF00
7E00
7700
7300
7380
61C0
61F0
60F0
ENDCHAR
STARTCHAR uni0156.ss01
ENCODING -1
SWIDTH 744 0
DWIDTH 13 0
BBX 12 21 1 -5
BITMAP
3F00
7FC0
59C0
38E0
38E0
38E0
30C0
33C0
FF00
7E00
7700
7300
7380
61C0
61F0
60F0
0000
0C00
0C00
0C00
0C00
ENDCHAR
STARTCHAR uni0210.ss01
ENCODING -1
SWIDTH 744 0
DWIDTH 13 0
BBX 12 22 1 0
BITMAP
0900
1B00
1B80
0D80
0C80
0000
3F00
7FC0
59C0
38E0
38E0
38E0
30C0
33C0
FF00
7E00
7700
7300
7380
61C0
61F0
60F0
ENDCHAR
STARTCHAR uni0212.ss01
ENCODING -1
SWIDTH 744 0
DWIDTH 13 0
BBX 12 21 1 0
BITMAP
0780
0FC0
18E0
0000
0000
3F00
7FC0
59C0
38E0
38E0
38E0
30C0
33C0
FF00
7E00
7700
7300
7380
61C0
61F0
60F0
ENDCHAR
STARTCHAR T.ss01
ENCODING -1
SWIDTH 631 0
DWIDTH 11 0
BBX 12 16 1 0
BITMAP
7FF0
FFF0
0600
0600
0E00
0E00
0E00
0C00
0C00
0C00
1C00
1C00
1C00
1C00
1C00
1800
ENDCHAR
STARTCHAR Tbar.ss01
ENCODING -1
SWIDTH 631 0
DWIDTH 11 0
BBX 12 16 1 0
BITMAP
7FF0
FFF0
0600
0600
0E00
0E00
0E00
7F80
7F80
0C00
1C00
1C00
1C00
1C00
1C00
1800
ENDCHAR
STARTCHAR Tcaron.ss01
ENCODING -1
SWIDTH 631 0
DWIDTH 11 0
BBX 12 22 1 0
BITMAP
0CC0
0CC0
0580
0700
0300
0000
7FF0
FFF0
0600
0600
0E00
0E00
0E00
0C00
0C00
0C00
1C00
1C00
1C00
1C00
1C00
1800
ENDCHAR
STARTCHAR uni0162.ss01
ENCODING -1
SWIDTH 631 0
DWIDTH 11 0
BBX 12 21 1 -5
BITMAP
7FF0
FFF0
0600
0600
0E00
0E00
0E00
0C00
0C00
0C00
1C00
1C00
1C00
1C00
1800
3800
3C00
0C00
0C00
7C00
7800
ENDCHAR
STARTCHAR uni021A.ss01
ENCODING -1
SWIDTH 631 0
DWIDTH 11 0
BBX 12 21 1 -5
BITMAP
7FF0
FFF0
0600
0600
0E00
0E00
0E00
0C00
0C00
0C00
1C00
1C00
1C00
1C00
1C00
1800
0000
1800
1800
1800
1000
ENDCHAR
STARTCHAR U.ss01
ENCODING -1
SWIDTH 800 0
DWIDTH 14 0
BBX 12 16 2 0
BITMAP
7030
7070
7070
7070
6060
6060
60E0
E0E0
E0E0
E1E0
C1E0
C3E0
C3C0
EEC0
FCC0
78C0
ENDCHAR
STARTCHAR Uacute.ss01
ENCODING -1
SWIDTH 800 0
DWIDTH 14 0
BBX 12 22 2 0
BITMAP
0020
0070
00E0
01C0
0300
0000
7030
7070
7070
7070
6060
6060
60E0
E0E0
E0E0
E1E0
C1E0
C3E0
C3C0
EEC0
FCC0
78C0
ENDCHAR
STARTCHAR Ubreve.ss01
ENCODING -1
SWIDTH 800 0
DWIDTH 14 0
BBX 12 21 2 0
BITMAP
0820
1C60
0FC0
0780
0000
7030
7070
7070
7070
6060
6060
60E0
E0E0
E0E0
E1E0
C1E0
C3E0
C3C0
EEC0
FCC0
78C0
ENDCHAR
STARTCHAR Ucircumflex.ss01
ENCODING -1
SWIDTH 800 0
DWIDTH 14 0
BBX 12 22 2 0
BITMAP
0380
0780
0780
0CC0
0CC0
0000
7030
7070
7070
7070
6060
6060
60E0
E0E0
E0E0
E1E0
C1E0
C3E0
C3C0
EEC0
FCC0
78C0
ENDCHAR
STARTCHAR uni0214.ss01
ENCODING -1
SWIDTH 800 0
DWIDTH 14 0
BBX 12 22 2 0
BITMAP
0900
1B00
1980
0D80
0C80
0000
7030
7070
7070
7070
6060
6060
60E0
E0E0
E0E0
E1E0
C1E0
C3E0
C3C0
EEC0
FCC0
78C0
ENDCHAR
STARTCHAR Udieresis.ss01
ENCODING -1
SWIDTH 800 0
DWIDTH 14 0
BBX 12 20 2 0
BITMAP
0CC0
0EC0
0CC0
0000
7030
7070
7070
7070
6060
6060
60E0
E0E0
E0E0
E1E0
C1E0
C3E0
C3C0
EEC0
FCC0
78C0
ENDCHAR
STARTCHAR uni1EE4.ss01
ENCODING -1
SWIDTH 800 0
DWIDTH 14 0
BBX 12 20 2 -4
BITMAP
7030
7070
7070
7070
6060
6060
60E0
E0E0
E0E0
E1E0
C1E0
C3E0
C3C0
EEC0
FCC0
78C0
0000
1C00
1C00
1C00
ENDCHAR
STARTCHAR Ugrave.ss01
ENCODING -1
SWIDTH 800 0
DWIDTH 14 0
BBX 12 22 2 0
BITMAP
1000
3800
3C00
0E00
0600
0000
7030
7070
7070
7070
6060
6060
60E0
E0E0
E0E0
E1E0
C1E0
C3E0
C3C0
EEC0
FCC0
78C0
ENDCHAR
STARTCHAR uni1EE6.ss01
ENCODING -1
SWIDTH 800 0
DWIDTH 14 0
BBX 12 22 2 0
BITMAP
0780
0780
00C0
0380
0380
0000
7030
7070
7070
7070
6060
6060
60E0
E0E0
E0E0
E1E0
C1E0
C3E0
C3C0
EEC0
FCC0
78C0
ENDCHAR
STARTCHAR Uhorn.ss01
ENCODING -1
SWIDTH 800 0
DWIDTH 14 0
BBX 15 19 2 0
BITMAP
0004
000E
000C
703C
7078
7070
7070
6060
6060
60E0
E0E0
E0E0
E1E0
C1E0
C3E0
C3C0
EEC0
FCC0
78C0
ENDCHAR
STARTCHAR uni1EE8.ss01
ENCODING -1
SWIDTH 800 0
DWIDTH 14 0
BBX 15 22 2 0
BITMAP
0020
0070
00E0
01C4
030E
000C
703C
7078
7070
7070
6060
6060
60E0
E0E0
E0E0
E1E0
C1E0
C3E0
C3C0
EEC0
FCC0
78C0
ENDCHAR
STARTCHAR uni1EF0.ss01
ENCODING -1
SWIDTH 800 0
DWIDTH 14 0
BBX 15 23 2 -4
BITMAP
0004
000E
000C
703C
7078
7070
7070
6060
6060
60E0
E0E0
E0E0
E1E0
C1E0
C3E0
C3C0
EEC0
FCC0
78C0
0000
1C00
1C00
1C00
ENDCHAR
STARTCHAR uni1EEA.ss01
ENCODING -1
SWIDTH 800 0
DWIDTH 14 0
BBX 15 22 2 0
BITMAP
1000
3800
3C00
0E04
060E
000C
703C
7078
7070
7070
6060
6060
60E0
E0E0
E0E0
E1E0
C1E0
C3E0
C3C0
EEC0
FCC0
78C0
ENDCHAR
STARTCHAR uni1EEC.ss01
ENCODING -1
SWIDTH 800 0
DWIDTH 14 0
BBX 15 22 2 0
BITMAP
0780
0780
00C0
0384
038E
000C
703C
7078
7070
7070
6060
6060
60E0
E0E0
E0E0
E1E0
C1E0
C3E0
C3C0
EEC0
FCC0
78C0
ENDCHAR
STARTCHAR uni1EEE.ss01
ENCODING -1
SWIDTH 800 0
DWIDTH 14 0
BBX 15 21 2 0
BITMAP
0E20
0F60
1BE4
11CE
000C
703C
7078
7070
7070
6060
6060
60E0
E0E0
E0E0
E1E0
C1E0
C3E0
C3C0
EEC0
FCC0
78C0
ENDCHAR
STARTCHAR Uhungarumlaut.ss01
ENCODING -1
SWIDTH 800 0
DWIDTH 14 0
BBX 12 22 2 0
BITMAP
0240
0660
06C0
06C0
0480
0000
7030
7070
7070
7070
6060
6060
60E0
E0E0
E0E0
E1E0
C1E0
C3E0
C3C0
EEC0
FCC0
78C0
ENDCHAR
STARTCHAR uni0216.ss01
ENCODING -1
SWIDTH 800 0
DWIDTH 14 0
BBX 12 21 2 0
BITMAP
0780
0FE0
1C60
0000
0000
7030
7070
7070
7070
6060
6060
60E0
E0E0
E0E0
E1E0
C1E0
C3E0
C3C0
EEC0
FCC0
78C0
ENDCHAR
STARTCHAR Umacron.ss01
ENCODING -1
SWIDTH 800 0
DWIDTH 14 0
BBX 12 19 2 0
BITMAP
0FC0
0FC0
0000
7030
7070
7070
7070
6060
6060
60E0
E0E0
E0E0
E1E0
C1E0
C3E0
C3C0
EEC0
FCC0
78C0
ENDCHAR
STARTCHAR Uogonek.ss01
ENCODING -1
SWIDTH 800 0
DWIDTH 14 0
BBX 12 21 2 -5
BITMAP
7030
7070
7070
7070
6060
6060
60E0
E0E0
E0E0
E1E0
C1E0
C3E0
C3C0
EEC0
FCC0
78C0
0180
0100
0380
01E0
01E0
ENDCHAR
STARTCHAR Uring.ss01
ENCODING -1
SWIDTH 800 0
DWIDTH 14 0
BBX 12 23 2 0
BITMAP
0380
0780
04C0
04C0
0780
0300
0000
7030
7070
7070
7070
6060
6060
60E0
E0E0
E0E0
E1E0
C1E0
C3E0
C3C0
EEC0
FCC0
78C0
ENDCHAR
STARTCHAR Utilde.ss01
ENCODING -1
SWIDTH 800 0
DWIDTH 14 0
BBX 12 21 2 0
BITMAP
0E20
0F60
1BE0
11C0
0000
7030
7070
7070
7070
6060
6060
60E0
E0E0
E0E0
E1E0
C1E0
C3E0
C3C0
EEC0
FCC0
78C0
ENDCHAR
STARTCHAR V.ss01
ENCODING -1
SWIDTH 797 0
DWIDTH 14 0
BBX 13 16 2 0
BITMAP
6038
6038
6030
E070
E070
E070
E060
E0E0
E0E0
E0C0
E1C0
6180
7380
7F00
3E00
1C00
ENDCHAR
STARTCHAR W.ss01
ENCODING -1
SWIDTH 1236 0
DWIDTH 22 0
BBX 21 16 2 0
BITMAP
607030
607038
607030
E06070
E0E070
E0E070
E0E060
E0E0E0
E1E0E0
E1E0C0
E1E1C0
E36180
677380
7E3F00
7C3E00
381C00
ENDCHAR
STARTCHAR Wacute.ss01
ENCODING -1
SWIDTH 1236 0
DWIDTH 22 0
BBX 21 22 2 0
BITMAP
000200
000600
000E00
001C00
003000
000000
607030
607038
607030
E06070
E0E070
E0E070
E0E060
E0E0E0
E1E0E0
E1E0C0
E1E1C0
E36180
677380
7E3F00
7C3E00
381C00
ENDCHAR
STARTCHAR Wcircumflex.ss01
ENCODING -1
SWIDTH 1236 0
DWIDTH 22 0
BBX 21 22 2 0
BITMAP
003000
007800
007800
00CC00
00CC00
000000
607030
607038
607030
E06070
E0E070
E0E070
E0E060
E0E0E0
E1E0E0
E1E0C0
E1E1C0
E36180
677380
7E3F00
7C3E00
381C00
ENDCHAR
STARTCHAR Wdieresis.ss01
ENCODING -1
SWIDTH 1236 0
DWIDTH 22 0
BBX 21 20 2 0
BITMAP
00CC00
00DC00
00CC00
000000
607030
607038
607030
E06070
E0E070
E0E070
E0E060
E0E0E0
E1E0E0
E1E0C0
E1E1C0
E36180
677380
7E3F00
7C3E00
381C00
ENDCHAR
STARTCHAR Wgrave.ss01
ENCODING -1
SWIDTH 1236 0
DWIDTH 22 0
BBX 21 22 2 0
BITMAP
020000
030000
03C000
00E000
006000
000000
607030
607038
607030
E06070
E0E070
E0E070
E0E060
E0E0E0
E1E0E0
E1E0C0
E1E1C0
E36180
677380
7E3F00
7C3E00
381C00
ENDCHAR
STARTCHAR X.ss01
ENCODING -1
SWIDTH 677 0
DWIDTH 12 0
BBX 14 16 -1 0
BITMAP
1C0C
0C1C
0E38
0E30
0770
07E0
03C0
0380
0380
07C0
0EC0
1CE0
3860
7070
7070
E030
ENDCHAR
STARTCHAR Y.ss01
ENCODING -1
SWIDTH 776 0
DWIDTH 14 0
BBX 11 16 2 0
BITMAP
6060
6060
6060
6060
E0E0
E0E0
E0E0
E1E0
E3E0
FFE0
7EC0
00C0
01C0
C380
FF00
7E00
ENDCHAR
STARTCHAR Yacute.ss01
ENCODING -1
SWIDTH 776 0
DWIDTH 14 0
BBX 11 22 2 0
BITMAP
0040
00E0
01E0
0380
0200
0000
6060
6060
6060
6060
E0E0
E0E0
E0E0
E1E0
E3E0
FFE0
7EC0
00C0
01C0
C380
FF00
7E00
ENDCHAR
STARTCHAR Ycircumflex.ss01
ENCODING -1
SWIDTH 776 0
DWIDTH 14 0
BBX 11 22 2 0
BITMAP
0300
0780
0D80
1D80
1880
0000
6060
6060
6060
6060
E0E0
E0E0
E0E0
E1E0
E3E0
FFE0
7EC0
00C0
01C0
C380
FF00
7E00
ENDCHAR
STARTCHAR Ydieresis.ss01
ENCODING -1
SWIDTH 776 0
DWIDTH 14 0
BBX 11 20 2 0
BITMAP
0DC0
1DC0
0D80
0000
6060
6060
6060
6060
E0E0
E0E0
E0E0
E1E0
E3E0
FFE0
7EC0
00C0
01C0
C380
FF00
7E00
ENDCHAR
STARTCHAR uni1EF4.ss01
ENCODING -1
SWIDTH 776 0
DWIDTH 14 0
BBX 11 20 2 -4
BITMAP
6060
6060
6060
6060
E0E0
E0E0
E0E0
E1E0
E3E0
FFE0
7EC0
00C0
01C0
C380
FF00
7E00
0000
1800
3800
3800
ENDCHAR
STARTCHAR Ygrave.ss01
ENCODING -1
SWIDTH 776 0
DWIDTH 14 0
BBX 11 22 2 0
BITMAP
2000
7000
3800
1C00
0600
0000
6060
6060
6060
6060
E0E0
E0E0
E0E0
E1E0
E3E0
FFE0
7EC0
00C0
01C0
C380
FF00
7E00
ENDCHAR
STARTCHAR uni1EF6.ss01
ENCODING -1
SWIDTH 776 0
DWIDTH 14 0
BBX 11 22 2 0
BITMAP
0700
0780
0180
0780
0700
0000
6060
6060
6060
6060
E0E0
E0E0
E0E0
E1E0
E3E0
FFE0
7EC0
00C0
01C0
C380
FF00
7E00
ENDCHAR
STARTCHAR uni0232.ss01
ENCODING -1
SWIDTH 776 0
DWIDTH 14 0
BBX 11 19 2 0
BITMAP
0F80
1F80
0000
6060
6060
6060
6060
E0E0
E0E0
E0E0
E1E0
E3E0
FFE0
7EC0
00C0
01C0
C380
FF00
7E00
ENDCHAR
STARTCHAR uni1EF8.ss01
ENCODING -1
SWIDTH 776 0
DWIDTH 14 0
BBX 11 21 2 0
BITMAP
0C40
1EE0
1BC0
1180
0000
6060
6060
6060
6060
E0E0
E0E0
E0E0
E1E0
E3E0
FFE0
7EC0
00C0
01C0
C380
FF00
7E00
ENDCHAR
STARTCHAR Z.ss01
ENCODING -1
SWIDTH 665 0
DWIDTH 12 0
BBX 12 16 0 0
BITMAP
3FF0
7FF0
0070
00E0
00E0
01C0
0380
0780
0700
0E00
1C00
3C00
3800
7000
FFF0
FFE0
ENDCHAR
STARTCHAR Zacute.ss01
ENCODING -1
SWIDTH 665 0
DWIDTH 12 0
BBX 12 22 0 0
BITMAP
0010
0030
0070
00E0
0180
0000
3FF0
7FF0
0070
00E0
00E0
01C0
0380
0780
0700
0E00
1C00
3C00
3800
7000
FFF0
FFE0
ENDCHAR
STARTCHAR Zcaron.ss01
ENCODING -1
SWIDTH 665 0
DWIDTH 12 0
BBX 12 22 0 0
BITMAP
0660
0660
03C0
03C0
0180
0000
3FF0
7FF0
0070
00E0
00E0
01C0
0380
0780
0700
0E00
1C00
3C00
3800
7000
FFF0
FFE0
ENDCHAR
STARTCHAR Zdotaccent.ss01
ENCODING -1
SWIDTH 665 0
DWIDTH 12 0
BBX 12 20 0 0
BITMAP
0180
03C0
0180
0000
3FF0
7FF0
0070
00E0
00E0
01C0
0380
0780
0700
0E00
1C00
3C00
3800
7000
FFF0
FFE0
ENDCHAR
STARTCHAR i.loclTRK
ENCODING -1
SWIDTH 246 0
DWIDTH 4 0
BBX 6 13 1 0
BITMAP
70
70
60
00
60
E0
E0
C0
C0
CC
DC
F8
70
ENDCHAR
STARTCHAR a.fina
ENCODING -1
SWIDTH 458 0
DWIDTH 8 0
BBX 7 9 1 0
BITMAP
18
7E
66
EE
CC
CC
DC
FC
6C
ENDCHAR
STARTCHAR aacute.fina
ENCODING -1
SWIDTH 458 0
DWIDTH 8 0
BBX 8 16 1 0
BITMAP
03
07
06
06
0C
08
00
18
7E
66
EE
CC
CC
DC
FC
6C
ENDCHAR
STARTCHAR abreve.fina
ENCODING -1
SWIDTH 458 0
DWIDTH 8 0
BBX 9 15 1 0
BITMAP
2100
6180
7300
3F00
1E00
0000
1800
7E00
6600
EE00
CC00
CC00
DC00
FC00
6C00
ENDCHAR
STARTCHAR uni1EAF.fina
ENCODING -1
SWIDTH 458 0
DWIDTH 8 0
BBX 9 16 1 0
BITMAP
0300
0700
2D00
6380
7F00
3E00
0000
1800
7E00
6600
EE00
CC00
CC00
DC00
FC00
6C00
ENDCHAR
STARTCHAR uni1EB7.fina
ENCODING -1
SWIDTH 458 0
DWIDTH 8 0
BBX 9 19 1 -4
BITMAP
2100
6180
7300
3F00
1E00
0000
1800
7E00
6600
EE00
CC00
CC00
DC00
FC00
6C00
0000
7000
7000
7000
ENDCHAR
STARTCHAR uni1EB1.fina
ENCODING -1
SWIDTH 458 0
DWIDTH 8 0
BBX 9 16 1 0
BITMAP
3000
3800
0C00
6380
7F00
3E00
0000
1800
7E00
6600
EE00
CC00
CC00
DC00
FC00
6C00
ENDCHAR
STARTCHAR uni1EB3.fina
ENCODING -1
SWIDTH 458 0
DWIDTH 8 0
BBX 9 17 1 0
BITMAP
1C00
0600
0600
0C00
6380
7F00
3E00
0000
1800
7E00
6600
EE00
CC00
CC00
DC00
FC00
6C00
ENDCHAR
STARTCHAR uni1EB5.fina
ENCODING -1
SWIDTH 458 0
DWIDTH 8 0
BBX 9 18 1 0
BITMAP
1000
3980
3F00
2700
2100
6380
7F00
1E00
0000
1800
7E00
6600
EE00
CC00
CC00
DC00
FC00
6C00
ENDCHAR
STARTCHAR acircumflex.fina
ENCODING -1
SWIDTH 458 0
DWIDTH 8 0
BBX 8 17 1 0
BITMAP
04
0E
1E
1E
36
33
62
00
18
7E
66
EE
CC
CC
DC
FC
6C
ENDCHAR
STARTCHAR uni1EA5.fina
ENCODING -1
SWIDTH 458 0
DWIDTH 8 0
BBX 10 17 1 0
BITMAP
0040
00C0
01C0
0D00
1E00
3600
3300
0000
1800
7E00
6600
EE00
CC00
CC00
DC00
FC00
6C00
ENDCHAR
STARTCHAR uni1EAD.fina
ENCODING -1
SWIDTH 458 0
DWIDTH 8 0
BBX 8 21 1 -4
BITMAP
04
0E
1E
1E
36
33
62
00
18
7E
66
EE
CC
CC
DC
FC
6C
00
70
70
70
ENDCHAR
STARTCHAR uni1EA7.fina
ENCODING -1
SWIDTH 458 0
DWIDTH 8 0
BBX 8 17 1 0
BITMAP
80
C0
E0
2C
1E
36
33
00
18
7E
66
EE
CC
CC
DC
FC
6C
ENDCHAR
STARTCHAR uni1EA9.fina
ENCODING -1
SWIDTH 458 0
DWIDTH 8 0
BBX 10 16 1 0
BITMAP
01C0
0040
0040
0DC0
3E00
3300
0000
1800
7E00
6600
EE00
CC00
CC00
DC00
FC00
6C00
ENDCHAR
STARTCHAR uni1EAB.fina
ENCODING -1
SWIDTH 458 0
DWIDTH 8 0
BBX 9 17 1 0
BITMAP
1980
3D00
2200
0C00
1E00
3600
3300
0000
1800
7E00
6600
EE00
CC00
CC00
DC00
FC00
6C00
ENDCHAR
STARTCHAR uni0201.fina
ENCODING -1
SWIDTH 458 0
DWIDTH 8 0
BBX 7 16 1 0
BITMAP
CC
FC
6C
6C
26
32
00
18
7E
66
EE
CC
CC
DC
FC
6C
ENDCHAR
STARTCHAR adieresis.fina
ENCODING -1
SWIDTH 458 0
DWIDTH 8 0
BBX 8 13 1 0
BITMAP
33
37
37
00
18
7E
66
EE
CC
CC
DC
FC
6C
ENDCHAR
STARTCHAR uni1EA1.fina
ENCODING -1
SWIDTH 458 0
DWIDTH 8 0
BBX 7 13 1 -4
BITMAP
18
7E
66
EE
CC
CC
DC
FC
6C
00
70
70
70
ENDCHAR
STARTCHAR agrave.fina
ENCODING -1
SWIDTH 458 0
DWIDTH 8 0
BBX 7 16 1 0
BITMAP
20
70
30
38
18
08
00
18
7E
66
EE
CC
CC
DC
FC
6C
ENDCHAR
STARTCHAR uni1EA3.fina
ENCODING -1
SWIDTH 458 0
DWIDTH 8 0
BBX 7 16 1 0
BITMAP
1C
1E
02
06
0E
0C
00
18
7E
66
EE
CC
CC
DC
FC
6C
ENDCHAR
STARTCHAR uni0203.fina
ENCODING -1
SWIDTH 458 0
DWIDTH 8 0
BBX 9 15 1 0
BITMAP
1E00
3F00
7300
6180
0000
0000
1800
7E00
6600
EE00
CC00
CC00
DC00
FC00
6C00
ENDCHAR
STARTCHAR amacron.fina
ENCODING -1
SWIDTH 458 0
DWIDTH 8 0
BBX 7 12 1 0
BITMAP
3E
3E
00
18
7E
66
EE
CC
CC
DC
FC
6C
ENDCHAR
STARTCHAR aogonek.fina
ENCODING -1
SWIDTH 458 0
DWIDTH 8 0
BBX 8 14 1 -5
BITMAP
18
7E
66
EE
CC
CC
DC
FC
6C
18
18
18
1F
0E
ENDCHAR
STARTCHAR aring.fina
ENCODING -1
SWIDTH 458 0
DWIDTH 8 0
BBX 7 16 1 0
BITMAP
1C
1E
32
32
1E
1C
00
18
7E
66
EE
CC
CC
DC
FC
6C
ENDCHAR
STARTCHAR aringacute.fina
ENCODING -1
SWIDTH 458 0
DWIDTH 8 0
BBX 11 18 1 0
BITMAP
0040
0060
0DC0
1E80
3200
3200
1E00
1C00
0000
1800
7E00
6600
EE00
CC00
CC00
DC00
FC00
6C00
ENDCHAR
STARTCHAR atilde.fina
ENCODING -1
SWIDTH 458 0
DWIDTH 8 0
BBX 9 14 1 0
BITMAP
3100
7D80
6F00
4600
0000
1800
7E00
6600
EE00
CC00
CC00
DC00
FC00
6C00
ENDCHAR
STARTCHAR ae.fina
ENCODING -1
SWIDTH 671 0
DWIDTH 12 0
BBX 11 9 1 0
BITMAP
1DC0
7FE0
E660
CE40
CDC0
CF20
CE20
FFE0
73C0
ENDCHAR
STARTCHAR aeacute.fina
ENCODING -1
SWIDTH 671 0
DWIDTH 12 0
BBX 11 16 1 0
BITMAP
00C0
00C0
01C0
0180
0300
0300
0000
1DC0
7FE0
E660
CE40
CDC0
CF20
CE20
FFE0
73C0
ENDCHAR
STARTCHAR b.fina
ENCODING -1
SWIDTH 475 0
DWIDTH 9 0
BBX 7 18 1 0
BITMAP
1C
1E
36
36
66
64
6C
E8
F8
D8
FC
EE
C6
C6
C6
EE
7C
38
ENDCHAR
STARTCHAR c.fina
ENCODING -1
SWIDTH 404 0
DWIDTH 7 0
BBX 7 9 1 0
BITMAP
38
7C
EC
C8
C0
C2
C6
FC
78
ENDCHAR
STARTCHAR cacute.fina
ENCODING -1
SWIDTH 404 0
DWIDTH 7 0
BBX 7 16 1 0
BITMAP
06
06
0E
0C
18
10
00
38
7C
EC
C8
C0
C2
C6
FC
78
ENDCHAR
STARTCHAR ccaron.fina
ENCODING -1
SWIDTH 404 0
DWIDTH 7 0
BBX 8 17 1 0
BITMAP
22
67
36
36
3C
38
18
00
38
7C
EC
C8
C0
C2
C6
FC
78
ENDCHAR
STARTCHAR ccedilla.fina
ENCODING -1
SWIDTH 404 0
DWIDTH 7 0
BBX 7 14 1 -5
BITMAP
38
7C
EC
C8
C0
C2
C6
FC
78
78
18
18
F8
F0
ENDCHAR
STARTCHAR ccircumflex.fina
ENCODING -1
SWIDTH 404 0
DWIDTH 7 0
BBX 7 17 1 0
BITMAP
08
1C
3C
3C
64
66
46
00
38
7C
EC
C8
C0
C2
C6
FC
78
ENDCHAR
STARTCHAR cdotaccent.fina
ENCODING -1
SWIDTH 404 0
DWIDTH 7 0
BBX 7 13 1 0
BITMAP
18
38
18
00
38
7C
EC
C8
C0
C2
C6
FC
78
ENDCHAR
STARTCHAR d.fina
ENCODING -1
SWIDTH 493 0
DWIDTH 9 0
BBX 10 18 1 0
BITMAP
0180
03C0
03C0
06C0
06C0
06C0
0680
0E80
0F80
1D00
7D00
6E00
CE00
CC00
CE00
CE00
FE00
7600
ENDCHAR
STARTCHAR dcaron.fina
ENCODING -1
SWIDTH 458 0
DWIDTH 8 0
BBX 11 18 1 0
BITMAP
0060
0060
0360
0340
0340
0700
0700
0600
0600
1E00
7E00
6600
EE00
CC00
CC00
DC00
FC00
6C00
ENDCHAR
STARTCHAR dcroat.fina
ENCODING -1
SWIDTH 458 0
DWIDTH 8 0
BBX 9 16 1 0
BITMAP
0300
0300
0300
3F80
3F80
0600
0600
1E00
7E00
6600
EE00
CC00
CC00
DC00
FC00
6C00
ENDCHAR
STARTCHAR uni01C6.fina
ENCODING -1
SWIDTH 876 0
DWIDTH 16 0
BBX 16 24 1 -8
BITMAP
0333
0333
0336
073C
071C
0618
0642
1EFF
7EFE
661C
EE38
CC70
CCE0
DDF0
FFB8
7718
0038
0078
00D8
0198
01B8
01B0
01E0
01C0
ENDCHAR
STARTCHAR e.fina
ENCODING -1
SWIDTH 411 0
DWIDTH 7 0
BBX 7 9 1 0
BITMAP
38
7C
CC
CC
F8
F2
C6
FC
78
ENDCHAR
STARTCHAR eacute.fina
ENCODING -1
SWIDTH 411 0
DWIDTH 7 0
BBX 7 16 1 0
BITMAP
06
06
0E
0C
18
18
00
38
7C
CC
CC
F8
F2
C6
FC
78
ENDCHAR
STARTCHAR ebreve.fina
ENCODING -1
SWIDTH 411 0
DWIDTH 7 0
BBX 8 15 1 0
BITMAP
42
C3
E7
7E
3C
00
38
7C
CC
CC
F8
F2
C6
FC
78
ENDCHAR
STARTCHAR ecaron.fina
ENCODING -1
SWIDTH 411 0
DWIDTH 7 0
BBX 8 17 1 0
BITMAP
22
33
36
36
3C
3C
18
00
38
7C
CC
CC
F8
F2
C6
FC
78
ENDCHAR
STARTCHAR ecircumflex.fina
ENCODING -1
SWIDTH 411 0
DWIDTH 7 0
BBX 7 17 1 0
BITMAP
08
1C
1C
34
36
66
66
00
38
7C
CC
CC
F8
F2
C6
FC
78
ENDCHAR
STARTCHAR uni1EBF.fina
ENCODING -1
SWIDTH 411 0
DWIDTH 7 0
BBX 9 17 1 0
BITMAP
0080
0180
0380
1E00
3C00
7600
6600
0000
3800
7C00
CC00
CC00
F800
F200
C600
FC00
7800
ENDCHAR
STARTCHAR uni1EC7.fina
ENCODING -1
SWIDTH 411 0
DWIDTH 7 0
BBX 7 21 1 -4
BITMAP
08
1C
1C
34
36
66
66
00
38
7C
CC
CC
F8
F2
C6
FC
78
00
30
78
30
ENDCHAR
STARTCHAR uni1EC1.fina
ENCODING -1
SWIDTH 411 0
DWIDTH 7 0
BBX 8 17 0 0
BITMAP
40
C0
70
2E
1E
3B
33
00
1C
3E
66
66
7C
79
63
7E
3C
ENDCHAR
STARTCHAR uni1EC3.fina
ENCODING -1
SWIDTH 411 0
DWIDTH 7 0
BBX 10 16 1 0
BITMAP
0380
00C0
00C0
1F80
3C00
6600
0000
3800
7C00
CC00
CC00
F800
F200
C600
FC00
7800
ENDCHAR
STARTCHAR uni1EC5.fina
ENCODING -1
SWIDTH 411 0
DWIDTH 7 0
BBX 8 17 1 0
BITMAP
33
7E
46
1C
3C
76
66
00
38
7C
CC
CC
F8
F2
C6
FC
78
ENDCHAR
STARTCHAR uni0205.fina
ENCODING -1
SWIDTH 411 0
DWIDTH 7 0
BBX 8 16 0 0
BITMAP
6C
EC
6C
66
36
12
00
1C
3E
66
66
7C
79
63
7E
3C
ENDCHAR
STARTCHAR edieresis.fina
ENCODING -1
SWIDTH 411 0
DWIDTH 7 0
BBX 7 13 1 0
BITMAP
66
66
66
00
38
7C
CC
CC
F8
F2
C6
FC
78
ENDCHAR
STARTCHAR edotaccent.fina
ENCODING -1
SWIDTH 411 0
DWIDTH 7 0
BBX 7 13 1 0
BITMAP
18
3C
18
00
38
7C
CC
CC
F8
F2
C6
FC
78
ENDCHAR
STARTCHAR uni1EB9.fina
ENCODING -1
SWIDTH 411 0
DWIDTH 7 0
BBX 7 13 1 -4
BITMAP
38
7C
CC
CC
F8
F2
C6
FC
78
00
30
78
30
ENDCHAR
STARTCHAR egrave.fina
ENCODING -1
SWIDTH 411 0
DWIDTH 7 0
BBX 7 16 1 0
BITMAP
60
60
60
30
30
10
00
38
7C
CC
CC
F8
F2
C6
FC
78
ENDCHAR
STARTCHAR uni1EBB.fina
ENCODING -1
SWIDTH 411 0
DWIDTH 7 0
BBX 7 16 1 0
BITMAP
3C
3C
06
04
1C
18
00
38
7C
CC
CC
F8
F2
C6
FC
78
ENDCHAR
STARTCHAR uni0207.fina
ENCODING -1
SWIDTH 411 0
DWIDTH 7 0
BBX 8 15 1 0
BITMAP
3C
7E
67
C3
00
00
38
7C
CC
CC
F8
F2
C6
FC
78
ENDCHAR
STARTCHAR emacron.fina
ENCODING -1
SWIDTH 411 0
DWIDTH 7 0
BBX 7 12 1 0
BITMAP
7E
7E
00
38
7C
CC
CC
F8
F2
C6
FC
78
ENDCHAR
STARTCHAR eogonek.fina
ENCODING -1
SWIDTH 411 0
DWIDTH 7 0
BBX 7 14 1 -5
BITMAP
38
7C
CC
CC
D8
F2
C6
FE
7C
30
30
30
3E
1C
ENDCHAR
STARTCHAR uni1EBD.fina
ENCODING -1
SWIDTH 411 0
DWIDTH 7 0
BBX 8 14 1 0
BITMAP
71
7B
DE
8E
00
38
7C
CC
CC
F8
F2
C6
FC
78
ENDCHAR
STARTCHAR g.fina
ENCODING -1
SWIDTH 449 0
DWIDTH 8 0
BBX 8 18 0 -9
BITMAP
0C
3F
33
77
66
66
6E
7E
36
0E
1C
3C
6C
4C
D8
D8
F0
70
ENDCHAR
STARTCHAR gbreve.fina
ENCODING -1
SWIDTH 449 0
DWIDTH 8 0
BBX 10 24 0 -9
BITMAP
1080
30C0
3980
1F80
0F00
0000
0C00
3F00
3300
7700
6600
6600
6E00
7E00
3600
0E00
1C00
3C00
6C00
4C00
D800
D800
F000
7000
ENDCHAR
STARTCHAR gcaron.fina
ENCODING -1
SWIDTH 449 0
DWIDTH 8 0
BBX 9 26 0 -9
BITMAP
0880
1980
1980
0F00
0F00
0E00
0600
0000
0C00
3F00
3300
7700
6600
6600
6E00
7E00
3600
0E00
1C00
3C00
6C00
4C00
D800
D800
F000
7000
ENDCHAR
STARTCHAR gcircumflex.fina
ENCODING -1
SWIDTH 449 0
DWIDTH 8 0
BBX 9 26 0 -9
BITMAP
0200
0700
0F00
0F00
1B00
1980
3100
0000
0C00
3F00
3300
7700
6600
6600
6E00
7E00
3600
0E00
1C00
3C00
6C00
4C00
D800
D800
F000
7000
ENDCHAR
STARTCHAR uni0123.fina
ENCODING -1
SWIDTH 449 0
DWIDTH 8 0
BBX 8 24 0 -9
BITMAP
06
06
06
06
04
00
0C
3F
33
77
66
66
6E
7E
36
0E
1C
3C
6C
4C
D8
D8
F0
70
ENDCHAR
STARTCHAR gdotaccent.fina
ENCODING -1
SWIDTH 449 0
DWIDTH 8 0
BBX 8 22 0 -9
BITMAP
06
0E
0E
00
0C
3F
33
77
66
66
6E
7E
36
0E
1C
3C
6C
4C
D8
D8
F0
70
ENDCHAR
STARTCHAR h.fina
ENCODING -1
SWIDTH 490 0
DWIDTH 9 0
BBX 7 18 1 0
BITMAP
0C
1E
36
36
66
64
6C
68
F8
F6
EE
DE
D6
F6
E6
E6
EE
C6
ENDCHAR
STARTCHAR hbar.fina
ENCODING -1
SWIDTH 490 0
DWIDTH 9 0
BBX 7 16 1 0
BITMAP
30
30
30
FE
FE
60
60
66
EE
DE
D6
F6
E6
E6
EE
C6
ENDCHAR
STARTCHAR hcircumflex.fina
ENCODING -1
SWIDTH 490 0
DWIDTH 9 0
BBX 8 23 1 0
BITMAP
0E
0E
1B
33
33
0C
1E
36
36
66
64
6C
68
F8
F6
EE
DE
D6
F6
E6
E6
EE
C6
ENDCHAR
STARTCHAR i.fina
ENCODING -1
SWIDTH 222 0
DWIDTH 4 0
BBX 4 13 1 0
BITMAP
70
70
70
00
60
60
E0
C0
C0
C0
C0
C0
C0
ENDCHAR
STARTCHAR dotlessi.fina
ENCODING -1
SWIDTH 222 0
DWIDTH 4 0
BBX 3 9 1 0
BITMAP
60
60
E0
C0
C0
C0
C0
C0
C0
ENDCHAR
STARTCHAR iacute.fina
ENCODING -1
SWIDTH 222 0
DWIDTH 4 0
BBX 5 16 1 0
BITMAP
18
18
18
30
30
20
00
60
60
E0
C0
C0
C0
C0
C0
C0
ENDCHAR
STARTCHAR iacute_j.loclNLD.fina
ENCODING -1
SWIDTH 479 0
DWIDTH 9 0
BBX 11 25 0 -9
BITMAP
0440
0EE0
0CC0
1980
1980
1100
0000
3300
3300
6700
6600
6600
6E00
7E00
7E00
3600
0E00
1C00
3C00
6C00
CC00
D800
D800
F000
6000
ENDCHAR
STARTCHAR ibreve.fina
ENCODING -1
SWIDTH 222 0
DWIDTH 4 0
BBX 7 15 0 0
BITMAP
82
C6
C6
FC
78
00
30
30
70
60
60
60
60
60
60
ENDCHAR
STARTCHAR icircumflex.fina
ENCODING -1
SWIDTH 222 0
DWIDTH 4 0
BBX 6 17 0 0
BITMAP
10
38
38
6C
6C
CC
CC
00
30
30
70
60
60
60
60
60
60
ENDCHAR
STARTCHAR uni0209.fina
ENCODING -1
SWIDTH 222 0
DWIDTH 4 0
BBX 6 16 -1 0
BITMAP
D8
D8
CC
6C
64
24
00
18
18
38
30
30
30
30
30
30
ENDCHAR
STARTCHAR idieresis.fina
ENCODING -1
SWIDTH 222 0
DWIDTH 4 0
BBX 7 13 0 0
BITMAP
EC
EE
CC
00
30
30
70
60
60
60
60
60
60
ENDCHAR
STARTCHAR i.loclTRK.fina
ENCODING -1
SWIDTH 222 0
DWIDTH 4 0
BBX 4 13 1 0
BITMAP
70
70
60
00
60
60
E0
C0
C0
C0
C0
C0
C0
ENDCHAR
STARTCHAR uni1ECB.fina
ENCODING -1
SWIDTH 222 0
DWIDTH 4 0
BBX 5 17 0 -4
BITMAP
38
38
38
00
30
30
70
60
60
60
60
60
60
00
E0
E0
C0
ENDCHAR
STARTCHAR igrave.fina
ENCODING -1
SWIDTH 222 0
DWIDTH 4 0
BBX 4 16 0 0
BITMAP
C0
C0
E0
60
30
30
00
30
30
70
60
60
60
60
60
60
ENDCHAR
STARTCHAR uni1EC9.fina
ENCODING -1
SWIDTH 222 0
DWIDTH 4 0
BBX 5 16 1 0
BITMAP
70
78
18
18
70
70
00
60
60
E0
C0
C0
C0
C0
C0
C0
ENDCHAR
STARTCHAR uni020B.fina
ENCODING -1
SWIDTH 222 0
DWIDTH 4 0
BBX 7 15 0 0
BITMAP
7C
FE
C6
C6
00
00
30
30
70
60
60
60
60
60
60
ENDCHAR
STARTCHAR imacron.fina
ENCODING -1
SWIDTH 222 0
DWIDTH 4 0
BBX 6 12 0 0
BITMAP
FC
FC
00
30
30
70
60
60
60
60
60
60
ENDCHAR
STARTCHAR iogonek.fina
ENCODING -1
SWIDTH 222 0
DWIDTH 4 0
BBX 5 18 0 -5
BITMAP
38
38
30
00
30
30
70
60
60
60
60
60
60
C0
80
C0
F0
70
ENDCHAR
STARTCHAR itilde.fina
ENCODING -1
SWIDTH 222 0
DWIDTH 4 0
BBX 8 14 -1 0
BITMAP
31
7B
CF
46
00
18
18
38
30
30
30
30
30
30
ENDCHAR
STARTCHAR j.fina
ENCODING -1
SWIDTH 229 0
DWIDTH 4 0
BBX 9 22 -4 -9
BITMAP
0300
0780
0300
0000
0300
0700
0700
0600
0600
0600
0600
0600
0600
0E00
1C00
3C00
6C00
4C00
D800
D800
F000
6000
ENDCHAR
STARTCHAR uni0237.fina
ENCODING -1
SWIDTH 229 0
DWIDTH 4 0
BBX 8 18 -4 -9
BITMAP
03
07
07
06
06
06
06
06
06
0E
1C
3C
6C
4C
D8
D8
F0
60
ENDCHAR
STARTCHAR jcircumflex.fina
ENCODING -1
SWIDTH 229 0
DWIDTH 4 0
BBX 10 26 -4 -9
BITMAP
0100
0380
0380
06C0
06C0
0CC0
0CC0
0000
0300
0700
0700
0600
0600
0600
0600
0600
0600
0E00
1C00
3C00
6C00
4C00
D800
D800
F000
6000
ENDCHAR
STARTCHAR k.fina
ENCODING -1
SWIDTH 521 0
DWIDTH 9 0
BBX 8 18 1 0
BITMAP
0C
1E
36
36
64
64
6C
68
F0
F7
EF
DB
D3
E6
EC
EE
EF
C7
ENDCHAR
STARTCHAR uni0137.fina
ENCODING -1
SWIDTH 521 0
DWIDTH 9 0
BBX 8 24 1 -6
BITMAP
0C
1E
36
36
64
64
6C
68
F0
F7
EF
DB
D3
E6
EC
EE
EF
C7
00
30
30
30
30
20
ENDCHAR
STARTCHAR kgreenlandic.fina
ENCODING -1
SWIDTH 541 0
DWIDTH 10 0
BBX 9 9 1 0
BITMAP
6E00
FF00
DB00
FB00
F000
F080
F980
DF80
CF00
ENDCHAR
STARTCHAR l.fina
ENCODING -1
SWIDTH 368 0
DWIDTH 7 0
BBX 7 18 1 0
BITMAP
1C
1C
36
36
66
64
64
6C
CC
D8
D8
F0
F0
E0
C0
E4
7C
38
ENDCHAR
STARTCHAR lacute.fina
ENCODING -1
SWIDTH 368 0
DWIDTH 7 0
BBX 10 23 1 0
BITMAP
0080
01C0
0380
0700
0C00
1C00
1C00
3600
3600
6600
6400
6400
6C00
CC00
D800
D800
F000
F000
E000
C000
E400
7C00
3800
ENDCHAR
STARTCHAR lcaron.fina
ENCODING -1
SWIDTH 368 0
DWIDTH 7 0
BBX 9 18 1 0
BITMAP
1C00
1C00
3780
3780
6780
6580
6400
6C00
CC00
D800
D800
F000
F000
E000
C000
E400
7C00
3800
ENDCHAR
STARTCHAR uni013C.fina
ENCODING -1
SWIDTH 368 0
DWIDTH 7 0
BBX 7 24 1 -6
BITMAP
1C
1C
36
36
66
64
64
6C
CC
D8
D8
F0
F0
E0
C0
E4
7C
38
00
60
60
60
60
40
ENDCHAR
STARTCHAR ldot.fina
ENCODING -1
SWIDTH 466 0
DWIDTH 8 0
BBX 8 18 1 0
BITMAP
18
38
30
30
70
70
60
60
6C
FC
EC
C0
C0
C0
C3
E7
FE
78
ENDCHAR
STARTCHAR uni01C9.fina
ENCODING -1
SWIDTH 555 0
DWIDTH 10 0
BBX 9 27 1 -9
BITMAP
1C00
1C00
3600
3600
6600
6780
6780
6D80
CC00
D980
DB80
F300
F300
E300
C300
E700
7F00
3B00
0600
0E00
1E00
3600
6600
6C00
6C00
7800
7000
ENDCHAR
STARTCHAR lslash.fina
ENCODING -1
SWIDTH 368 0
DWIDTH 7 0
BBX 9 20 1 0
BITMAP
0F80
3F80
7880
6000
1C00
3E00
3600
6600
6600
6400
EC00
CC00
D800
D000
F000
E000
C000
E400
7C00
3800
ENDCHAR
STARTCHAR m.fina
ENCODING -1
SWIDTH 732 0
DWIDTH 13 0
BBX 12 9 1 0
BITMAP
6670
EEF0
DFF0
F770
E760
E660
EE60
CE60
C660
ENDCHAR
STARTCHAR n.fina
ENCODING -1
SWIDTH 484 0
DWIDTH 9 0
BBX 7 9 1 0
BITMAP
66
EE
DE
D6
E6
E6
EE
CE
C6
ENDCHAR
STARTCHAR nacute.fina
ENCODING -1
SWIDTH 484 0
DWIDTH 9 0
BBX 8 16 1 0
BITMAP
03
03
06
06
0C
08
00
66
EE
DE
D6
E6
E6
EE
CE
C6
ENDCHAR
STARTCHAR napostrophe.fina
ENCODING -1
SWIDTH 484 0
DWIDTH 9 0
BBX 8 15 0 0
BITMAP
C0
C0
C0
C0
80
00
33
77
6F
6B
73
73
77
67
63
ENDCHAR
STARTCHAR ncaron.fina
ENCODING -1
SWIDTH 484 0
DWIDTH 9 0
BBX 8 17 1 0
BITMAP
11
33
1B
1A
1E
1C
0C
00
66
EE
DE
D6
E6
E6
EE
CE
C6
ENDCHAR
STARTCHAR uni0146.fina
ENCODING -1
SWIDTH 484 0
DWIDTH 9 0
BBX 7 15 1 -6
BITMAP
66
EE
DE
D6
E6
E6
EE
CE
C6
00
30
30
30
30
20
ENDCHAR
STARTCHAR eng.fina
ENCODING -1
SWIDTH 484 0
DWIDTH 9 0
BBX 7 15 1 -6
BITMAP
66
EE
DE
D6
E6
E6
EC
CC
CC
0C
18
18
98
F0
E0
ENDCHAR
STARTCHAR uni01CC.fina
ENCODING -1
SWIDTH 725 0
DWIDTH 13 0
BBX 13 22 1 -9
BITMAP
0030
0078
0030
0000
6630
EE70
DE70
F660
E660
E660
EEE0
CFE0
C760
00E0
01C0
03C0
06C0
0CC0
0D80
0D80
0F00
0600
ENDCHAR
STARTCHAR ntilde.fina
ENCODING -1
SWIDTH 484 0
DWIDTH 9 0
BBX 9 14 1 0
BITMAP
3080
3D80
6F00
4700
0000
6600
EE00
DE00
D600
E600
E600
EE00
CE00
C600
ENDCHAR
STARTCHAR o.fina
ENCODING -1
SWIDTH 453 0
DWIDTH 8 0
BBX 7 9 1 0
BITMAP
38
7C
CE
C6
C6
CE
CC
FC
78
ENDCHAR
STARTCHAR oacute.fina
ENCODING -1
SWIDTH 453 0
DWIDTH 8 0
BBX 7 16 1 0
BITMAP
06
06
0E
0C
18
10
00
38
7C
CE
C6
C6
CE
CC
FC
78
ENDCHAR
STARTCHAR obreve.fina
ENCODING -1
SWIDTH 453 0
DWIDTH 8 0
BBX 8 15 1 0
BITMAP
42
C3
E6
7E
3C
00
38
7C
CE
C6
C6
CE
CC
FC
78
ENDCHAR
STARTCHAR ocircumflex.fina
ENCODING -1
SWIDTH 453 0
DWIDTH 8 0
BBX 7 17 1 0
BITMAP
08
1C
3C
3C
64
66
46
00
38
7C
CE
C6
C6
CE
CC
FC
78
ENDCHAR
STARTCHAR uni1ED1.fina
ENCODING -1
SWIDTH 453 0
DWIDTH 8 0
BBX 9 17 1 0
BITMAP
0080
0180
0380
1E00
3C00
6E00
6600
0000
3800
7C00
CE00
C600
C600
CE00
CC00
FC00
7800
ENDCHAR
STARTCHAR uni1ED9.fina
ENCODING -1
SWIDTH 453 0
DWIDTH 8 0
BBX 7 21 1 -4
BITMAP
08
1C
3C
3C
64
66
46
00
38
7C
CE
C6
C6
CE
CC
FC
78
00
30
70
70
ENDCHAR
STARTCHAR uni1ED3.fina
ENCODING -1
SWIDTH 453 0
DWIDTH 8 0
BBX 8 17 0 0
BITMAP
40
C0
60
2E
1E
37
33
00
1C
3E
67
63
63
67
66
7E
3C
ENDCHAR
STARTCHAR uni1ED5.fina
ENCODING -1
SWIDTH 453 0
DWIDTH 8 0
BBX 10 16 1 0
BITMAP
0380
00C0
0080
1F80
3C00
6600
0000
3800
7C00
CE00
C600
C600
CE00
CC00
FC00
7800
ENDCHAR
STARTCHAR uni1ED7.fina
ENCODING -1
SWIDTH 453 0
DWIDTH 8 0
BBX 8 17 1 0
BITMAP
33
7E
46
18
3C
6E
66
00
38
7C
CE
C6
C6
CE
CC
FC
78
ENDCHAR
STARTCHAR uni020D.fina
ENCODING -1
SWIDTH 453 0
DWIDTH 8 0
BBX 8 16 0 0
BITMAP
4C
EC
6C
66
36
32
00
1C
3E
67
63
63
67
66
7E
3C
ENDCHAR
STARTCHAR odieresis.fina
ENCODING -1
SWIDTH 453 0
DWIDTH 8 0
BBX 7 13 1 0
BITMAP
66
6E
66
00
38
7C
CE
C6
C6
CE
CC
FC
78
ENDCHAR
STARTCHAR uni022B.fina
ENCODING -1
SWIDTH 453 0
DWIDTH 8 0
BBX 7 16 1 0
BITMAP
7E
7E
00
66
6E
66
00
38
7C
CE
C6
C6
CE
CC
FC
78
ENDCHAR
STARTCHAR uni0231.fina
ENCODING -1
SWIDTH 453 0
DWIDTH 8 0
BBX 7 16 1 0
BITMAP
7E
7E
00
18
3C
18
00
38
7C
CE
C6
C6
CE
CC
FC
78
ENDCHAR
STARTCHAR uni1ECD.fina
ENCODING -1
SWIDTH 453 0
DWIDTH 8 0
BBX 7 13 1 -4
BITMAP
38
7C
CE
C6
C6
CE
CC
FC
78
00
30
70
70
ENDCHAR
STARTCHAR ograve.fina
ENCODING -1
SWIDTH 453 0
DWIDTH 8 0
BBX 7 16 1 0
BITMAP
40
E0
60
30
30
10
00
38
7C
CE
C6
C6
CE
CC
FC
78
ENDCHAR
STARTCHAR uni1ECF.fina
ENCODING -1
SWIDTH 453 0
DWIDTH 8 0
BBX 7 16 1 0
BITMAP
3C
3C
04
04
1C
18
00
38
7C
CE
C6
C6
CE
CC
FC
78
ENDCHAR
STARTCHAR ohorn.fina
ENCODING -1
SWIDTH 453 0
DWIDTH 8 0
BBX 8 12 1 0
BITMAP
01
03
03
3E
7C
CE
C6
C6
CE
CC
FC
78
ENDCHAR
STARTCHAR uni1EDB.fina
ENCODING -1
SWIDTH 453 0
DWIDTH 8 0
BBX 8 16 1 0
BITMAP
04
0E
0C
18
19
13
03
3E
7C
CE
C6
C6
CE
CC
FC
78
ENDCHAR
STARTCHAR uni1EE3.fina
ENCODING -1
SWIDTH 453 0
DWIDTH 8 0
BBX 8 16 1 -4
BITMAP
01
03
03
3E
7C
CE
C6
C6
CE
CC
FC
78
00
30
70
70
ENDCHAR
STARTCHAR uni1EDD.fina
ENCODING -1
SWIDTH 453 0
DWIDTH 8 0
BBX 8 16 1 0
BITMAP
C0
E0
60
60
31
13
03
3E
7C
CE
C6
C6
CE
CC
FC
78
ENDCHAR
STARTCHAR uni1EDF.fina
ENCODING -1
SWIDTH 453 0
DWIDTH 8 0
BBX 8 16 1 0
BITMAP
38
3C
0C
0C
3D
3B
03
3E
7C
CE
C6
C6
CE
CC
FC
78
ENDCHAR
STARTCHAR uni1EE1.fina
ENCODING -1
SWIDTH 453 0
DWIDTH 8 0
BBX 8 14 1 0
BITMAP
62
7E
DD
8B
03
3E
7C
CE
C6
C6
CE
CC
FC
78
ENDCHAR
STARTCHAR ohungarumlaut.fina
ENCODING -1
SWIDTH 453 0
DWIDTH 8 0
BBX 8 16 1 0
BITMAP
1B
1B
37
36
26
64
00
38
7C
CE
C6
C6
CE
CC
FC
78
ENDCHAR
STARTCHAR uni020F.fina
ENCODING -1
SWIDTH 453 0
DWIDTH 8 0
BBX 8 15 1 0
BITMAP
3C
7E
E7
C3
00
00
38
7C
CE
C6
C6
CE
CC
FC
78
ENDCHAR
STARTCHAR omacron.fina
ENCODING -1
SWIDTH 453 0
DWIDTH 8 0
BBX 7 12 1 0
BITMAP
7E
7E
00
38
7C
CE
C6
C6
CE
CC
FC
78
ENDCHAR
STARTCHAR uni01EB.fina
ENCODING -1
SWIDTH 453 0
DWIDTH 8 0
BBX 7 14 1 -5
BITMAP
38
7C
CE
C6
C6
CE
CC
FC
78
30
60
60
3C
18
ENDCHAR
STARTCHAR oslash.fina
ENCODING -1
SWIDTH 463 0
DWIDTH 8 0
BBX 7 14 1 -2
BITMAP
08
08
18
38
7C
DE
D6
D6
D6
FE
FC
78
20
20
ENDCHAR
STARTCHAR oslashacute.fina
ENCODING -1
SWIDTH 463 0
DWIDTH 8 0
BBX 7 18 1 -2
BITMAP
18
18
18
30
30
28
18
38
7C
DE
D6
D6
D6
FE
FC
78
20
20
ENDCHAR
STARTCHAR otilde.fina
ENCODING -1
SWIDTH 453 0
DWIDTH 8 0
BBX 8 14 1 0
BITMAP
71
7B
DE
8E
00
38
7C
CE
C6
C6
CE
CC
FC
78
ENDCHAR
STARTCHAR uni022D.fina
ENCODING -1
SWIDTH 453 0
DWIDTH 8 0
BBX 8 17 1 0
BITMAP
3E
7E
00
71
7B
DE
8E
00
38
7C
CE
C6
C6
CE
CC
FC
78
ENDCHAR
STARTCHAR oe.fina
ENCODING -1
SWIDTH 686 0
DWIDTH 12 0
BBX 12 9 1 0
BITMAP
39C0
7FE0
CE60
C660
C7C0
CF90
CE30
FFE0
73C0
ENDCHAR
STARTCHAR p.fina
ENCODING -1
SWIDTH 457 0
DWIDTH 8 0
BBX 10 18 -2 -9
BITMAP
1B80
1FC0
1CC0
18C0
18C0
19C0
3980
3F00
7E00
7800
5800
D800
D800
D800
9000
F000
F000
6000
ENDCHAR
STARTCHAR thorn.fina
ENCODING -1
SWIDTH 483 0
DWIDTH 9 0
BBX 8 21 0 -6
BITMAP
38
38
30
30
30
70
77
6F
7B
73
73
67
6E
7C
70
60
E0
E0
E0
E0
E0
ENDCHAR
STARTCHAR q.fina
ENCODING -1
SWIDTH 449 0
DWIDTH 8 0
BBX 7 16 1 -6
BITMAP
06
1E
7E
66
EE
CC
CC
DC
FC
7C
18
18
18
18
18
18
ENDCHAR
STARTCHAR r.fina
ENCODING -1
SWIDTH 495 0
DWIDTH 9 0
BBX 8 9 1 0
BITMAP
66
EE
DE
D7
E7
E6
E0
C0
C0
ENDCHAR
STARTCHAR racute.fina
ENCODING -1
SWIDTH 495 0
DWIDTH 9 0
BBX 8 16 1 0
BITMAP
02
07
06
0C
0C
08
00
66
EE
DE
D7
E7
E6
E0
C0
C0
ENDCHAR
STARTCHAR rcaron.fina
ENCODING -1
SWIDTH 495 0
DWIDTH 9 0
BBX 8 17 1 0
BITMAP
11
33
33
36
16
1C
18
00
66
EE
DE
D7
E7
E6
E0
C0
C0
ENDCHAR
STARTCHAR uni0157.fina
ENCODING -1
SWIDTH 495 0
DWIDTH 9 0
BBX 8 15 1 -6
BITMAP
66
EE
DE
D7
E7
E6
E0
C0
C0
00
C0
C0
C0
80
80
ENDCHAR
STARTCHAR uni0211.fina
ENCODING -1
SWIDTH 495 0
DWIDTH 9 0
BBX 8 16 1 0
BITMAP
D8
DC
EC
6C
64
26
00
66
EE
DE
D7
E7
E6
E0
C0
C0
ENDCHAR
STARTCHAR uni0213.fina
ENCODING -1
SWIDTH 495 0
DWIDTH 9 0
BBX 8 15 1 0
BITMAP
1E
3F
63
63
00
00
66
EE
DE
D7
E7
E6
E0
C0
C0
ENDCHAR
STARTCHAR s.fina
ENCODING -1
SWIDTH 394 0
DWIDTH 7 0
BBX 7 9 0 0
BITMAP
1C
18
18
3C
6C
6E
DE
BE
1C
ENDCHAR
STARTCHAR sacute.fina
ENCODING -1
SWIDTH 394 0
DWIDTH 7 0
BBX 8 16 0 0
BITMAP
03
03
07
06
0C
08
00
1C
18
18
3C
6C
6E
DE
BE
1C
ENDCHAR
STARTCHAR scaron.fina
ENCODING -1
SWIDTH 394 0
DWIDTH 7 0
BBX 9 17 0 0
BITMAP
1100
1980
1B00
1B00
1E00
1E00
0C00
0000
1C00
1800
1800
3C00
6C00
6E00
DE00
BE00
1C00
ENDCHAR
STARTCHAR scedilla.fina
ENCODING -1
SWIDTH 394 0
DWIDTH 7 0
BBX 7 14 0 -5
BITMAP
0C
18
18
38
3C
6E
C6
9E
3C
3C
0C
0C
7C
78
ENDCHAR
STARTCHAR scircumflex.fina
ENCODING -1
SWIDTH 394 0
DWIDTH 7 0
BBX 8 17 0 0
BITMAP
04
0E
0E
1E
32
33
23
00
1C
18
18
3C
6C
6E
DE
BE
1C
ENDCHAR
STARTCHAR uni0219.fina
ENCODING -1
SWIDTH 394 0
DWIDTH 7 0
BBX 7 15 0 -6
BITMAP
1C
18
18
3C
6C
6E
DE
BE
1C
00
18
18
18
18
10
ENDCHAR
STARTCHAR germandbls.fina
ENCODING -1
SWIDTH 580 0
DWIDTH 10 0
BBX 9 19 1 -4
BITMAP
0F00
3F80
3180
6180
6180
6700
EE00
CC00
CE00
CF00
C780
D980
D980
DF80
CF00
C000
C000
C000
C000
ENDCHAR
STARTCHAR uni01C9.ss01.fina
ENCODING -1
SWIDTH 466 0
DWIDTH 8 0
BBX 9 25 0 -9
BITMAP
1800
1800
3800
3B80
3380
3300
3000
7300
7300
6300
6700
6700
6600
6E00
7E00
3600
0E00
1E00
3C00
6C00
4C00
CC00
D800
F800
7000
ENDCHAR
STARTCHAR eng.ss01.fina
ENCODING -1
SWIDTH 484 0
DWIDTH 9 0
BBX 8 18 0 -9
BITMAP
33
77
6F
6B
73
73
77
66
66
0E
1E
36
2C
6C
4C
D8
78
70
ENDCHAR
STARTCHAR p.ss01.fina
ENCODING -1
SWIDTH 488 0
DWIDTH 9 0
BBX 10 18 -2 -9
BITMAP
0CC0
0DC0
0FC0
0EC0
0CC0
1CC0
1CC0
1DC0
38C0
3800
7800
5800
D800
9800
9000
B000
F000
E000
ENDCHAR
STARTCHAR z.ss01.fina
ENCODING -1
SWIDTH 406 0
DWIDTH 7 0
BBX 9 18 -1 -8
BITMAP
3880
3F80
3F80
0600
0C00
1800
3000
3C00
1C00
0E00
1E00
3E00
6600
6C00
CC00
DC00
F800
7000
ENDCHAR
STARTCHAR zacute.ss01.fina
ENCODING -1
SWIDTH 406 0
DWIDTH 7 0
BBX 9 24 -1 -8
BITMAP
0180
0180
0300
0300
0600
0400
3880
3F80
3F80
0600
0C00
1800
3000
3C00
1C00
0E00
1E00
3E00
6600
6C00
CC00
DC00
F800
7000
ENDCHAR
STARTCHAR zcaron.ss01.fina
ENCODING -1
SWIDTH 406 0
DWIDTH 7 0
BBX 9 25 -1 -8
BITMAP
0880
1980
0D80
0D00
0F00
0E00
0600
3880
3F80
3F80
0600
0C00
1800
3000
3C00
1C00
0E00
1E00
3E00
6600
6C00
CC00
DC00
F800
7000
ENDCHAR
STARTCHAR zdotaccent.ss01.fina
ENCODING -1
SWIDTH 406 0
DWIDTH 7 0
BBX 9 21 -1 -8
BITMAP
0600
0E00
0E00
3880
3F80
3F80
0600
0C00
1800
3000
3C00
1C00
0E00
1E00
3E00
6600
6C00
CC00
DC00
F800
7000
ENDCHAR
STARTCHAR t.fina
ENCODING -1
SWIDTH 413 0
DWIDTH 7 0
BBX 8 17 0 0
BITMAP
06
0F
1B
1B
1B
32
36
3C
FF
FF
30
30
30
30
33
3E
1E
ENDCHAR
STARTCHAR tbar.fina
ENCODING -1
SWIDTH 387 0
DWIDTH 7 0
BBX 7 15 0 0
BITMAP
18
18
18
38
30
FE
FE
30
70
FC
FC
70
72
3E
1C
ENDCHAR
STARTCHAR tcaron.fina
ENCODING -1
SWIDTH 413 0
DWIDTH 7 0
BBX 11 17 0 0
BITMAP
0600
0F60
1B60
1B60
1B40
3200
3600
3C00
FF00
FF00
3000
3000
3000
3000
3300
3E00
1E00
ENDCHAR
STARTCHAR uni0163.fina
ENCODING -1
SWIDTH 413 0
DWIDTH 7 0
BBX 8 22 0 -5
BITMAP
06
0F
1B
1B
1B
32
36
3C
FF
FF
30
30
30
30
32
3F
1E
3C
04
0C
7C
78
ENDCHAR
STARTCHAR uni021B.fina
ENCODING -1
SWIDTH 413 0
DWIDTH 7 0
BBX 8 23 0 -6
BITMAP
06
0F
1B
1B
1B
32
36
3C
FF
FF
30
30
30
30
33
3E
1E
00
18
18
18
18
10
ENDCHAR
STARTCHAR u.fina
ENCODING -1
SWIDTH 460 0
DWIDTH 8 0
BBX 7 9 1 0
BITMAP
66
66
CE
CE
CC
DC
FC
FC
6C
ENDCHAR
STARTCHAR uacute.fina
ENCODING -1
SWIDTH 460 0
DWIDTH 8 0
BBX 8 16 1 0
BITMAP
02
07
06
0C
0C
08
00
66
66
CE
CE
CC
DC
FC
FC
6C
ENDCHAR
STARTCHAR ubreve.fina
ENCODING -1
SWIDTH 460 0
DWIDTH 8 0
BBX 8 15 1 0
BITMAP
41
63
63
7E
3C
00
66
66
CE
CE
CC
DC
FC
FC
6C
ENDCHAR
STARTCHAR ucircumflex.fina
ENCODING -1
SWIDTH 460 0
DWIDTH 8 0
BBX 7 17 1 0
BITMAP
04
0C
1E
16
36
76
66
00
66
66
CE
CE
CC
DC
FC
FC
6C
ENDCHAR
STARTCHAR uni0215.fina
ENCODING -1
SWIDTH 460 0
DWIDTH 8 0
BBX 7 16 1 0
BITMAP
D8
DC
EC
6C
24
26
00
66
66
CE
CE
CC
DC
FC
FC
6C
ENDCHAR
STARTCHAR udieresis.fina
ENCODING -1
SWIDTH 460 0
DWIDTH 8 0
BBX 8 13 1 0
BITMAP
36
77
76
00
66
66
CE
CE
CC
DC
FC
FC
6C
ENDCHAR
STARTCHAR uni1EE5.fina
ENCODING -1
SWIDTH 460 0
DWIDTH 8 0
BBX 7 13 1 -4
BITMAP
66
66
CE
CE
CC
DC
FC
FC
6C
00
30
70
70
ENDCHAR
STARTCHAR ugrave.fina
ENCODING -1
SWIDTH 460 0
DWIDTH 8 0
BBX 7 16 1 0
BITMAP
60
60
30
30
18
08
00
66
66
CE
CE
CC
DC
FC
FC
6C
ENDCHAR
STARTCHAR uni1EE7.fina
ENCODING -1
SWIDTH 460 0
DWIDTH 8 0
BBX 7 16 1 0
BITMAP
1C
1E
06
06
1E
1C
00
66
66
CE
CE
CC
DC
FC
FC
6C
ENDCHAR
STARTCHAR uhorn.fina
ENCODING -1
SWIDTH 472 0
DWIDTH 9 0
BBX 9 12 1 0
BITMAP
0080
0180
0180
6780
6700
CE00
CE00
CC00
DC00
FC00
FC00
6C00
ENDCHAR
STARTCHAR uni1EE9.fina
ENCODING -1
SWIDTH 472 0
DWIDTH 9 0
BBX 9 16 1 0
BITMAP
0200
0700
0600
0C00
0C80
0980
0180
6780
6700
CE00
CE00
CC00
DC00
FC00
FC00
6C00
ENDCHAR
STARTCHAR uni1EF1.fina
ENCODING -1
SWIDTH 472 0
DWIDTH 9 0
BBX 9 16 1 -4
BITMAP
0080
0180
0180
6780
6700
CE00
CE00
CC00
DC00
FC00
FC00
6C00
0000
3000
7000
7000
ENDCHAR
STARTCHAR uni1EEB.fina
ENCODING -1
SWIDTH 472 0
DWIDTH 9 0
BBX 9 16 1 0
BITMAP
6000
6000
3000
3000
1880
0980
0180
6780
6700
CE00
CE00
CC00
DC00
FC00
FC00
6C00
ENDCHAR
STARTCHAR uni1EED.fina
ENCODING -1
SWIDTH 472 0
DWIDTH 9 0
BBX 9 16 1 0
BITMAP
1C00
1E00
0600
0600
1E80
1D80
0180
6780
6700
CE00
CE00
CC00
DC00
FC00
FC00
6C00
ENDCHAR
STARTCHAR uni1EEF.fina
ENCODING -1
SWIDTH 472 0
DWIDTH 9 0
BBX 9 14 1 0
BITMAP
3300
3B00
6E80
4580
0180
6780
6700
CE00
CE00
CC00
DC00
FC00
FC00
6C00
ENDCHAR
STARTCHAR uhungarumlaut.fina
ENCODING -1
SWIDTH 460 0
DWIDTH 8 0
BBX 9 16 1 0
BITMAP
1900
1B80
1B00
1300
3200
2600
0000
6600
6600
CE00
CE00
CC00
DC00
FC00
FC00
6C00
ENDCHAR
STARTCHAR uni0217.fina
ENCODING -1
SWIDTH 460 0
DWIDTH 8 0
BBX 8 15 1 0
BITMAP
1E
3F
63
63
00
00
66
66
CE
CE
CC
DC
FC
FC
6C
ENDCHAR
STARTCHAR umacron.fina
ENCODING -1
SWIDTH 460 0
DWIDTH 8 0
BBX 7 12 1 0
BITMAP
3E
7E
00
66
66
CE
CE
CC
DC
FC
FC
6C
ENDCHAR
STARTCHAR uogonek.fina
ENCODING -1
SWIDTH 460 0
DWIDTH 8 0
BBX 8 14 1 -5
BITMAP
66
66
CE
CE
CC
DC
FC
FC
6C
18
18
18
1F
0E
ENDCHAR
STARTCHAR uring.fina
ENCODING -1
SWIDTH 460 0
DWIDTH 8 0
BBX 7 16 1 0
BITMAP
1C
1E
36
36
3E
1C
00
66
66
CE
CE
CC
DC
FC
FC
6C
ENDCHAR
STARTCHAR utilde.fina
ENCODING -1
SWIDTH 460 0
DWIDTH 8 0
BBX 8 14 1 0
BITMAP
31
7B
6F
46
00
66
66
CE
CE
CC
DC
FC
FC
6C
ENDCHAR
STARTCHAR v.fina
ENCODING -1
SWIDTH 420 0
DWIDTH 8 0
BBX 7 9 1 0
BITMAP
C6
C6
CE
CC
DC
D8
F8
F0
60
ENDCHAR
STARTCHAR w.fina
ENCODING -1
SWIDTH 666 0
DWIDTH 12 0
BBX 12 9 1 0
BITMAP
C630
CE60
CE60
CEE0
DEC0
DFC0
F780
F700
6700
ENDCHAR
STARTCHAR wacute.fina
ENCODING -1
SWIDTH 666 0
DWIDTH 12 0
BBX 12 16 1 0
BITMAP
0180
0180
0380
0300
0600
0600
0000
C630
CE60
CE60
CEE0
DEC0
DFC0
F780
F700
6700
ENDCHAR
STARTCHAR wcircumflex.fina
ENCODING -1
SWIDTH 666 0
DWIDTH 12 0
BBX 12 17 1 0
BITMAP
0200
0700
0700
0D00
0D80
1980
1980
0000
C630
CE60
CE60
CEE0
DEC0
DFC0
F780
F700
6700
ENDCHAR
STARTCHAR wdieresis.fina
ENCODING -1
SWIDTH 666 0
DWIDTH 12 0
BBX 12 13 1 0
BITMAP
1980
1D80
1980
0000
C630
CE60
CE60
CEE0
DEC0
DFC0
F780
F700
6700
ENDCHAR
STARTCHAR wgrave.fina
ENCODING -1
SWIDTH 666 0
DWIDTH 12 0
BBX 12 16 1 0
BITMAP
1800
1800
1800
0C00
0C00
0600
0000
C630
CE60
CE60
CEE0
DEC0
DFC0
F780
F700
6700
ENDCHAR
STARTCHAR x.fina
ENCODING -1
SWIDTH 580 0
DWIDTH 10 0
BBX 11 9 0 0
BITMAP
39C0
7FC0
2EC0
0E00
4E00
6E20
CE60
FFC0
7380
ENDCHAR
STARTCHAR y.fina
ENCODING -1
SWIDTH 449 0
DWIDTH 8 0
BBX 8 18 0 -9
BITMAP
33
33
67
66
66
6E
7E
7E
36
0E
1C
3C
6C
CC
D8
D8
F0
60
ENDCHAR
STARTCHAR yacute.fina
ENCODING -1
SWIDTH 449 0
DWIDTH 8 0
BBX 9 25 0 -9
BITMAP
0100
0380
0300
0600
0600
0400
0000
3300
3300
6700
6600
6600
6E00
7E00
7E00
3600
0E00
1C00
3C00
6C00
CC00
D800
D800
F000
6000
ENDCHAR
STARTCHAR ycircumflex.fina
ENCODING -1
SWIDTH 449 0
DWIDTH 8 0
BBX 8 26 0 -9
BITMAP
02
06
0F
0B
1B
3B
33
00
33
33
67
66
66
6E
7E
7E
36
0E
1C
3C
6C
CC
D8
D8
F0
60
ENDCHAR
STARTCHAR ydieresis.fina
ENCODING -1
SWIDTH 449 0
DWIDTH 8 0
BBX 9 22 0 -9
BITMAP
1B00
3B80
3B00
0000
3300
3300
6700
6600
6600
6E00
7E00
7E00
3600
0E00
1C00
3C00
6C00
CC00
D800
D800
F000
6000
ENDCHAR
STARTCHAR uni1EF5.fina
ENCODING -1
SWIDTH 449 0
DWIDTH 8 0
BBX 8 18 0 -9
BITMAP
33
33
67
66
66
6E
7E
7E
36
0E
1C
3C
6C
CC
DB
DF
F3
60
ENDCHAR
STARTCHAR ygrave.fina
ENCODING -1
SWIDTH 449 0
DWIDTH 8 0
BBX 8 25 0 -9
BITMAP
30
30
18
18
0C
04
00
33
33
67
66
66
6E
7E
7E
36
0E
1C
3C
6C
CC
D8
D8
F0
60
ENDCHAR
STARTCHAR uni1EF7.fina
ENCODING -1
SWIDTH 449 0
DWIDTH 8 0
BBX 8 25 0 -9
BITMAP
0E
0F
03
03
0F
0E
00
33
33
67
66
66
6E
7E
7E
36
0E
1C
3C
6C
CC
D8
D8
F0
60
ENDCHAR
STARTCHAR uni0233.fina
ENCODING -1
SWIDTH 449 0
DWIDTH 8 0
BBX 8 21 0 -9
BITMAP
1F
3F
00
33
33
67
66
66
6E
7E
7E
36
0E
1C
3C
6C
CC
D8
D8
F0
60
ENDCHAR
STARTCHAR uni1EF9.fina
ENCODING -1
SWIDTH 449 0
DWIDTH 8 0
BBX 9 23 0 -9
BITMAP
1880
3D80
3780
2300
0000
3300
3300
6700
6600
6600
6E00
7E00
7E00
3600
0E00
1C00
3C00
6C00
CC00
D800
D800
F000
6000
ENDCHAR
STARTCHAR z.fina
ENCODING -1
SWIDTH 412 0
DWIDTH 7 0
BBX 8 9 0 0
BITMAP
7F
7F
0E
38
30
60
E0
FF
FF
ENDCHAR
STARTCHAR zacute.fina
ENCODING -1
SWIDTH 412 0
DWIDTH 7 0
BBX 8 16 0 0
BITMAP
03
03
07
06
04
0C
00
7F
7F
0E
38
30
60
E0
FF
FF
ENDCHAR
STARTCHAR zcaron.fina
ENCODING -1
SWIDTH 412 0
DWIDTH 7 0
BBX 9 17 0 0
BITMAP
1100
1980
1B00
1B00
1E00
1E00
0C00
0000
7F00
7F00
0E00
3800
3000
6000
E000
FF00
FF00
ENDCHAR
STARTCHAR zdotaccent.fina
ENCODING -1
SWIDTH 412 0
DWIDTH 7 0
BBX 8 13 0 0
BITMAP
0C
1E
0C
00
7F
7F
0E
38
30
60
E0
FF
FF
ENDCHAR
STARTCHAR iacute_j.loclNLD
ENCODING -1
SWIDTH 479 0
DWIDTH 9 0
BBX 11 25 0 -9
BITMAP
0440
0EE0
0CC0
1980
1980
1100
0000
3300
3300
6700
6600
6600
6E60
7FC0
7F80
3700
0E00
1C00
3C00
6C00
CC00
D800
D800
F000
6000
ENDCHAR
STARTCHAR b.ss01
ENCODING -1
SWIDTH 449 0
DWIDTH 8 0
BBX 10 18 1 0
BITMAP
1C00
1E00
3600
3600
6400
6C00
6C00
F800
D800
FC00
EE00
CE00
CFC0
CF80
C600
EC00
7C00
3000
ENDCHAR
STARTCHAR d.ss01
ENCODING -1
SWIDTH 470 0
DWIDTH 8 0
BBX 10 16 1 0
BITMAP
0300
0300
0300
0700
0700
0600
0600
1E00
7E00
6600
EE00
CC00
CCC0
DDC0
FF80
7700
ENDCHAR
STARTCHAR f.ss01
ENCODING -1
SWIDTH 323 0
DWIDTH 6 0
BBX 11 27 -3 -9
BITMAP
00C0
01E0
0360
0360
0660
0640
0640
06C0
0EC0
0C80
0D80
0D00
0F00
0FE0
0FE0
0C00
0C00
0C00
0C00
2C00
6C00
4C00
DC00
D800
D800
F800
7000
ENDCHAR
STARTCHAR l.ss01
ENCODING -1
SWIDTH 237 0
DWIDTH 4 0
BBX 6 16 1 0
BITMAP
30
30
70
70
60
60
60
E0
E0
C0
C0
C0
CC
D8
F8
60
ENDCHAR
STARTCHAR lacute.ss01
ENCODING -1
SWIDTH 237 0
DWIDTH 4 0
BBX 8 22 1 0
BITMAP
02
07
0F
1C
10
00
30
30
70
70
60
60
60
E0
E0
C0
C0
C0
CC
D8
F8
60
ENDCHAR
STARTCHAR uni013C.ss01
ENCODING -1
SWIDTH 237 0
DWIDTH 4 0
BBX 6 22 1 -6
BITMAP
30
30
70
70
60
60
60
E0
E0
C0
C0
C0
CC
D8
F8
60
00
C0
C0
C0
C0
C0
ENDCHAR
STARTCHAR uni01C9.ss01
ENCODING -1
SWIDTH 491 0
DWIDTH 9 0
BBX 11 25 0 -9
BITMAP
1800
1800
3800
3B80
3380
3300
3000
7300
7300
6300
6700
6700
6660
6EC0
7F80
3700
0E00
1E00
3C00
6C00
4C00
CC00
D800
F800
7000
ENDCHAR
STARTCHAR lslash.ss01
ENCODING -1
SWIDTH 324 0
DWIDTH 6 0
BBX 8 18 0 0
BITMAP
0C
1C
18
18
38
3E
3E
38
F0
F0
70
60
60
60
61
73
7E
3C
ENDCHAR
STARTCHAR eng.ss01
ENCODING -1
SWIDTH 508 0
DWIDTH 9 0
BBX 11 18 0 -9
BITMAP
3300
7700
6F00
7B00
7300
7360
77E0
67C0
6700
0E00
1E00
3600
2C00
6C00
4C00
D800
7800
7000
ENDCHAR
STARTCHAR o.ss01
ENCODING -1
SWIDTH 451 0
DWIDTH 8 0
BBX 9 9 1 0
BITMAP
3C00
7F00
CF80
C780
C600
CE00
CC00
FC00
7800
ENDCHAR
STARTCHAR oacute.ss01
ENCODING -1
SWIDTH 451 0
DWIDTH 8 0
BBX 9 16 1 0
BITMAP
0600
0600
0E00
0C00
1800
1000
0000
3C00
7F00
CF80
C780
C600
CE00
CC00
FC00
7800
ENDCHAR
ENDFONT
